<?xml version="1.0" standalone="no"?>
<!DOCTYPE svg PUBLIC "-//W3C//DTD SVG 20010904//EN"
 "http://www.w3.org/TR/2001/REC-SVG-20010904/DTD/svg10.dtd">
<svg version="1.0" xmlns="http://www.w3.org/2000/svg"
 width="1080.000000pt" height="1080.000000pt" viewBox="0 0 1080.000000 1080.000000"
 preserveAspectRatio="xMidYMid meet">
<metadata>
Created by potrace 1.14, written by Peter Selinger 2001-2017
</metadata>
<g transform="translate(0.000000,1080.000000) scale(0.100000,-0.100000)"
fill="#000000" stroke="none">
<path d="M0 5400 l0 -5400 5400 0 5400 0 0 5400 0 5400 -5400 0 -5400 0 0
-5400z m5943 1914 c62 -9 118 -57 141 -121 46 -125 61 -156 84 -171 23 -15 70
-18 362 -22 325 -5 336 -6 382 -29 57 -28 112 -87 142 -150 19 -42 21 -63 21
-246 l0 -200 -70 0 -70 0 -5 195 c-5 207 -8 217 -58 255 -25 19 -45 20 -342
23 l-314 3 70 -73 c117 -121 191 -235 244 -374 28 -74 37 -107 55 -214 53
-307 -49 -641 -265 -873 -38 -41 -70 -78 -70 -81 0 -3 132 -6 293 -6 398 0
379 -13 387 280 l5 195 70 0 70 0 0 -200 c0 -187 -2 -203 -23 -251 -27 -60
-79 -113 -142 -146 -45 -23 -48 -23 -486 -28 -303 -3 -445 -9 -455 -16 -17
-13 -151 -57 -229 -75 -78 -18 -329 -15 -410 5 -89 21 -192 56 -209 69 -10 9
-144 13 -455 17 -502 6 -492 4 -573 93 -69 75 -75 98 -81 304 -2 100 -1 194 2
208 6 25 9 26 74 23 l67 -3 5 -195 c5 -212 9 -228 63 -260 30 -19 53 -20 325
-20 160 0 292 4 292 8 0 4 -21 28 -46 52 -132 129 -234 314 -281 512 -12 52
-17 117 -17 228 -1 151 2 174 41 310 41 144 140 307 261 433 l75 77 -302 0
c-424 0 -403 14 -411 -280 l-5 -195 -64 -3 c-44 -2 -67 1 -72 10 -5 7 -6 101
-5 208 4 220 10 242 77 315 22 24 61 54 87 66 45 23 58 24 382 29 382 6 374 4
404 87 48 132 60 155 98 188 22 19 54 36 72 38 53 7 761 7 809 1z m-1142 -134
c23 -13 26 -62 3 -84 -13 -14 -50 -16 -244 -16 -248 0 -260 3 -260 55 0 52 13
55 256 55 136 0 233 -4 245 -10z m-2891 -2465 c53 -11 60 -21 60 -87 0 -58 -1
-60 -22 -53 -13 3 -55 9 -94 12 -86 7 -128 -11 -150 -63 -22 -52 -1 -88 126
-220 148 -152 173 -213 141 -332 -16 -57 -86 -128 -135 -137 -20 -4 -36 -11
-36 -16 0 -5 -43 -9 -95 -9 -52 0 -95 4 -95 8 0 4 -19 8 -42 9 -22 1 -44 6
-48 10 -4 4 -11 37 -14 72 l-7 64 28 -7 c15 -3 69 -9 118 -12 83 -6 93 -4 124
17 43 30 57 75 38 122 -8 18 -61 81 -118 140 -132 136 -159 181 -159 262 1
149 106 239 270 231 41 -2 91 -7 110 -11z m3369 -4 c82 -25 148 -70 192 -128
70 -93 89 -155 89 -295 0 -165 -37 -267 -134 -364 -49 -48 -73 -64 -121 -78
-33 -10 -64 -22 -69 -27 -13 -12 -181 -12 -204 0 -9 5 -36 14 -59 20 -153 41
-257 205 -257 406 -1 155 42 273 129 360 50 51 147 105 188 105 12 0 29 5 37
10 25 16 144 11 209 -9z m1056 2 l40 -8 7 -60 c4 -32 4 -63 0 -67 -4 -4 -23
-3 -42 2 -91 26 -192 3 -220 -51 -26 -47 -5 -85 119 -214 65 -68 126 -141 137
-162 27 -55 26 -164 -3 -219 -23 -43 -102 -104 -134 -104 -10 0 -21 -4 -24
-10 -8 -12 -185 -13 -185 -1 0 5 -18 9 -41 9 -58 1 -69 14 -69 84 0 58 1 60
23 54 12 -4 61 -9 109 -13 126 -9 178 20 178 97 0 45 -10 60 -129 186 -129
136 -154 180 -154 264 1 107 56 183 154 215 46 15 159 14 234 -2z m2225 4 l55
-12 8 -69 c4 -38 4 -73 0 -77 -5 -4 -35 1 -68 13 -108 36 -241 10 -309 -61
-38 -41 -73 -119 -87 -196 -20 -114 14 -238 83 -302 66 -62 185 -79 299 -43
35 10 65 17 67 15 9 -9 -12 -136 -24 -146 -7 -6 -29 -11 -49 -11 -19 0 -35 -4
-35 -9 0 -12 -185 -12 -208 0 -9 5 -37 16 -62 25 -97 34 -181 121 -216 221
-22 65 -30 241 -14 314 38 177 154 297 325 339 55 13 169 12 235 -1z m-5872
-79 l-3 -63 -104 -3 c-58 -1 -110 -7 -116 -12 -8 -7 -14 -81 -18 -219 -4 -115
-10 -275 -13 -355 l-7 -146 -85 0 -85 0 6 83 c14 185 28 506 25 572 l-3 70
-112 3 -113 3 0 64 0 65 315 0 316 0 -3 -62z m247 -75 c-4 -76 -10 -201 -15
-279 -12 -215 7 -285 90 -318 94 -38 197 -5 236 74 19 38 24 74 34 240 6 107
12 245 13 305 l2 110 88 3 89 3 -6 -83 c-4 -46 -11 -184 -17 -308 -11 -236
-19 -302 -43 -347 -25 -49 -81 -93 -155 -123 -62 -26 -87 -30 -162 -30 -49 0
-97 4 -107 9 -9 5 -35 14 -58 20 -55 15 -127 71 -149 117 -28 58 -29 105 -15
436 l13 308 84 0 84 0 -6 -137z m1195 110 c114 -55 173 -179 173 -363 0 -166
-39 -283 -125 -369 -86 -86 -148 -101 -421 -101 l-190 0 7 118 c7 111 25 607
26 700 l0 43 243 -3 c224 -3 245 -5 287 -25z m486 -4 c-5 -26 -20 -418 -29
-739 l-2 -85 -79 -3 c-44 -2 -82 1 -86 5 -4 4 -1 112 6 238 7 127 13 314 13
416 1 102 4 189 8 192 3 4 44 7 91 7 l85 0 -7 -31z m2361 20 c75 -28 116 -102
116 -209 0 -61 -5 -86 -27 -132 -15 -32 -40 -68 -56 -82 -48 -40 -134 -67
-203 -64 l-61 3 -12 50 c-16 60 -11 65 64 65 45 0 57 4 88 33 42 38 58 94 44
148 -15 56 -45 70 -143 67 l-82 -3 -6 -50 c-4 -27 -10 -191 -14 -362 l-8 -313
-80 0 -80 0 7 93 c8 103 25 583 26 695 l0 72 199 0 c117 0 211 -4 228 -11z
m689 -34 c7 -22 24 -80 39 -130 35 -119 138 -443 181 -573 19 -56 34 -105 34
-107 0 -3 -40 -5 -88 -5 l-89 0 -17 63 c-9 34 -28 99 -42 145 l-26 82 -143 0
c-102 0 -145 -4 -152 -12 -6 -7 -29 -60 -53 -118 -70 -174 -57 -160 -155 -160
-47 0 -85 4 -85 9 0 4 17 46 39 92 48 104 53 117 190 424 61 138 120 269 131
293 l20 43 102 -3 101 -3 13 -40z m1647 38 c2 -5 1 -34 -1 -65 l-4 -58 -177 0
c-124 0 -181 -4 -189 -12 -8 -8 -12 -48 -12 -115 l0 -103 159 0 c100 0 161 -4
163 -10 2 -6 1 -36 -2 -68 l-5 -57 -162 -3 -161 -2 -7 -94 c-11 -144 -30 -131
188 -134 l187 -2 0 -28 c0 -15 -3 -44 -6 -64 l-7 -38 -270 0 -270 0 7 123 c15
254 25 506 26 620 l0 117 269 0 c149 0 271 -3 274 -7z"/>
<path d="M5156 7161 c-15 -17 -65 -142 -66 -165 0 -10 8 -7 108 28 109 39 213
56 349 56 153 0 228 -14 376 -67 38 -14 70 -23 73 -21 7 8 -45 150 -63 170
-15 17 -40 18 -388 18 -352 0 -373 -1 -389 -19z"/>
<path d="M5425 6904 c-331 -48 -609 -280 -715 -595 -27 -80 -50 -208 -50 -279
1 -137 53 -326 123 -445 97 -166 257 -304 422 -366 157 -60 171 -62 340 -62
156 0 202 7 290 43 11 5 42 16 69 26 56 21 150 79 220 138 120 99 237 292 277
455 23 96 28 305 8 387 -50 211 -149 374 -308 504 -108 88 -199 135 -346 176
-50 14 -274 26 -330 18z m224 -160 c273 -28 518 -246 598 -530 26 -94 23 -300
-5 -387 -69 -209 -194 -358 -377 -448 -189 -92 -370 -102 -570 -31 -174 61
-313 187 -400 361 -47 93 -66 167 -72 284 -8 147 26 285 102 412 83 137 224
254 371 306 63 23 223 49 264 44 14 -2 54 -7 89 -11z"/>
<path d="M5455 6674 c-243 -35 -451 -210 -529 -445 -73 -222 -17 -470 146
-645 70 -75 155 -131 258 -170 70 -26 85 -28 215 -28 129 0 146 3 215 29 212
79 359 242 416 462 18 71 18 237 -1 310 -28 108 -89 215 -168 295 -128 127
-255 185 -426 192 -53 2 -109 2 -126 0z m-51 -415 c8 -8 16 -29 19 -47 l7 -32
-83 6 c-96 8 -147 -9 -147 -49 0 -33 8 -41 106 -115 96 -73 134 -119 134 -162
0 -42 -40 -92 -95 -120 -43 -21 -64 -25 -145 -25 -121 0 -155 13 -164 63 -3
20 -4 38 -1 40 2 2 27 -1 55 -7 102 -22 191 -4 205 40 9 26 -2 37 -116 130
-106 85 -125 115 -116 182 6 47 44 86 100 105 45 16 225 9 241 -9z m584 -11
c48 -32 69 -84 58 -143 -9 -47 -67 -110 -114 -126 -20 -6 -41 -14 -45 -16 -9
-5 23 -63 89 -164 24 -37 44 -72 44 -78 0 -8 -22 -11 -71 -9 l-70 3 -65 124
c-36 69 -70 131 -75 138 -17 20 -1 33 41 33 113 0 178 108 98 164 -16 11 -45
16 -104 16 l-81 0 -6 -122 c-4 -66 -7 -169 -7 -228 0 -126 -4 -133 -82 -128
l-53 3 0 55 c1 108 17 485 21 498 3 10 44 13 192 10 186 -3 189 -3 230 -30z"/>
<path d="M5062 4577 c-55 -17 -126 -94 -152 -162 -88 -240 25 -465 234 -465
166 0 284 192 246 403 -7 40 -21 88 -30 107 -24 46 -76 95 -122 114 -42 18
-126 19 -176 3z"/>
<path d="M3757 4563 c-4 -3 -7 -56 -7 -117 0 -61 -5 -190 -10 -286 -7 -133 -6
-176 3 -183 7 -4 55 -6 108 -5 121 4 178 30 226 102 41 61 54 102 60 202 9
144 -44 255 -135 282 -42 13 -234 17 -245 5z"/>
<path d="M7484 4433 c-26 -65 -52 -123 -57 -130 -5 -7 -6 -17 -2 -23 9 -14
195 -14 195 1 0 22 -74 269 -81 269 -3 0 -28 -53 -55 -117z"/>
</g>
</svg>
