<?xml version="1.0" encoding="utf-8"?>
<!-- Generator: Adobe Illustrator 26.3.1, SVG Export Plug-In . SVG Version: 6.00 Build 0)  -->
<svg version="1.1" id="Layer_2_00000103266377565420541200000002889594005305413525_"
	 xmlns="http://www.w3.org/2000/svg" xmlns:xlink="http://www.w3.org/1999/xlink" x="0px" y="0px" viewBox="0 0 852.2 635"
	 style="enable-background:new 0 0 852.2 635;" xml:space="preserve">
<style type="text/css">
	.st0{fill:#F7CC7F;}
	.st1{fill:#F79C8D;}
	.st2{fill:#355389;}
	.st3{fill:#F48C7F;}
	.st4{fill:#13375B;}
	.st5{fill:#86B1F2;}
	.st6{fill:#F7A491;}
	.st7{fill:#F47458;}
	.st8{fill:#FFFFFF;}
	.st9{fill:#3C8F7C;}
	.st10{fill:#184655;}
	.st11{fill:#B75742;}
	.st12{fill:#6394DB;}
	.st13{fill:#E5B05C;}
	.st14{clip-path:url(#SVGID_00000134211568335653171780000004609296256726659490_);fill:#F47458;}
	.st15{fill:#F69A86;}
	.st16{fill:#F8A492;}
	.st17{fill:#50BFA5;}
	.st18{fill:#0E2E35;}
	.st19{fill:#DD513A;}
	.st20{fill:#FE875E;}
	.st21{fill:#466EB6;}
	.st22{fill:#CAE1F9;}
	.st23{fill:#9BC1F9;}
	.st24{fill:#EBF3FE;}
	.st25{fill:#96D9C9;}
	.st26{fill:#E25A44;}
	.st27{fill:#66CCB2;}
	.st28{fill:#07345A;}
</style>
<g>
	<defs>
		<rect id="SVGID_1_" x="72.6" y="10.3" width="707" height="614.5"/>
	</defs>
	<clipPath id="SVGID_00000036244566866573595930000012893741943126868371_">
		<use xlink:href="#SVGID_1_"  style="overflow:visible;"/>
	</clipPath>
</g>
<path class="st0" d="M698.7,179.7c-12.5,10.1-30.2,21.4-44.8,26.2l21.7,4.1l-89.5,105.5l-178.4,51.3L196.7,591.9l166.3-0.1l84.7-136
	L617.4,355l65.9-140.5l14,17C694.6,216.4,695.9,195.5,698.7,179.7L698.7,179.7z"/>
<path class="st1" d="M168.2,418c0,0-9.7-17.3-12-21c-2.4-3.7-8.5-18.3-8.7-18.9c-0.2-0.6,4.2-7.5,3.2-7.7c-1-0.2-2.1,3.7-3.1,3.2
	c-1.1-0.5-4.1-9.8-4.7-9.4c-1.1,0.9,1.7,5.8,1.1,6.1c-0.6,0.3-2.4-5.4-3.6-5.3c-1.2,0.2,2.2,5.3,1.9,5.7c-0.3,0.4-3.9-4.4-4.5-3.3
	c-0.3,0.6,3.3,4.2,2.6,4.5c-0.7,0.3-3.9-2-4.3-1.3c-0.3,0.7,3,1.6,4,3.4c1,1.8,2.7,2.6,3.4,6c0.7,3.4,1.7,15.6,5.3,21.7
	c3.6,6.1,11.5,19.6,11.5,19.6L168.2,418L168.2,418z"/>
<path class="st2" d="M165.5,412.4c0,0,10.7,11.5,12.3,16.2c1.6,4.6-1.5,11.3-5.9,11.6c-4.3,0.3-14-20.5-14-20.5L165.5,412.4
	L165.5,412.4z"/>
<path class="st3" d="M215.9,495.8c-0.8-0.7-1.7-0.4-4.4-1.6c-0.5-0.2-1.9-0.6-2.5-0.7c-0.1,0-0.2-0.1-0.2-0.2
	c-0.8-3.1-4.4-17.5-4.8-21.6c-0.4-4.2-3.1-22.2-3.6-24.9c0-0.2-0.2-0.3-0.4-0.3l-7.8,2.2c-0.2,0-0.3,0.2-0.2,0.4
	c0.5,2.1,3.5,15.6,4.4,22.4c0.7,5.4,8.8,22.8,8.9,23.9l0,0c0,0.3,0.3,0.6,0.7,0.6c2,0,8.4,0,8.7,0C215,495.9,216.1,496,215.9,495.8
	L215.9,495.8z"/>
<path class="st4" d="M198.4,438.9c-4.2-12.7-8.8-12.1-8.8-12.1l3.6,26.6c2.6-0.7,5.9-2.3,8.5-3C200.8,446.4,199.4,442.1,198.4,438.9
	L198.4,438.9z"/>
<path class="st0" d="M197.1,406c-1.3-8.3-8.8-14.3-16.7-10.3c-1.8,0.9-4.2,2.8-5.4,4.3c-3.3,4.2-4.2,9.5-7.6,13.6
	c1.3,1,2.8,2,4.6,2.9l2.1-2.8l-0.7,3.5c5.3,2.5,12.8,4.6,23,4.6C197.7,416,197.8,410.4,197.1,406L197.1,406z"/>
<path class="st3" d="M199.6,590.7c-1.2-0.9-2.2-1.5-6-3.3c-0.3-0.1-1.2-0.7-1.5-0.9c-0.8-0.5-1.7-1.3-2.4-2.1
	c-0.7-0.8-1-3.2-1.2-5.2c0.4-4.4,6.8-74.7,8.1-82.4c1.4-7.9-0.7-19.9-0.7-19.9l-4.9-1.8l-9.3,32.3l0.7,24.6c0,0-2.2,7.1-2.5,11.3
	c-0.3,4.2,3.2,38.6,3.2,38.6h0c0,1.2,0,2.3-0.2,3c-0.3,1.3-1.7,3.9-1,5.1c0.6,1.2,1.4,1.5,1.4,1.5l16.7,0.3
	C200.9,591.8,200.3,591.3,199.6,590.7L199.6,590.7z"/>
<path class="st1" d="M174.2,474.4c0,0-5.8,8.8-7.2,16c-1.4,7.3,1,29.6-1.6,39.1c-1.4,5.1-6.9,13.1-7.7,19.8
	c-0.8,6.7-3.7,25.9-3.7,25.9h0c-0.4,2-1.1,4.5-2,5.7c-0.5,0.7-1.5,1.6-2.2,2.9c-1,2-0.5,5,0.3,6.6c0.4,0.8,0,0.8,0.8,1.1
	c2.6,0.8,5.4-0.5,6.5-3c0.6-1.4,1.2-3.2,1.3-5.6c0.1-2.5,0.5-4.4,0.9-5.9l18.6-45.6l13.5-39.3l3.4-20.3L174.2,474.4L174.2,474.4z"/>
<path class="st5" d="M157.8,587c-4,0.7-6.7-1.6-8.1-3.4c-1,2-1.5,5-0.8,6.6c0.7,1.4,2.6,1.4,4.1,1.5c1.6,0.1,2.9-0.8,3.7-2.2
	C157.1,588.8,157.4,588,157.8,587L157.8,587z"/>
<path class="st5" d="M192,586.5c-4.4,1.1-7.7,0.4-9.5-0.4c-0.5,1.3-1.1,3-0.8,4c0.4,1.2,1,1.5,1.5,1.5c4,0.1,14.8,0.3,17.9,0.3
	c0.4,0,0.7-0.5,0.4-0.8C200.8,590.1,192.4,586.7,192,586.5L192,586.5z"/>
<path class="st0" d="M177.9,531.4c0.3,0,0.7,0,1,0.1l0.1,0c0.3,0,0.7,0,1,0.1l0.1,0c0.3,0,0.7,0,1,0.1h0.1c0.4,0,0.7,0,1.1,0
	c4,0.1,8.9,0.1,12-0.5c1.6-16,2.2-30.7,2.8-33.9c1.4-7.9-1.3-20.3-1.3-20.3l-1.3-0.2l0.8-4.6l-21.6,2.7c0,0-6,8.8-7.5,16
	c-1.4,7.3,1.1,29.6-1.7,39.1C164.6,529.9,170.8,530.9,177.9,531.4L177.9,531.4z"/>
<path class="st2" d="M178.9,424.5c0,0-7.7-0.5-10.7,2.8c-3,3.3,6.8,29.6,7.3,33.9c0.6,4.2-2.8,15.5-2.8,15.5s18.1,3.6,23.2,0.2
	c0,0,0.6-30.4,0-33.5c-0.6-3-5.2-15.3-6.3-16.5C188.5,425.7,178.9,424.5,178.9,424.5L178.9,424.5z"/>
<path class="st6" d="M181.4,414.2c0,0,0,0.2-0.1,0.6c-0.3,1.9-1.7,8-2.6,9.7c-1.1,2,3.7,8.6,8.3,7.8c1.4-0.2-1.2-6-1-6.6
	c0.2-1.2,0.5-2.8,0.9-4.4c0.2-0.9,0.4-1.9,0.5-2.7c0.5-2.5,0.9-4.5,0.9-4.5L181.4,414.2L181.4,414.2z"/>
<path class="st7" d="M181.3,414.8c0.1-0.4,0.1-0.6,0.1-0.6l6.9-0.2c0,0-0.4,2-0.9,4.5c-0.2,0.9-0.4,1.8-0.5,2.7
	c-1.1-0.2-2.2-0.7-3.3-1.7c-1.2-1.1-2-2.3-2.5-3.7C181.2,415.5,181.3,415.1,181.3,414.8L181.3,414.8z"/>
<path class="st6" d="M186.1,398.5c0,0-3.2-0.4-5.3,2.3c-2,2.6-4.2,10.8,0.8,15.2c5.1,4.4,10-0.6,10.8-5.9
	C193.1,404.8,193.4,398.4,186.1,398.5L186.1,398.5z"/>
<path class="st6" d="M193.9,410c-0.6,1.2-1.6,1.8-2.3,1.5c-0.6-0.4-0.7-1.6-0.1-2.8c0.6-1.2,1.6-1.8,2.3-1.5
	C194.4,407.6,194.5,408.9,193.9,410L193.9,410z"/>
<path class="st0" d="M186.4,397.7c0,0-4.3,7.7-7.4,8.1c-3.1,0.4-3.5,4.5-3.5,4.5s1.1-9.5,4.2-11.3
	C182.7,397.1,186.4,397.7,186.4,397.7L186.4,397.7z"/>
<path class="st6" d="M179.8,407.7c0.3,1.4-0.3,2.6-1.1,2.8c-0.9,0.2-1.8-0.8-2-2.2c-0.3-1.4,0.3-2.6,1.1-2.8
	C178.6,405.4,179.5,406.4,179.8,407.7L179.8,407.7z"/>
<path class="st8" d="M183.6,412.7l4.7,0.9c0,0-0.5,1.8-2.5,1.4C183.2,414.6,183.6,412.7,183.6,412.7L183.6,412.7z"/>
<polygon class="st9" points="569.9,592.4 571.9,592.1 563.6,548 561.6,548.3 569.9,592.4 "/>
<polygon class="st9" points="481,592.6 478.7,592.6 487.3,548 489.2,548.3 481,592.6 "/>
<polygon class="st9" points="548.5,592.6 546.2,592.6 554.8,548 556.7,548.3 548.5,592.6 "/>
<polygon class="st10" points="502.1,592.6 504,592.6 495.7,548.2 493.8,548.5 502.1,592.6 "/>
<path class="st7" d="M535.4,451.3c10.3,1.1,23.6,2.3,36.9,24.9c14.6,24.7,6.9,61.7-4.6,72c-11.5,10.3-49.1,22.9-80.7,4
	c0,0-19.1-11.5-9.3-30.6c15.1-29.4,12.9-35.5,19.7-47C504.1,462.9,513.6,448.9,535.4,451.3"/>
<path class="st11" d="M572.2,476.1c-9.1-15.4-18.2-20.9-26.3-23.1c3.1,3.2,6.3,7.4,9.5,12.8c14.6,24.7,6.9,61.7-4.6,72
	c-10.2,9.1-40.9,20.1-69.8,9.2c3,3.3,5.9,5,5.9,5c31.6,19,69.2,6.3,80.7-4C579.1,537.8,586.8,500.9,572.2,476.1L572.2,476.1z"/>
<polygon class="st1" points="502.4,488.9 499.8,496.8 507.8,493.6 502.4,488.9 "/>
<path class="st12" d="M510.7,465.3c-0.5,0-2,0.5-4.2,4.6c-2.7,5.2-6.8,20.8-6.8,20.8l12,4.4l1.5-3.3l2.5-25.1
	C515.8,466.7,510.8,465.3,510.7,465.3L510.7,465.3z"/>
<path class="st5" d="M526.5,463c-3.4,0-11.9,1-15.8,2.3c0,0-2.9,24.7,2.6,43.5c1.2,4.2-1,17.4-1,17.4l35.5-0.5c0,0-4.2-32-2.6-37.2
	c1.6-5.2,1.6-23.2,1.6-23.2s-0.2,0-8-1.4C535.2,463.5,530.2,463,526.5,463L526.5,463z"/>
<path class="st6" d="M530.6,572.2c0,0-0.8,9-2.2,11.5c-1.4,2.5,0.1,6.7,0.2,7.3c0.1,0.6,3,1.4,7.7,0.9c4.7-0.5,4.6-1.6,4.3-3.3
	c-0.4-1.7-2.9-4-3-5.7c-0.2-1.7,1.4-7.7,1.4-7.7L530.6,572.2L530.6,572.2z"/>
<path class="st13" d="M516.3,518.8c0,0-24.5-1.4-29.9,1.9c-5.5,3.3,1,10.1,1,10.1s19.9,8.6,53.3,10.6c7.9,0.5,8.6-20.5,7.1-22.3
	C546.2,517.4,516.3,518.8,516.3,518.8L516.3,518.8z"/>
<path class="st7" d="M536.9,592.6c4.8-0.5,4.2-2.9,3.9-4.7c-0.2-1.1-1.6-2.5-2.5-3.7c-0.4,0.3-1.1,0.9-3.2,1.6
	c-2.2,0.6-5.2-0.6-7.1-1.4c-0.7,2.5-0.7,5.7-0.6,6.2C527.4,591.2,532,593.2,536.9,592.6L536.9,592.6z"/>
<path class="st0" d="M534.2,536.3c-1,7.4-5.8,44.1-5.8,44.1l11.2,1.4c0,0,13.8-47.9,13.1-55.3c-0.7-7.3-5.9-7.9-5.9-7.9
	S536.8,516.7,534.2,536.3L534.2,536.3z"/>
<path class="st6" d="M547.1,468.2c-3.3-1.2-4.9,28.5-5.4,40.8c-5.9,0.6-16.1,0-18.7-0.2c-1.2-0.1-4-1.1-5.2-1.3
	c-1.2-0.2-2.3-0.2-2.9-0.1c-0.2,0-6.3,2.5-6.9,3.1c-0.7,0.7-2.4,2.4-2.1,3.1c0.3,0.7,3.4-2.1,3.4-2.1l1.5-0.8
	c-1.9,1.8-5.4,4.2-4.9,5.1c0.5,0.9,3.7-1.6,6-3.2c-2,1.8-4.4,4.9-3.9,5.4c0.5,0.4,3.3-3.2,6.3-4.3c1.1-0.4,2.2,0.7,3.1,0.8
	c0.6,0.1,1.6,0.3,2.2,0.1l3.2-0.9c1.1,0.1,1.1,0.7,2.2,1c1.3,0.3,3.4,0.6,5,1c9.4,2.3,12.6,3.4,15.5,3.4
	C554.4,519.1,555,471.1,547.1,468.2L547.1,468.2z"/>
<path class="st5" d="M553.4,496.2c0.6-12.6,0.5-28-6.5-30.7c-2.8-1-7.7,5.2-6.8,30.9C543.8,496.7,549.4,497,553.4,496.2L553.4,496.2
	z"/>
<path class="st6" d="M497.8,579.9c0,0,1,3.1-0.8,5.2c-1.8,2.1-9,4.1-10,5.2c-1,1.1-0.9,2.1-0.9,2.1l20.5-0.6l-0.2-6.2l-0.9-4.4
	L497.8,579.9L497.8,579.9z"/>
<path class="st7" d="M495.7,586.1c0,0,5.3,2.1,7.8,0.9c2.5-1.3,2.5-1.6,3.2-1.1c0.7,0.5,1,6.8,1,6.8l-23,0.2c-1.6,0-2.4-1.2-1.1-2.2
	c0.9-0.7,1.9-1.2,2.5-1.5C487.9,588,495.7,586.1,495.7,586.1L495.7,586.1z"/>
<path class="st0" d="M498.6,524.6c-1.6-3.3-5.2-7.6-11.5-5c-6,2.5-7.7,8.6-5.8,14.8c1.9,6.2,14.5,43,14.9,48l10,0.1
	c0,0-1.8-29.1-2.3-36.1C503.5,539.6,501.3,530.3,498.6,524.6L498.6,524.6z"/>
<path class="st2" d="M482.3,490.8h33.5c0.9,0,1.7,0.5,2,1.4l10.3,25.1h18.5c0.5,0,0.9,0.4,0.9,0.9c0,0.5-0.4,0.9-0.9,0.9H494
	c-1.4,0-2.8-0.8-3.3-2.2l-10.4-23.1C479.7,492.4,480.7,490.8,482.3,490.8L482.3,490.8z"/>
<path class="st8" d="M500.3,505.4c0.2,1.1,1.2,1.9,2.2,1.7c1-0.2,1.6-1.3,1.4-2.4c-0.2-1.1-1.2-1.9-2.2-1.7
	C500.7,503.2,500.1,504.3,500.3,505.4L500.3,505.4z"/>
<path class="st6" d="M530.6,452.4l1.6,10.8c0,0-6,12.9-9.6,11.7c-3-0.9-1.2-12.3-1.2-12.3s1.6-6.1,1.1-9.2
	C522.2,450.4,530.6,452.4,530.6,452.4"/>
<g>
	<defs>
		<path id="SVGID_00000057109194762106870700000005410890657313525405_" d="M522.4,458.2c0.1-0.7,0.2-1.5,0.3-2.2
			C522.6,456.7,522.6,457.4,522.4,458.2L522.4,458.2 M522.7,456C522.7,455.9,522.7,455.9,522.7,456
			C522.7,455.9,522.7,455.9,522.7,456 M522.7,455.9C522.7,455.9,522.7,455.9,522.7,455.9C522.7,455.9,522.7,455.9,522.7,455.9
			 M522.7,455.9C522.7,455.9,522.7,455.9,522.7,455.9C522.7,455.9,522.7,455.9,522.7,455.9 M522.7,455.9
			C522.7,455.9,522.7,455.9,522.7,455.9C522.7,455.9,522.7,455.9,522.7,455.9 M522.7,455.8C522.7,455.8,522.7,455.8,522.7,455.8
			C522.7,455.8,522.7,455.8,522.7,455.8 M522.7,453.5C522.7,453.5,522.7,453.5,522.7,453.5C522.7,453.5,522.7,453.5,522.7,453.5
			 M522.7,453.5L522.7,453.5L522.7,453.5 M530.7,453.3l-0.1-0.9L530.7,453.3L530.7,453.3"/>
	</defs>
	<clipPath id="SVGID_00000102511106557019230280000012675331850051111324_">
		<use xlink:href="#SVGID_00000057109194762106870700000005410890657313525405_"  style="overflow:visible;"/>
	</clipPath>
	
		<rect x="522.4" y="452.4" style="clip-path:url(#SVGID_00000102511106557019230280000012675331850051111324_);fill:#F47458;" width="8.3" height="5.7"/>
</g>
<path class="st15" d="M522.4,458.2c0.1-0.7,0.2-1.5,0.3-2.2c0,0,0,0,0,0c0,0,0,0,0,0c0,0,0,0,0,0c0,0,0,0,0,0c0,0,0,0,0,0s0,0,0,0
	c0,0,0,0,0,0c0,0,0,0,0,0c0,0,0,0,0,0c0,0,0,0,0,0c0.1-0.8,0-1.6-0.1-2.3c0,0,0,0,0,0c0,0,0,0,0,0v0c0,0,0,0,0,0l0,0
	c0-0.1,0-0.2,0-0.3c0-1.1,1.4-1.4,3-1.4c2.3,0,5,0.6,5,0.6l0,0l0.1,0.9c-0.2,0.6-0.5,1.1-0.9,1.5C527.9,456.9,525,458.1,522.4,458.2
	"/>
<path class="st6" d="M532,437.2c0.2-0.1,1.9,12.3-1.3,15.7c-3.2,3.4-9.3,4.5-11.6,1.8c-2.4-3-2.3-16.3,2.6-19.8
	C526.7,431.4,532,437.2,532,437.2L532,437.2z"/>
<path class="st0" d="M523.6,428.3c3.8,0.8,6.3,3.1,7.2,4.1c1.7,0.2,4.1,1.2,6.5,5.2c3,4.9,0.8,10.4-2.7,13.1
	c-3.5,2.7-3.4,5.8-3.4,5.8l-0.5-1.6c-0.4-1.2-0.6-2.5-0.4-3.8c0.1-0.8,0.2-1.6,0.6-2.3c0.8-1.8-1.8-3-2.5-4.5
	c-0.6-1.1-0.6-3.8-1.5-5.7l-1.1-1.5c0,0-2.5-1.9-4.9-1.4C518.4,436.4,518.7,427.3,523.6,428.3L523.6,428.3z"/>
<path class="st6" d="M528.4,446.5c0,1.5,0.7,2.7,1.5,2.8s1.6-1.2,1.6-2.7c0-1.5-0.7-2.8-1.5-2.8C529.1,443.8,528.4,445,528.4,446.5
	L528.4,446.5z"/>
<path class="st8" d="M524.1,450.7l-4.8-0.2c0,0,0,1.8,2.1,2C524,452.7,524.1,450.7,524.1,450.7L524.1,450.7z"/>
<path class="st16" d="M619.2,390.5c0.5,2.1,1.5,5.5,1.5,5.5c-0.1,0.9-0.4,4.8-0.7,9.5l7-2.8c0,0-0.1-7.7,0.2-8.2
	c0.3-0.4,0.7,0.1,2.8-3c0.6-0.9,0.7-2.5,0.7-2.5s0.1-1.9-0.3-2.1c-0.4-0.2-0.9,0.1-1.1,0.4c-0.2,0.3-0.1,1.1-0.3,1.5
	c-0.2,0.3-1.2,0.7-1.6,0.7c-0.4,0,0.1-5.7,0.1-5.7s0.2-1.6,0.4-2.2c0.1-0.5,0.5-1.8,0.5-1.8s0.5-1.9-0.1-2.1
	c-0.4-0.1-1.3,1.5-1.9,3.1c-0.7,1.8-1,3.7-1.2,3.7c-0.4-0.1-0.2-3.2-0.2-3.2s0.4-1.4,0.4-2.1c0.4-0.8,0.7-2.4,0-2.5
	c-0.1,0-1.1,1.9-1.1,1.9s-0.4,1.4-0.6,2c-0.4,1.1-0.5,2.9-0.7,3.7c-0.2,0.7-0.3,0.4-0.4,0.4c-0.1,0,0-0.9,0.1-2.1
	c0.1-0.6,0-1.4,0.2-2.1c0.2-0.7,0.3-1.6,0.3-2.2c0.1-1.6-0.9-1.5-1.3,0c-0.1,0.6-0.3,1.2-0.4,1.8c-0.6,2.4-0.5,4.8-0.8,4.8
	c-0.3,0-0.1-4.2-0.1-4.2s-0.5-2.4-1-0.2c-0.6,2.5-0.5,4.6-0.5,4.7C619.1,386.2,618.7,388.4,619.2,390.5L619.2,390.5z"/>
<path class="st16" d="M693.2,384.9c-0.5,2.1-1.5,5.5-1.5,5.5c0.1,0.9,0.3,4.8,0.7,9.5l-7-2.8c0,0,0.1-7.7-0.2-8.2
	c-0.3-0.4-0.7,0.1-2.8-3c-0.6-0.9-0.7-2.5-0.7-2.5s-0.1-1.9,0.3-2.1c0.4-0.2,0.9,0.1,1.1,0.4c0.2,0.3,0.1,1.1,0.3,1.5
	c0.2,0.3,1.2,0.7,1.6,0.7c0.4,0-0.1-5.7-0.1-5.7s-0.2-1.6-0.4-2.2c-0.1-0.5-0.5-1.8-0.5-1.8s-0.5-1.9,0.1-2.1
	c0.4-0.1,1.3,1.5,1.9,3.1c0.7,1.8,1,3.7,1.2,3.7c0.4-0.1,0.2-3.2,0.2-3.2s-0.4-1.4-0.4-2.1c-0.4-0.8-0.7-2.4,0-2.5
	c0.1,0,1.1,1.9,1.1,1.9s0.4,1.4,0.6,2c0.4,1.1,0.5,2.9,0.7,3.7c0.2,0.7,0.3,0.4,0.4,0.4c0.1,0,0-0.9-0.2-2.1c-0.1-0.6,0-1.4-0.2-2.1
	c-0.2-0.7-0.3-1.6-0.3-2.2c-0.1-1.6,0.9-1.5,1.3,0c0.1,0.6,0.3,1.2,0.4,1.8c0.5,2.4,0.5,4.8,0.8,4.8c0.3,0,0.1-4.2,0.1-4.2
	s0.5-2.4,1-0.2c0.6,2.5,0.5,4.6,0.5,4.7C693.3,380.5,693.7,382.7,693.2,384.9L693.2,384.9z"/>
<path class="st6" d="M674.1,566.7c0,0,3.9,4.8,4.8,5.4c1,0.6-0.4,7.5-3.1,8c-1.5,0.3-2.3-1.4-2.3-1.4l0.4-2l-5.5-5.7L674.1,566.7
	L674.1,566.7z"/>
<path class="st6" d="M654.2,567.9c0,0,3.2,5.2,4.1,6c0.9,0.7-1.4,7.4-4,7.6c-1.5,0.1-2.1-1.7-2.1-1.7l0.7-1.9l-4.8-6.3L654.2,567.9
	L654.2,567.9z"/>
<path class="st4" d="M658.1,573.6c0,0-1.8,2.4-2.9,3.3c-1.3,1.2-3,2.4-3,2.4s-1.9,3.4-2.4,4.6c-1.2,2.7-2.4,5.6-2.3,7.1
	c0.1,0.5,1.1,1,2,0.7c3.7-1.1,13.3-9.9,14.5-12.2C665.5,576.9,658.1,573.6,658.1,573.6L658.1,573.6z"/>
<path class="st9" d="M630.9,493.7c0.3-1,0.7-1.9,1-2.7c4,0.9,8.5,1.8,13.1,2.8l0.6,16.9c0-1.3-3.5,27-3.5,27s9,19.8,15.1,31.4
	c-2.5,3.1-3.7,4.2-7.3,6.3c-9.5-11.4-22-32.3-22.5-35.8C627,537.6,626.7,505.4,630.9,493.7L630.9,493.7z"/>
<path class="st17" d="M666.3,498.6c-1.2,13.2-3.9,38.4-3.7,40.4c0.7,2.5,12.7,25.8,14.8,29.2c-1.7,2.6-4.4,5.4-7.2,6.1
	c-0.6,0.2-20.4-28-21.4-30.3c-1.2-2.5-3.3-16.3-3.3-33.4l-0.6-16.9C652.6,495.4,659.7,497,666.3,498.6L666.3,498.6z"/>
<path class="st2" d="M641.1,438.5l9,1.2c0,0,7.2,0.1,8.1,0.1c0.9,0,6.6,33.1,8.2,45.5c1.6,12.4,0.4,14.6,0.4,14.6s-11.5,2.6-20,1.8
	c-8.8-0.8-18.8-5.5-18.8-5.5s7.5-23.9,9-31.3C638.7,457.5,641.1,438.5,641.1,438.5L641.1,438.5z"/>
<path class="st5" d="M619.1,398.6c0,0-0.6,24.6,0.3,26.5c1.4,2.7,16.5,22.2,16.5,22.2s-7.3,30.4-10.3,40.9c-0.3,1.1-1.7,7.9-1.7,8.5
	c0,1.5,6.4,3.3,7.2,3.2c0.7-0.1,6.3-29,9.9-43.1c1.2-4.8,3.3-9.3,6.1-13.4l2.5-3.5l-19.1-19.1c0,0-2.4-21.3-2.4-23.1
	C628.3,397.2,620.1,396.8,619.1,398.6L619.1,398.6z"/>
<path class="st5" d="M657.9,439.9l23.8-24.3c0,0,3.3-22.9,3.6-23.8c0.2-0.8,6.1-1.3,8.5-1.5c0.8-0.1-0.4,24.4-1.5,28.5
	c-1.3,4.9-19.3,27-19.3,27s-3.2,12-2.4,20.8c1.3,14.6,4.8,34.7,4.1,35.3c-3.9,2.4-18.7,2.7-19.7,1.2
	C644.6,486.3,657.9,439.9,657.9,439.9L657.9,439.9z"/>
<path class="st4" d="M678.7,571.9c0,0-1.5,2.6-2.4,3.6c-1.1,1.4-2.6,2.8-2.6,2.8s-1.4,3.6-1.8,4.9c-0.8,2.8-1.7,6.2-1.3,7.6
	c0.1,0.5,1.1,1.4,2,0.8c3.3-2.1,12-12.1,12.9-14.6C686.5,574.1,678.7,571.9,678.7,571.9L678.7,571.9z"/>
<path class="st18" d="M650.8,408.3c1,0,2,0,3-0.1c1.1-0.1,2.6-0.2,3.4,0c1.8,0.4,4.6,1.6,5.5,3.9c1.2,2.9,5.3,2.4,0.4,13.3
	c-5.6,12.3-12.1,8.3-12.2,8c-0.1-0.3-3.2-10.5-3.2-10.5s-3.9,3.9-3.8,3.7C644,426.6,638.6,407.9,650.8,408.3L650.8,408.3z"/>
<path class="st6" d="M650.2,435.3l-0.6,4.8c0,0-1.5,7,0.4,8.3c1.9,1.3,7.9-8.5,7.9-8.5l-0.6-12.2L650.2,435.3L650.2,435.3z"/>
<path class="st7" d="M657.5,431.7c-1.5,4.2-5.2,6.7-7.8,7.7l0.5-4.1l7.1-7.6L657.5,431.7L657.5,431.7z"/>
<path class="st6" d="M655.2,413.9c-3.5-2-7.9-0.3-9.2,3.5c-0.6,1.6-1.2,3.7-1.7,6c-1.2,5.5,0.7,11.5,3.2,11.9
	c2.5,0.5,10.1-1.8,11.9-9.6C660.4,420.8,658.9,416,655.2,413.9L655.2,413.9z"/>
<path class="st6" d="M657.4,425.9c-0.2,1.2,0.4,2.4,1.4,2.6c1,0.2,2-0.6,2.2-1.9c0.2-1.2-0.4-2.4-1.4-2.6
	C658.6,423.9,657.6,424.7,657.4,425.9L657.4,425.9z"/>
<path class="st18" d="M659.6,424.1c0,0-3.1-0.4-3.5-2.6c-0.4-2.2-2.6-7.6-8.1-7.8c-5.4-0.2,5.7-2.4,6.1-2.2c0.4,0.1,5,1.9,5,1.9
	s2.4,4.3,2.5,4.6c0,0.4-0.3,4.3-0.3,4.3L659.6,424.1L659.6,424.1z"/>
<path class="st8" d="M651.5,429.7l-5.5-1c0,0-0.2,2.1,2.2,2.6C651.1,432,651.5,429.7,651.5,429.7L651.5,429.7z"/>
<path class="st16" d="M371.1,452.3c0.2,0.7,0.3,1,0.6,1.4c1.7,3.1,5.7,7.6,5.7,7.6l3.1-6.9c0,0-0.5-2.2-1.4-5.3
	C376.1,449.9,373.3,450.3,371.1,452.3L371.1,452.3z"/>
<path class="st4" d="M388.7,446.3c0,0-17.2,7.4-17.7,7.3c-0.4-0.1-7-11.3-7.1-21.8c0-4.9,5-10.7,10.6-9.6c2.8,0.6,2.8,1.4,7,7.5
	C385.7,435.7,388.7,446.3,388.7,446.3L388.7,446.3z"/>
<path class="st6" d="M403.4,578.9l-0.4,6.8c-0.2,0.9-0.7,3-0.7,3.8c0,2.9,13.9-2.5,10.8-3.8c-0.3-0.1-1.8-1-1.8-2
	c-0.1-1.5-0.5-4.6-0.5-4.6L403.4,578.9L403.4,578.9z"/>
<path class="st19" d="M413,585.6c0,0-3.3,0.9-4.9,1.1c-1.7,0.2-3.9-1.7-5.1-1.2c-1.3,0.6-1.3,5.6-1.3,5.6s17.5,1.4,22.4,0
	C426.1,590.5,419.6,587.7,413,585.6L413,585.6z"/>
<path class="st6" d="M375,578.9l-0.4,6.8c-0.1,0.9-0.7,3-0.7,3.8c0,2.9,13.9-2.5,10.8-3.8c-0.3-0.1-2.2-1.7-2.3-2.7
	c-0.1-1.5-0.1-4-0.1-4L375,578.9L375,578.9z"/>
<path class="st19" d="M384.6,585.6c0,0-3.3,0.9-4.9,1.1c-1.7,0.2-3.9-1.7-5.1-1.2c-1.3,0.6-1.4,5.6-1.4,5.6s17.6,1.7,22.5,0
	C397.6,590.5,391.2,587.7,384.6,585.6L384.6,585.6z"/>
<path class="st6" d="M379.2,456l12.2-17.1c0.1-0.2,0.2-0.5,0.3-0.9c0.6-1.7,1.9-5.2,3-8.8l0,0c0.4-1.2,1.1-3.4,1.8-5.5
	c0.8-2.3,1.8-5.2,1.8-5.7c0-0.1-0.1-0.2-0.2-0.4c-0.4-1.2-1.1-3.9-1.3-5.1c-0.1-0.8-0.3-2.6,0.6-2.6c1.4,0,0.8,1.9,1.4,3
	c0.2-0.8,0.7-2.3,1-3.9l0.2-3.6c0-0.3-0.2-2.3,0.8-2.3h0c0.9,0.1,0.9,2.2,1.3,5.8c0.1-0.4,0.2-0.9,0.3-1.4c0-0.2,0.2-1.3,0.3-1.9
	c-0.2-1-0.1-2.6,1-2.4c0.5,0.1,0.5,2.3,0.5,2.3c0,0.3,0,2.6,0,3.1c0.1-0.8,0.5-4.1,1.4-4.1c0.7,0,0.8,0.9,0.7,1.6
	c0,0.4-0.4,4.1-0.5,4.5c0.3-0.6,0.7-3.8,1-3.8c1.4,0,0.9,4.6,0.4,5.7c0,0.1-0.1,0.4-0.2,0.6c-0.2,0.8-0.5,2.2-1.2,3.4
	c-0.9,1.5-2,3.8-2.2,4.1c-0.1,0.7-0.5,3.3-1.1,6.6c-0.2,1.4-0.5,2.9-0.7,4.5h0c0,0.3-0.3,1.4-1.3,5.6c-1.3,5.6-1.5,5.9-1.5,6
	c-0.6,1-13.8,18.9-14.3,19.7l-0.3,0.5L379.2,456L379.2,456z"/>
<path class="st7" d="M402,416.1c0,0-1-2.5-2.8-2.5c0,0,1-0.4,1.8,0.3C401.9,414.5,402,416.1,402,416.1L402,416.1z"/>
<path class="st6" d="M376.3,411.2l-1.6,10c0,0,6,4.8,9.5,3.8c2.9-0.9,0.9-4.7,0.9-4.7s-1.6-5.3-1.1-8.1
	C384.5,409.4,376.3,411.2,376.3,411.2L376.3,411.2z"/>
<path class="st20" d="M377.4,414.2c1.5,0.7,4.5,1.7,6.8,1.9c-0.2-1.4-0.3-2.9-0.2-4c0.2-1.3-1.4-1.6-3.2-1.5
	c-2.4,0.2-4.5,0.6-4.5,0.6l-0.3,1.9C376.4,413.6,376.9,413.9,377.4,414.2L377.4,414.2z"/>
<path class="st6" d="M368.7,399.7c-0.2,0,2.4,11.1,6.4,13c4.1,1.9,10.1,0.9,11.2-2.1c1.3-3.3-3.3-14.7-9-16.1
	C371.6,393.1,368.7,399.7,368.7,399.7L368.7,399.7z"/>
<path class="st4" d="M373.4,389.5c-3.2,1.9-4.7,4.6-5.2,5.8c-1.5,0.7-3.4,2.3-4.2,6.5c-1.1,5.2,2.8,9.2,6.9,10.4
	c4.1,1.2,4.7,3.9,4.7,3.9l0.5-2.9c0,0-0.9-2.5-2.3-3.8c-1.4-1.3,0.6-3.1,0.8-4.6c0.1-1.2-0.7-3.4-0.5-5.3c0,0,2.3-3.4,4.5-4.3
	C382.3,393.6,377.5,387.1,373.4,389.5L373.4,389.5z"/>
<path class="st6" d="M375.1,406.6c0.5,1.3,0.3,2.6-0.5,2.8c-0.8,0.3-1.9-0.5-2.4-1.8c-0.5-1.3-0.3-2.6,0.5-2.8
	C373.5,404.5,374.6,405.3,375.1,406.6L375.1,406.6z"/>
<path class="st16" d="M390.2,456.3l23.6-3.8c0,0-2.7-6.8-3.6-6.8s-17.8,7.4-17.8,7.4l-1.3,2.7L390.2,456.3L390.2,456.3z"/>
<path class="st10" d="M378.1,472.5c0,0-2.4,11.4-1.4,20s1,39.3,1,39.3l-3.7,49l8.7,0.2c0,0,10.3-49,10.1-47.8
	c-0.2,1.3,3.5-34.5,3.5-34.5l-12.3-27.3L378.1,472.5L378.1,472.5z"/>
<path class="st4" d="M380.4,472c0,0-1.5,10.2,0.4,14.7c1.9,4.5,16.5,48.6,16.6,52.2c0.2,3.6,5,43.3,5,43.3l10.1-0.3l2.2-44.2
	l-4.6-55.5l-4.4-14L380.4,472L380.4,472z"/>
<path class="st6" d="M374.7,421.1c0,0,2.5,1.6,4.8,1.4c2.3-0.2,5.6-2.3,5.6-2.3l-0.5-1.5c0,0-6-0.9-6.2-0.8
	C378.3,418,374.7,421.1,374.7,421.1L374.7,421.1z"/>
<path class="st16" d="M401.2,445.4c0,0,8.9,8.4,13,7c4-1.4,5.7-6.4-4.1-13.5C401.2,432.4,401.2,445.4,401.2,445.4L401.2,445.4z"/>
<path class="st2" d="M407.3,455.8c-1.3-7.2-10.9-29.7-11.7-33.8c-0.4-2-5.6-2.1-10.5-1.8c-5.2,0.3-10.4,0.9-10.4,0.9
	s-4.6,0.8-6.6,2.7c-2,1.9-2.6,7.2,0.3,17.2c2.3,7.9,5.2,12.2,6.6,18c0.3,1.9,0.5,3.8,0.9,6.1c0.5,8.6,0,19.9,0,19.9
	s25.1,5.2,34.5-2.7C410.3,482.2,408.6,463.2,407.3,455.8L407.3,455.8z"/>
<path class="st21" d="M413.7,440.3c0,0-9.9,8.1-10.4,8.1c-0.4,0-14.1-10.1-17.2-18.4c-1.7-4.6,1.9-9.7,6.1-9.7
	c2.9,0,4.2,0.8,9.9,5.6C407.8,430.8,413.7,440.3,413.7,440.3L413.7,440.3z"/>
<path class="st22" d="M428.5,256.2c-6.2,11.5-20.6,15.9-32.1,9.7l0,0c-11.5-6.2-15.9-20.6-9.7-32.1c6.2-11.5,20.6-15.9,32.1-9.7l0,0
	C430.4,230.3,434.7,244.7,428.5,256.2L428.5,256.2L428.5,256.2z M454.3,260.8c-2.4-1.6-4.9-3.2-7.3-4.8c-0.4-0.3-0.8-1.1-0.8-1.6
	c0.3-3.4,0.8-6.7,1.1-10.1c0.1-1,0.3-1.5,1.2-1.9c3.3-1.3,6.6-2.7,9.8-4c0.5-0.2,1.1-0.5,2-0.9c-1.6-5-3.1-10-4.7-15.1
	c-4.2,0.8-8.1,1.5-11.9,2.4c-1.3,0.3-2.1,0.1-2.9-1.1c-1.8-2.5-3.9-4.8-5.8-7.3c-0.3-0.4-0.4-1.1-0.2-1.6c1.3-3.4,2.6-6.7,4.1-10
	c0.7-1.6,0.4-2.4-1-3.1c-0.5-0.3-1-0.8-1.5-1.1c-2.4-1.3-4.8-2.6-7.3-3.9c-0.3-0.1-0.6-0.1-0.9-0.2c-3-1.2-2.4-1.2-4.1,1.3
	c-2,3-4,6.1-5.8,8.7c-4.5-0.4-8.8-0.8-13.1-1.2c-1.7-4-3.4-8.2-5.1-12.5c-5.3,0.7-10.2,2.4-15.1,4.7c0.8,4.2,1.6,8.2,2.5,12.2
	c0.2,0.7,0.1,1.2-0.6,1.7c-2.8,2.1-5.5,4.2-8.2,6.5c-0.8,0.7-1.2,0.7-2.1,0.3c-3.4-1.4-6.8-2.8-10.1-4.2c-0.8-0.3-1.4-0.3-2,0.5
	c-2.8,3.7-4.7,7.8-6.2,12.1c-0.3,0.9,0.1,1.2,0.7,1.6c3,1.9,5.9,3.9,8.9,5.9c0.9,0.6,1.1,1,1,2.1c-0.6,3.8-1,7.7-1.5,11.9
	c-3.7,1.5-7.8,3.2-11.9,4.9c0.7,5.4,2.2,10.5,4.6,15.3c4.5-0.9,8.9-1.8,12.9-2.7c2.5,2.9,4.7,5.6,7.1,8.2c0.9,1,1.1,1.7,0.5,2.9
	c-1.4,3.2-2.7,6.4-4,9.7c-0.3,0.6-0.8,1.4,0.2,1.9c4.1,2.1,8.1,4.3,12.2,6.4c0.9,0.5,1.4,0.2,1.9-0.6c1.9-3,4-6,5.9-9
	c0.7-1.2,1.5-1.2,2.7-1.1c3,0.4,6.1,0.8,9.1,0.8c1.3,0,1.8,0.4,2.2,1.5c1.4,3.8,3,7.4,4.5,11.1c3.3,0,12.1-2.8,15.3-4.8
	c-0.8-4-1.6-8-2.6-12.1c-0.2-1,0.1-1.4,0.8-2c2.5-2,4.8-4.1,7.3-6.1c0.4-0.3,1.3-0.5,1.7-0.3c3,1.2,6,2.5,8.9,3.7
	c1.7,0.7,2.3,1,3,0.6l6.9-12.9C457,262.6,456.2,262.1,454.3,260.8L454.3,260.8z"/>
<path class="st23" d="M302.9,333.5c3.5,17.3-7.8,34.1-25.1,37.6c-17.3,3.5-34.1-7.8-37.6-25.1c-3.5-17.3,7.8-34.1,25.1-37.6
	C282.6,304.9,299.4,316.2,302.9,333.5L302.9,333.5z M333.5,316c-3.9,0.4-7.8,0.9-11.7,1.2c-0.7,0.1-1.8-0.4-2.2-1
	c-2.6-3.8-4.9-7.7-7.5-11.4c-0.8-1.1-1-1.8-0.3-3c2.3-4.2,4.5-8.4,6.8-12.6c0.4-0.7,0.7-1.4,1.3-2.6c-5.9-3.9-11.8-7.7-17.8-11.7
	c-3.7,4.5-7.1,8.5-10.3,12.7c-1.1,1.5-2,1.9-4,1.4c-4-1.1-8.2-1.7-12.3-2.6c-0.6-0.1-1.4-0.8-1.6-1.4c-1.5-4.6-3.1-9.2-4.3-13.9
	c-0.6-2.2-1.7-2.8-3.8-2.4c-0.8,0.2-1.7,0.1-2.5,0.1c-3.6,0.7-7.3,1.5-10.9,2.2c-0.4,0.2-0.7,0.5-1.1,0.6c-4.1,1.3-3.5,0.8-3.1,4.8
	c0.5,4.9,1,9.8,1.4,14c-5.1,3.5-9.8,6.7-14.7,10c-5.2-2.8-10.6-5.6-16-8.5c-4.9,5.3-8.6,11.3-11.6,17.8c4.4,3.6,8.7,7.1,13.1,10.6
	c0.8,0.6,1.1,1.1,0.8,2.3c-1.1,4.6-2.1,9.1-2.9,13.8c-0.2,1.3-0.7,1.8-1.9,2.1c-4.7,1.4-9.4,2.9-14.1,4.4c-1.2,0.4-1.7,0.9-1.7,2.2
	c0.3,6.2,1.8,12.1,3.9,17.9c0.4,1.1,1.2,1.2,2.2,1.1c4.7-0.5,9.5-1,14.3-1.6c1.4-0.2,2,0.1,2.8,1.4c2.7,4.5,5.6,8.8,8.7,13.6
	c-2.5,4.7-5.3,10-8.2,15.4c5.4,5,11.2,9,17.9,11.9c3.9-4.8,7.7-9.6,11.1-13.8c5,0.8,9.7,1.7,14.4,2.3c1.8,0.2,2.6,0.8,3,2.6
	c1.3,4.5,2.7,9,4.1,13.5c0.3,0.9,0.4,2.1,1.9,1.8c6.1-1.3,12.1-2.5,18.2-3.8c1.3-0.3,1.6-1,1.4-2.3c-0.6-4.8-0.9-9.7-1.6-14.5
	c-0.3-1.9,0.5-2.6,1.9-3.5c3.5-2.2,7-4.4,10.2-7c1.4-1.1,2.2-1.2,3.6-0.3c4.7,2.7,9.5,5.2,14.2,7.7c3.4-2.8,10.2-13.3,11.8-18.1
	c-4.3-3.4-8.6-6.9-13-10.3c-1.1-0.8-1.2-1.6-0.9-2.8c0.9-4.2,1.5-8.4,2.4-12.6c0.1-0.7,0.9-1.6,1.5-1.8c4.1-1.4,8.3-2.6,12.5-3.8
	c2.3-0.7,3.3-0.9,3.6-1.9l-3.9-19.4C337.9,315.6,336.7,315.7,333.5,316L333.5,316z"/>
<path class="st24" d="M290.5,241.3c-0.1,0-0.2,0-0.4-0.1c-2.6-0.9-5.2-1.8-7.7-2.7c-0.6-0.2-0.4-0.7-0.3-1.1c0.5-2,1-4,1.5-6
	c0.2-0.8,0-1.2-0.6-1.7c-1.6-1.3-3.2-2.7-4.9-4.2c-2.3,0.8-4.8,1.8-7.4,2.7c-1.8-2.6-3.2-5.4-4.1-8.6c2.3-1.4,4.6-2.7,6.6-4
	c-0.1-2.5-0.2-4.8-0.2-7.1c0-0.7-0.2-0.9-0.8-1.2c-1.9-0.9-3.8-1.8-5.7-2.6c-0.4-0.2-0.7-0.4-0.6-0.9c0.5-2.7,1.3-5.3,2.6-7.7
	c0.2-0.4,0.4-0.5,0.7-0.5c0.1,0,0.2,0,0.4,0.1c2.1,0.5,4.2,1,6.3,1.5c0.2,0,0.3,0.1,0.4,0.1c0.3,0,0.5-0.1,0.8-0.4
	c1.3-1.6,2.8-3.1,4.2-4.6c0.4-0.4,0.4-0.6,0.2-1.1c-0.8-2.3-1.7-4.6-2.5-7c2.6-1.8,5.4-3.2,8.4-4.1c1.4,2.3,2.8,4.6,4.1,6.9
	c2.6-0.1,5.1-0.3,7.8-0.4c0.8-1.7,1.7-3.7,2.6-5.6c0.5-1,0.5-1.4,1-1.4c0.3,0,0.6,0.1,1.3,0.3c0.1,0,0.2,0,0.3,0c0,0,0,0,0.1,0
	c0,0,0,0,0.1,0c0,0,0.1,0,0.1,0c1.5,0.6,3.1,1.1,4.6,1.7c0.3,0.2,0.6,0.4,1,0.5c0.9,0.3,1.2,0.8,0.9,1.8c-0.6,2.1-1,4.1-1.5,6.2
	c-0.1,0.3,0.1,0.7,0.3,0.9c1.3,1.3,2.8,2.4,4.1,3.8c0.4,0.4,0.7,0.6,1.1,0.6c0.2,0,0.5-0.1,0.8-0.2c2.2-0.8,4.4-1.6,6.8-2.5
	c1.4,2.9,2.7,5.6,4.1,8.5c-0.5,0.3-0.8,0.5-1.1,0.7c-1.8,1.1-3.6,2.2-5.4,3.2c-0.5,0.3-0.6,0.6-0.6,1.2c0.1,2,0.1,4,0.2,6
	c0,0.3,0.3,0.7,0.6,0.9c1.5,0.8,3.1,1.5,4.7,2.2c1.3,0.6,1.7,0.8,1.8,1.4l-2.9,8.2c-0.1,0.1-0.3,0.2-0.5,0.2c-0.3,0-0.7-0.1-1.3-0.3
	c-1.9-0.5-3.7-1-5.6-1.4c0,0-0.1,0-0.1,0c-0.3,0-0.7,0.2-0.9,0.4c-1.3,1.4-2.5,2.8-3.7,4.2c-0.4,0.4-0.5,0.7-0.3,1.3
	c0.9,2.3,1.7,4.6,2.6,6.9c-1.7,1.5-6.7,3.9-8.6,4.2c-1.2-2-2.5-4-3.6-6.1c-0.3-0.5-0.6-0.7-1.1-0.7c-0.1,0-0.2,0-0.4,0
	c-1.8,0.2-3.6,0.3-5.4,0.3c-0.7,0-1.2,0.1-1.5,0.9c-0.8,2-1.8,3.9-2.7,5.8C291,241,290.8,241.3,290.5,241.3 M296.6,196.2
	c-5.8,0-11.2,3.6-13.3,9.4l0,0c-2.6,7.3,1.2,15.4,8.5,18c1.6,0.6,3.2,0.8,4.7,0.8c5.8,0,11.2-3.6,13.3-9.4c2.6-7.3-1.2-15.4-8.5-18
	C299.7,196.4,298.1,196.2,296.6,196.2"/>
<path class="st2" d="M300.6,589l-4.6,0c0.6-20.3,1.2-51,0.1-52.8c0,0,0.1,0.1,0.3,0.2l3.8-1c0.6,0.3,1,0.5,1.1,9.1
	c0.1,4.4,0,10.6-0.1,18.2C301,575.8,300.6,588.8,300.6,589L300.6,589z"/>
<path class="st2" d="M314.2,588.7h-31.3c-1.4,0-2.6,1.2-2.6,2.6c0,0.3,0.2,0.5,0.5,0.5h35.6c0.3,0,0.5-0.2,0.5-0.5
	C316.8,589.9,315.6,588.7,314.2,588.7L314.2,588.7z"/>
<path class="st2" d="M300.1,586.1h-3.8c-1.1,0-2.1,0.9-2.1,2.1c0,1.1,0.9,2.1,2.1,2.1h3.8c1.1,0,2.1-0.9,2.1-2.1
	C302.1,587.1,301.2,586.1,300.1,586.1L300.1,586.1z"/>
<polygon class="st4" points="189,591.7 189,499.4 187.2,499.4 187.2,591.7 189,591.7 "/>
<path class="st4" d="M282.4,448.3c-0.2-4.1,0.4-8.2,2.3-12c1.6-3.3,5.5-5.2,9.1-5.2c11.3,0,12.8,14.9,20,20.7
	c2.2,1.8,4.7,3.2,6.7,5.1c7.7,7,4.2,20-2.8,26.2c-4.9,4.3-12.6,6.7-18.7,3.4c-3.2-1.7-5.5-4.6-7.3-7.8c-2.4-4.5-4-9.7-5.7-14.5
	C284.2,459,282.7,453.7,282.4,448.3L282.4,448.3z"/>
<path class="st3" d="M251.2,491.3l24.6-6.9c0,0,5.2-7,11.9-16.3c2.2,2.2,3.4,5.5,5.6,7.6l-16.3,18c-0.6,0.6-1.4,1-2.3,1l-22.6,0.1
	l-7.7,0.6v-5L251.2,491.3L251.2,491.3z"/>
<path class="st25" d="M286.7,486c0,0,8.5-8.7,10.6-12.4c2.2-3.8-1.5-1.3-5.2-2.3c-1.4-0.4-1.1-8.7-3.7-6c-4.4,4.4-9.9,12.2-9.9,12.2
	L286.7,486L286.7,486z"/>
<path class="st17" d="M298.7,461.5c0,0,7.6-1.5,11.1,1.4c3.5,2.9-0.7,28.6-0.7,32.9c0,4.3,2.4,16.3,2.4,16.3s-23,4-26.7-2.4
	c0,0-1-24.4-0.9-27.5c0.2-3.1,3.6-15.6,4.5-17C289.3,464,298.7,461.5,298.7,461.5L298.7,461.5z"/>
<path class="st6" d="M298.7,449.8c0,0,0,0.2,0.1,0.6c0.3,1.9,1.7,8,2.6,9.7c1.1,2-3.7,8.6-8.3,7.8c-1.4-0.2,1.2-6,1-6.6
	c-0.2-1.2-0.5-2.8-0.9-4.4c-0.2-0.9-0.4-1.8-0.5-2.7c-0.5-2.5-0.9-4.5-0.9-4.5L298.7,449.8L298.7,449.8z"/>
<path class="st7" d="M298.9,450.4c-0.1-0.4-0.1-0.6-0.1-0.6l-6.9-0.2c0,0,0.4,2,0.9,4.5c0.2,0.9,0.4,1.8,0.5,2.7
	c1.1-0.2,2.2-0.7,3.3-1.6c1.2-1.1,2-2.3,2.5-3.7C299,451.1,298.9,450.7,298.9,450.4L298.9,450.4z"/>
<path class="st6" d="M294.1,434.1c0,0,3.3-0.4,5.3,2.3c2,2.6,4.2,10.8-0.8,15.2c-5.1,4.4-10.1-0.6-10.8-5.9
	C287,440.4,286.7,433.9,294.1,434.1L294.1,434.1z"/>
<path class="st6" d="M286.3,445.6c0.6,1.2,1.6,1.8,2.3,1.5c0.6-0.4,0.7-1.6,0.1-2.8c-0.6-1.2-1.6-1.8-2.3-1.5
	C285.7,443.2,285.6,444.4,286.3,445.6L286.3,445.6z"/>
<path class="st4" d="M293.7,433.3c0,0,4.3,7.7,7.5,8.1c3.1,0.4,3.5,4.5,3.5,4.5s-1.1-9.5-4.2-11.3
	C297.4,432.7,293.7,433.3,293.7,433.3L293.7,433.3z"/>
<path class="st6" d="M300.4,443.3c-0.3,1.4,0.3,2.6,1.1,2.8c0.9,0.2,1.8-0.8,2.1-2.2c0.3-1.4-0.3-2.6-1.1-2.8
	C301.5,441,300.6,441.9,300.4,443.3L300.4,443.3z"/>
<path class="st3" d="M271.1,570.8c0,0,7,8.4,7,9.1c0,0.7-0.3,8.7-1.1,9.4c-0.8,0.7-3.3,1.2-2.5,2.1c0.6,0.6,5.2,0.5,8.2,0.3
	c0.9,0,2-7.1,2.3-8.1c0.5-1.5,1.7-4.9,1.3-5.9c-0.2-0.5-1.3-1.6-2.8-2.5c-1.6-1-7.7-9.5-7.7-9.5L271.1,570.8L271.1,570.8z"/>
<path class="st11" d="M283.4,575.1c0,0-4.7,13.2-6.5,13.8c-0.5,0.2-2.8,0.6-3.3,1.6c-0.1,0.3,0,1.4,0,1.4h9.8c0,0,1.2-5.8,1.7-8.4
	c0,0,2.6-6.2,2.3-6.8C287.2,576.1,283.4,575.1,283.4,575.1L283.4,575.1z"/>
<path class="st6" d="M229.3,574.8c0,0-5.7,8-5.2,10.6c0.3,1.4,1.5,3.1,0.8,4.4c-0.7,1.3-1.5,1.6-1.5,1.6l-17.8,0.3
	c-1,0-0.3-0.6,0.5-1.2c1.3-0.9,2.3-1.6,6.4-3.5c0.3-0.1,1.2-0.7,1.6-1c0.9-0.5,1.8-1.4,2.5-2.2c1.3-1.4,6.9-13,6.9-13L229.3,574.8
	L229.3,574.8z"/>
<path class="st11" d="M214.1,586c4.7,1.2,8.2,0.4,10.1-0.4c0.5,1.4,1.2,3.2,0.8,4.2c-0.4,1.3-1,1.5-1.6,1.6
	c-4.3,0.1-15.7,0.3-19,0.3c-0.5,0-0.7-0.5-0.4-0.9C204.8,589.9,213.7,586.2,214.1,586L214.1,586z"/>
<path class="st11" d="M249.9,525.3c0,0,7.1,8.1,8.9,9.3c1.8,1.3,19.1,33.1,19.1,33.1l-6.2,4.5c0,0-15.4-19.3-22.7-29.6
	c-6.1-8.7-3.9-8.2-7.5-13.5c-2-2.9-1.5-6.9,1.1-9.2c0.3-0.3,0.7-0.6,1.1-0.9c5.3-4.4,41.9-9.5,41.9-9.5l23.4,2.3
	c0,0-19.1,13.4-19.8,13.8c-0.7,0.4-26.4,4.1-26.9,4.1C261.7,529.8,249.9,525.3,249.9,525.3L249.9,525.3z"/>
<path class="st7" d="M311.4,512.1c0,0,4,12-2,17.7c-6,5.6-41.8,5-53.6,5c0,0-4.8,13.2-5.4,15.3c-0.5,2.1-23.9,29.8-23.9,29.8
	l-6.4-4.1c0,0,25.2-48.9,27.1-51c2-2.1,30-10.7,36.9-12.7C291.1,510.2,311.4,512.1,311.4,512.1L311.4,512.1z"/>
<path class="st6" d="M264.8,490.5l21.4-4.7c0,0,7.7-9.9,15.1-18.5c2.2,2.2,3.4,5.5,5.6,7.6l-16.3,18c-0.6,0.7-1.4,1-2.3,1l-22.6,0.1
	l-7.7,0.6v-5L264.8,490.5L264.8,490.5z"/>
<path class="st25" d="M300.3,485.2c0,0,8.5-8.7,10.6-12.4c2.2-3.8,0.6-10.1-3.2-11.1c-3.7-1-15.7,14.9-15.7,14.9L300.3,485.2
	L300.3,485.2z"/>
<path class="st11" d="M221,466.1h35.2c0.9,0,1.8,0.6,2.1,1.4l10.8,26.5h19.4c0.5,0,1,0.4,1,1c0,0.5-0.4,1-1,1h-55.3
	c-1.5,0-2.9-0.9-3.5-2.3l-10.9-24.3C218.2,467.9,219.3,466.1,221,466.1L221,466.1z"/>
<path class="st8" d="M239.9,481.5c0.2,1.2,1.3,2,2.3,1.8c1-0.2,1.7-1.3,1.5-2.5c-0.2-1.2-1.3-2-2.3-1.8
	C240.3,479.2,239.7,480.4,239.9,481.5L239.9,481.5z"/>
<path class="st10" d="M292.3,500.4H187c-1.2,0-2.2-1-2.2-2.2s1-2.2,2.2-2.2h105.2c1.2,0,2.2,1,2.2,2.2S293.5,500.4,292.3,500.4
	L292.3,500.4z"/>
<path class="st8" d="M292.1,448.7l4.8-0.2c0,0,0,1.8-2.1,2C292.2,450.6,292.1,448.7,292.1,448.7L292.1,448.7z"/>
<path class="st2" d="M277.2,536l2.2-9c1.5-6.3,7.1-10.8,13.5-11.1l27.3-1.1l0.8-2.8l-28.3,1.1c-7.7,0.3-14.3,5.7-16.1,13.2l-2.3,9.5
	C275.2,536,276.1,536,277.2,536L277.2,536z"/>
<path class="st10" d="M313.8,531.2c0,0-37.5,0.6-41.4,0c-3.9-0.6-5.6,4.3-4.4,6.8c1.2,2.6,4.4,3.6,9.1,3.8
	c4.7,0.2,44.1,1.3,45.2,0.3c0.9-0.9,12.8-41.6,17.2-56.5c0.9-3-0.8-6.1-3.8-7c-3-0.9-6.1,0.8-7,3.8L313.8,531.2L313.8,531.2z"/>
<polygon class="st4" points="292.3,591.7 292.3,499.4 290.5,499.4 290.5,591.7 292.3,591.7 "/>
<polygon class="st4" points="291.8,505.3 187.2,505.3 187.2,506.3 291.8,506.3 291.8,505.3 "/>
<path class="st26" d="M571,54.9c0,0,13.6,8.8,47.1,7.6c0,0-35.9,13.6-50,15.7l-5.8-22.8L571,54.9L571,54.9z"/>
<path class="st11" d="M577.4,66.4c0,0-2.7,6.4-9.3,11.8l-3-11.9l0.2-5.8L577.4,66.4L577.4,66.4z"/>
<path class="st7" d="M525.7,41.9c0,0,39.3-2.7,45.4-0.4l6.3,24.9c0,0-22.4-1.9-44.1,5.3L525.7,41.9L525.7,41.9z"/>
<path class="st3" d="M502.1,319.8c0,0-1.9,3.1-1.7,4c0.2,0.9,2.4,10.6,3.7,11.2c1.3,0.6,4.4,0.5,3.7,1.8c-0.5,0.9-6.2,2.2-10,3
	c-1.1,0.2-4.7-8.1-5.4-9.3c-1.1-1.7-3.7-5.5-3.4-6.9c0.1-0.7,1.1-2.3,2.7-4c1.6-1.8,2.8-5.1,2.8-5.1L502.1,319.8L502.1,319.8z"/>
<path class="st6" d="M529.5,319l-0.6,6.9c0.1,1,0.1,3.7,0.3,4.6c0.9,3.4,14.8-6.8,10.9-7.5c-0.4-0.1-1.6-0.9-2-2.1
	c-0.6-1.8,0.3-4.4,0.3-4.4L529.5,319L529.5,319z"/>
<path class="st9" d="M523.9,194.5c0,0,4,11.1,4.1,11.3c4.7,18.4,17.4,53.5,17.6,57.1c0.4,8.9-6.9,56.6-6.9,56.6l-10.2,1.3l-0.2-54.8
	l-10-19.6L501.3,207L523.9,194.5L523.9,194.5z"/>
<path class="st17" d="M493.4,213l0.9,11.3l6.2,45.7l-8.3,48.3c0,0,4.3,5.6,8.5,5.5l19.4-52.3l4.6-61.9l-3.9-12.5L493.4,213
	L493.4,213z"/>
<path class="st4" d="M491.7,319.5c0,0,9.9,14.8,12.4,15.1c0.7,0.1,3.7-0.1,4.5,1c0.3,0.3,0.8,2.1,0.8,2.1l-12.4,3.6
	c0,0-3.4-7.7-4.8-10.7c0,0-5.1-6.9-5-7.7C487.4,321.9,491.7,319.5,491.7,319.5L491.7,319.5z"/>
<path class="st4" d="M528.6,332.3l0.4-6.5c0,0,4.1,0.6,5.9-0.1c1.8-0.7,5.2-2.7,5.2-2.7c8.1,0.6,14.5,0.2,13.8,2.5L528.6,332.3
	L528.6,332.3z"/>
<path class="st3" d="M547.8,157l5.4,4.1c1-0.8,3.3-4.2,4.8-5.2l-4.9-5.3c-0.4-0.3-0.6-0.8-0.6-1.3c0-0.4,0.1-0.7,0.1-0.8
	c0.2-0.4,0.3-0.9,0.4-1.4c0.2-0.4-0.9-1.3-1.4-1.4c-0.5-0.2-0.7,1.9-0.9,2.5c-0.7,1.8-1.5,6.8-1.7,7.7L547.8,157L547.8,157z"/>
<path class="st4" d="M553.8,160.6c-1.5-1.6-3.6-2.5-5.2-4.2l-23.8,16.4c0,0-18.4-21.8-28.4-14.1c4.4,7.4,9.7,14.4,12.4,17.8
	c6.1,7.6,15.5,11.2,17.3,10.3C528,186,553.2,161.3,553.8,160.6L553.8,160.6z"/>
<path class="st16" d="M449.6,106.1c0.8,2.1,2.2,5.4,2.2,5.4c0,0.9,0.2,4.9,0.5,9.7l6.7-3.7c0,0-1-7.8-0.8-8.3c0.2-0.4,0.7,0,2.5-3.3
	c0.5-1,0.4-2.6,0.4-2.6s-0.1-2-0.6-2.1c-0.5-0.1-0.9,0.2-1.1,0.6c-0.1,0.4,0,1.1-0.1,1.5c-0.1,0.4-1.1,0.9-1.5,0.9
	c-0.4,0-0.6-5.8-0.6-5.8s0-1.7,0.1-2.2c0-0.5,0.3-1.9,0.3-1.9s0.3-2-0.4-2.1c-0.4,0-1.1,1.6-1.5,3.4c-0.5,1.9-0.6,3.8-0.8,3.8
	c-0.5,0-0.6-3.2-0.6-3.2s0.3-1.5,0.2-2.2c0.3-0.9,0.4-2.5-0.3-2.5c-0.1,0-0.9,2.1-0.9,2.1s-0.2,1.4-0.4,2.1c-0.3,1.2-0.1,3-0.2,3.8
	c-0.1,0.7-0.3,0.4-0.3,0.5c-0.1,0-0.1-0.9-0.1-2.2c0-0.6-0.2-1.4-0.1-2.1c0.1-0.7,0.1-1.7,0-2.2c-0.1-1.7-1.1-1.4-1.3,0.2
	c-0.1,0.6-0.1,1.2-0.2,1.9c-0.3,2.5,0,4.9-0.2,4.9c-0.3,0.1-0.6-4.3-0.6-4.3s-0.8-2.3-1.1,0c-0.3,2.6,0,4.7,0,4.8
	C449,101.7,448.8,104,449.6,106.1L449.6,106.1z"/>
<path class="st7" d="M496.6,126.2c0,0-4-3.3-6.4,1.6c0,0-2.4-1-3.7,1.4c0,0-4.2-0.7-4.4,5.4c0,0-2.1-0.1-2.1,2.3c0,2.5,1.5,4,1.5,4
	s-1.1,1-0.3,3.2c0.7,1.9,2.3,2,2.3,2s0.8,3.2,2.3,4c1.5,0.8,3.4,0.1,3.4,0.1s0.7,1.7,2.3,1.3c1.6-0.4,3.5-2.2,5.4-1.7
	c1.9,0.5,6.6-0.8,6.6-0.8s5-3,2.8-8.3c0,0,2.5-2.9-0.3-5.6c0,0,1.2-5-2.7-7.3C499.5,125.4,496.6,126.2,496.6,126.2L496.6,126.2z"/>
<path class="st0" d="M508.1,160.6l-8.2-4.2c0,0-7.3,1.1-8.2,1.2c-0.9,0.1-2.6,34.2-2.8,46.9c-0.1,12.8,1.4,14.8,1.4,14.8
	s11.9,1.2,20.4-0.6c8.8-1.9,18.3-7.9,18.3-7.9s-10.5-23.2-13-30.5C513.6,172.9,508.1,160.6,508.1,160.6L508.1,160.6z"/>
<path class="st4" d="M492,157.4l-27-21.6c0,0-6.2-22.8-6.5-23.6c-0.3-0.8-6.4-0.6-8.8-0.5c-0.8,0,3.4,24.6,5,28.6
	c2,4.7,22.8,24.9,22.8,24.9s4.7,11.7,5,20.7c0.5,14.9-0.6,35.6,0.1,36.2c4.2,2,19.2,0.4,20-1.2C511.1,202.7,492,157.4,492,157.4
	L492,157.4z"/>
<path class="st6" d="M499.1,151.9l1.2,4.7c0,0,2.3,6.8,0.6,8.3c-1.7,1.6-9-7.5-9-7.5l-0.8-12.3L499.1,151.9L499.1,151.9z"/>
<path class="st7" d="M491.4,149.2c2,4,6,6.1,8.8,6.8l-1-4l-8-6.7L491.4,149.2L491.4,149.2z"/>
<path class="st7" d="M480.2,138.1c0.2,1.9,1.5,3.2,2.8,3.1c1.3-0.2,2.2-1.8,2-3.6c-0.2-1.9-1.5-3.2-2.8-3.1
	C480.8,134.6,480,136.2,480.2,138.1L480.2,138.1z"/>
<path class="st7" d="M486.4,130c0.1,1.1,1.5,1.8,3.1,1.6c1.6-0.2,2.8-1.2,2.6-2.3c-0.1-1.1-1.5-1.8-3.1-1.6
	C487.4,127.9,486.3,129,486.4,130L486.4,130z"/>
<path class="st6" d="M493.9,131.9c3.6-1.8,8,0.3,9,4.1c0.5,1.7,0.9,3.8,1.3,6.1c0.8,5.6-1.5,11.4-4,11.7
	c-2.6,0.3-10.1-2.5-11.3-10.4C488.2,138.5,490.1,133.7,493.9,131.9L493.9,131.9z"/>
<path class="st6" d="M490.9,143.8c0.2,1.2-0.5,2.3-1.6,2.5c-1,0.1-2-0.8-2.1-2c-0.2-1.2,0.6-2.3,1.6-2.5
	C489.8,141.6,490.7,142.6,490.9,143.8L490.9,143.8z"/>
<path class="st7" d="M504.6,127.7c2.9,1.8,4.2,4.8,2.9,6.8c-1.3,2-4.7,2.2-7.5,0.4c-2.9-1.8-4.2-4.8-2.9-6.8
	C498.4,126.1,501.7,125.9,504.6,127.7L504.6,127.7z"/>
<path class="st7" d="M497.9,130.3c0.1,0.9-0.9,1.8-2.2,1.9c-1.4,0.2-2.5-0.4-2.6-1.3c-0.1-0.9,0.9-1.8,2.2-1.9
	C496.6,128.8,497.8,129.4,497.9,130.3L497.9,130.3z"/>
<path class="st7" d="M506.1,136.4c0.1,1.2-0.7,2.2-1.8,2.4c-1.2,0.1-2.2-0.7-2.3-1.9c-0.1-1.2,0.7-2.2,1.8-2.4
	C504.9,134.4,505.9,135.2,506.1,136.4L506.1,136.4z"/>
<path class="st4" d="M514.9,165.6c0,0,11.4,27,15.5,36.5c0.4,1,2.6,7.8,2.7,8.4c0.2,1.5-6.1,4.2-6.9,4.1c-0.7,0-9.9-28.5-15.2-42.4
	c-1.8-4.7-4.5-9-7.8-12.7l-2.6-2.1l-0.2-0.8C500.4,156.7,512,157.7,514.9,165.6L514.9,165.6z"/>
<polygon class="st4" points="572.1,220.8 570.1,221.3 523.5,37.5 525.6,37 572.1,220.8 "/>
<path class="st6" d="M559,153.6c-0.1-0.4-0.2-0.8-0.4-1.2c-0.2-0.4-0.5-1-0.7-1.1c-0.1-0.1-0.2-0.4-0.4-0.7c0-0.1-0.1-0.2-0.2-0.3
	l0,0c-0.2-0.3-0.4-0.5-0.7-0.7c-0.3-0.2-0.5-0.4-0.8-0.8c-0.2-0.3-0.5-0.6-0.9-0.7c-0.3-0.2-0.6-0.2-0.7,0c-0.6,1-3.4,4-2.2,5.5
	c1,1.2,2.2,2.5,2.4,3.1c0.4,0.8,1.6,0.8,2.3,0.5C558.3,156.5,559.4,155.7,559,153.6L559,153.6z"/>
<polygon class="st10" points="717.5,591 119.6,591 119.6,593.1 717.5,593.1 717.5,591 "/>
<path class="st7" d="M517.1,117.9c0.1-0.3,0.5-0.3,0.7-0.1c0.3,0.3,0.6,0.6,0.9,0.9c0.7,0.7,0.7,0.7,0.8,0.7c0.2,0,0.2-0.5,0.2-0.6
	c0-0.3-0.1-0.7-0.1-1c0.1-0.7,0.7-1,1.3-0.6c0.5,0.4,1,0.9,1.5,1.3c0-0.8,0.1-1.5,0.1-2.3c0-0.3,0.3-0.4,0.5-0.2
	c0.5,0.4,1.8,1.4,2.3,1.8c0.1,0.1,0.6,0.6,0.8,0.5c0.1-0.1,0.1-0.6,0.1-0.7c0.1-0.6,0.1-0.9,0.4-3c0-0.2,0.4-0.4,0.6-0.2
	c1.6,1.9,1.8,1.7,2,2.3c0,0.1-0.1,0.2-0.2,0.2c-0.3,0-0.4-0.1-1.2-0.8c-0.2-0.2-0.4-0.4-0.6-0.6c-0.3,2.5-0.3,3.2-0.9,3.4
	c-0.4,0.1-0.5,0-3.1-2c0,0.8,0,1.6-0.1,2.4c0,0.3-0.3,0.4-0.6,0.3c-1.9-1.5-1.8-1.6-2-1.7c0,0,0-0.1,0,0.1c-0.1,0.3,0.3,1.1,0,1.7
	c-0.2,0.5-0.8,0.9-1.4,0.7c-0.3-0.2-0.4-0.3-1.4-1.3c-0.3,0.6-0.7,1.2-1.1,1.8c-0.2,0.2-0.4,0.4-0.7,0.5c-0.2,0.1-0.5-0.2-0.5-0.4
	C515.6,119.9,516.2,119.8,517.1,117.9L517.1,117.9z"/>
<path class="st27" d="M508.6,108.6c0.7,0.1,1.4,0.2,2.1,0.2c0.1,0,0.4,0,0.5-0.1c0.2-0.3-0.4-0.9-0.6-2.2c-0.1-0.6-0.4-1.7,0.4-2
	c0.4-0.1,0.9,0,1.3,0c0.3,0,0.6,0,0.9,0c-0.5-2.1-0.7-2-0.5-2.5c0.1-0.1,0.2-0.2,0.4-0.1c0.4,0.3,0.3,0.2,1,2.9
	c0.1,0.2-0.1,0.5-0.4,0.5c-0.4,0-2.3-0.2-2.5-0.1l0,0.1c0,0.9,0.3,1.6,0.6,2.4c0.3,0.7,0.2,1.6-0.6,1.7c-0.5,0.1-1.4,0-2.1,0
	c0.4,1.3,0.8,2.6,1.1,3.9c0.1,0.3-0.1,0.6-0.4,0.6c-0.8-0.1-1.7-0.1-2.5-0.2c0.2,0.8,0.6,1.5,1,2.1c0.3,0.5-0.4,1.1-1.1-0.2
	c-0.4-0.7-0.8-1.5-1-2.3c-0.1-0.3,0.1-0.6,0.4-0.6c0.8,0,1.7,0.1,2.5,0.1c-0.4-1.3-0.7-2.6-1.1-3.9
	C508,108.8,508.3,108.5,508.6,108.6L508.6,108.6z"/>
<path class="st28" d="M489.1,101.4c-0.2,0-0.4-0.2-0.4-0.4c-0.2-1.1-0.2-2.3,0-3.4c0.1-0.6,1-0.4,0.9,0.2c-0.1,0.9-0.2,1.8-0.1,2.8
	c0.7,0,1.3-0.1,2-0.3c0.2-0.1,0.6,0.1,0.6,0.4c0,0.7-0.3,3.5-0.3,3.5c0,0,0,0,0.1,0c0.3,0.1,1.3-0.1,1.7-0.1c0.5,0,0.7,0.7,0.7,1.1
	c0.1,0.8-0.6,1.8-0.3,2.6c0.3,0.8,1.5-0.1,2.5,0.6c0.7,0.5,0.5,1.3,0.2,2.7c-0.1,0.3-0.1,0.6-0.5,0.8c-0.1,0-0.2,0-0.3,0
	c-0.4-0.4-0.2-0.9,0.1-2.1c0-0.2,0.1-0.4,0-0.6c-0.4-0.5-1.4,0.2-2.3-0.4c-0.7-0.4-0.8-1.3-0.6-2c0.1-0.6,0.4-1.3,0.2-1.8
	c-0.5,0-1,0.1-1.4,0.1c-0.5,0-0.9-0.3-0.9-0.8c0-0.6,0.1-1.2,0.1-1.8c0-0.4,0.1-0.8,0.1-1.2C490.5,101.3,489.8,101.4,489.1,101.4
	L489.1,101.4z"/>
<path class="st9" d="M523.8,130.4c2,2.6,0.1,3.8-0.7,3.1c-0.4-0.3-0.4-0.9,0-1.1c0.2-0.1,0.5,0.1,0.4,0.3c-0.1,0.2,0.2,0.2,0.2,0
	c0.1-0.3-0.1-0.6-0.2-0.9c-0.3-0.6-0.6-1.3-1.4-1.4c-1-0.2-2.2,0.9-1.6,2.5c0.8,2.3,4.6,2.3,5.3-0.1c0.4-1.3-0.2-2.8-1.2-3.6
	c-0.2-0.2,0-0.4,0.3-0.4c1.6,0.7,2.2,2.8,1.6,4.3c-0.6,1.6-2.3,2.4-3.9,2.1c-1.7-0.3-3.1-1.8-2.9-3.6
	C520,129.7,522.4,128.6,523.8,130.4L523.8,130.4z"/>
<path class="st0" d="M482.5,109c0.3,0.4,0.4,1.3-0.1,1.5c-0.3,0.1-0.6,0-0.7-0.3c-0.1-0.3,0.1-0.6-0.2-0.8c-0.2-0.2-0.6-0.1-0.8,0.1
	c-0.7,0.5-0.5,1.7-0.1,2.4c0.5,1,2,1.3,2.7,0.2c0.2-0.3,0.3-0.7,0.4-1.1c0.1-0.2,0.4-0.3,0.5-0.1c0.4,0.9-0.2,2-0.9,2.5
	c-0.8,0.5-1.9,0.5-2.7,0c-0.9-0.6-1.3-1.7-1.3-2.8C479.4,108.3,481.6,107.6,482.5,109L482.5,109z"/>
<path class="st8" d="M381,409.2c0,0,1,1.5,2.8,0.6c2.3-1.1,1.4-2.9,1.4-2.9L381,409.2L381,409.2z"/>
<path class="st8" d="M497.2,147.5c0,0,0.2,1.8,2.3,1.8c2.6,0,2.5-2,2.5-2L497.2,147.5L497.2,147.5z"/>
</svg>
