<svg id="Layer_2" data-name="Layer 2" xmlns="http://www.w3.org/2000/svg" viewBox="0 0 852.21 635"><defs><style>.cls-1{fill:#ebebeb;}.cls-2{fill:#fafafa;}.cls-3,.cls-7{fill:#e0e0e0;}.cls-11,.cls-12,.cls-19,.cls-21,.cls-22,.cls-23,.cls-29,.cls-30,.cls-4{fill:#fff;}.cls-5{fill:#f5f5f5;}.cls-6{fill:#f0f0f0;}.cls-11,.cls-12,.cls-13,.cls-18,.cls-19,.cls-20,.cls-21,.cls-22,.cls-23,.cls-29,.cls-30,.cls-7{isolation:isolate;}.cls-13,.cls-23,.cls-7{opacity:0.2;}.cls-8{fill:#e6e6e6;}.cls-9{fill:#ce7a63;}.cls-10{fill:#ff81ae;}.cls-11{opacity:0.6;}.cls-12{opacity:0.4;}.cls-14{fill:#9f5b53;}.cls-15{fill:#263238;}.cls-16{fill:#ba4d3c;}.cls-17{fill:#de5753;}.cls-18,.cls-30{opacity:0.3;}.cls-19{opacity:0.8;}.cls-20,.cls-22{opacity:0.1;}.cls-21{opacity:0.7;}.cls-24{fill:#ffb573;}.cls-25{fill:#e9b376;}.cls-26{fill:#ebb376;}.cls-27{fill:#d58745;}.cls-28{fill:#2e353a;}.cls-29{opacity:0.5;}</style></defs><g id="freepik--background-complete--inject-9"><rect class="cls-1" y="558.03" width="852.21" height="0.43"/><rect class="cls-1" x="710.37" y="585.45" width="56.45" height="0.43"/><rect class="cls-1" x="549.73" y="590.09" width="14.81" height="0.43"/><rect class="cls-1" x="675.96" y="569.64" width="32.71" height="0.43"/><rect class="cls-1" x="89.41" y="572.5" width="73.61" height="0.43"/><rect class="cls-1" x="178.21" y="572.5" width="10.79" height="0.43"/><rect class="cls-1" x="224.08" y="579.69" width="159.67" height="0.43"/><path class="cls-1" d="M404,482H74.84a9.72,9.72,0,0,1-9.71-9.73V9.65A9.73,9.73,0,0,1,74.84,0H404a9.73,9.73,0,0,1,9.73,9.73h0V472.28A9.73,9.73,0,0,1,404,482ZM74.84.34a9.31,9.31,0,0,0-9.29,9.31V472.28a9.3,9.3,0,0,0,9.29,9.3H404a9.31,9.31,0,0,0,9.3-9.3V9.65A9.32,9.32,0,0,0,404,.34Z"/><path class="cls-1" d="M772.63,482H443.51a9.75,9.75,0,0,1-9.73-9.73V9.65A9.74,9.74,0,0,1,443.51,0H772.63a9.74,9.74,0,0,1,9.7,9.65V472.28A9.73,9.73,0,0,1,772.63,482ZM443.51.34a9.33,9.33,0,0,0-9.31,9.31V472.28a9.32,9.32,0,0,0,9.31,9.3H772.63a9.32,9.32,0,0,0,9.31-9.3V9.65A9.33,9.33,0,0,0,772.63.34Z"/><rect class="cls-1" x="568.78" y="123.55" width="143.27" height="196.57"/><rect class="cls-2" x="573.9" y="128.67" width="133.05" height="186.36"/><path class="cls-3" d="M682.64,242.69a31.21,31.21,0,0,1-2.08,5.12,55.46,55.46,0,0,1-3.63,5.94,27.23,27.23,0,0,1-2.54,3.12,25.44,25.44,0,0,1-2.68,2.51c-14.65,12.15-42.93,13.5-63.64,7.7a65.43,65.43,0,0,1-6.39-2.11,46.45,46.45,0,0,1-9.84-5.11l-1-.72a26.42,26.42,0,0,1-2.1-1.7c-3.61-3.31-6.7-6.45-9.36-9.33-1-1.12-2-2.2-2.86-3.24s-1.81-2.16-2.62-3.17V222.77a11.26,11.26,0,0,1,6.69,1,12.23,12.23,0,0,0,17-14.76c-3-11.13-1.81-15.51,11.84-20l1.25-.43h0a46.13,46.13,0,0,0,5.73-2.38c7.07-3.6,7.92-7.38,9-12.07,0,0,3.73-12.68,13.8-16.48a16.12,16.12,0,0,1,6-1.09c15.91,0,23.23,11.55,25.66,16.51,0,.11.08.19.13.28.56,1.21.82,2,.82,2a23,23,0,0,0,0,5.11c.68,7.12,4,14.08,2.85,23.76-1.38,11.93-5.36,6.58-2.8,15.66,1.25,4.38,6.17,7,9.14,11.22A12.49,12.49,0,0,1,682.64,242.69Z"/><path class="cls-3" d="M628.93,172.25a10.35,10.35,0,0,1-.19,1.36c-.61,3.41-3.4,12.39-15.34,14.56q-1.3.24-2.64.36h0a50.41,50.41,0,0,1-10.56-.36c-7.49-.82-12.89-1.42-18.19,8.26-2.2,4-4.91,6.46-8.08,7.32v-1.26a12.78,12.78,0,0,0,7-6.63c5.7-10.38,11.73-9.72,19.38-8.88a43.51,43.51,0,0,0,12.89,0,23.54,23.54,0,0,0,3.3-.86,16.34,16.34,0,0,0,11.07-12.35,12.4,12.4,0,0,0,.22-1.59.6.6,0,0,1,.7-.5.62.62,0,0,1,.51.5Z"/><path class="cls-4" d="M706.94,296.91v17.32c-7.46-8.9-15-18.12-16.89-21.61l-11.69-21.16L674,263.52l-2.32-4.23-5.52-10s-3.65-4.29-1.62-11.93a17.78,17.78,0,0,1,4.77-8.69,7.15,7.15,0,0,1,1.5-1.12c3.26.54,6.72,5.23,10.06,11.72.58,1.14,1.14,2.32,1.7,3.53,6.94,14.85,13.19,35.9,16.06,41.54C699.68,286.17,702.89,291,706.94,296.91Z"/><path class="cls-1" d="M672.6,315H652.4L666,304.21l3.41-2.71s.3,1,.8,2.84C670.76,306.64,671.66,310.29,672.6,315Z"/><path class="cls-1" d="M670.15,304.34A72.63,72.63,0,0,1,668.82,315H605.43a172.41,172.41,0,0,1,6.71-18.15l.51-1.13,57.24.5h.22A70.42,70.42,0,0,1,670.15,304.34Z"/><polygon class="cls-3" points="633.19 305.62 663.24 306.08 663.58 297.05 633.52 297.37 633.19 305.62"/><polygon class="cls-3" points="666.24 297.01 665.88 306.11 668.92 306.17 669.75 296.98 666.24 297.01"/><polygon class="cls-3" points="630.88 297.4 614.94 297.57 614.22 305.33 630.55 305.59 630.88 297.4"/><rect class="cls-4" x="644.89" y="297.69" width="11.69" height="8.86"/><path class="cls-4" d="M605.41,226.52s37.77-8.32,69,3.82A290.23,290.23,0,0,1,669.75,297L612,297.4s3.12-15.71-9.68-46.1Z"/><path class="cls-4" d="M647.68,235.41c-13.26-3.25-16.65-9.47-16.65-9.47,6.1-4.55,6-12.32,5.11-17.27a26.73,26.73,0,0,0-1.16-4.58L650.83,209a49.67,49.67,0,0,0-1.39,6.82,20.81,20.81,0,0,0-.12,5.11c.54,5,3.3,5.36,3.3,5.36C654.81,231.8,647.68,235.41,647.68,235.41Z"/><path class="cls-4" d="M652.62,163.73c14,2.13,17.41,10.33,16.23,24.93-1.47,18.27-7.41,30.51-24.37,24C621.45,203.78,629.32,160.22,652.62,163.73Z"/><path class="cls-5" d="M659.9,186.52a29.2,29.2,0,0,0,3.21,6.42,3.91,3.91,0,0,1-3.94,1Z"/><path class="cls-3" d="M651.48,184.08c-.13,1.14-.88,2-1.7,1.91s-1.28-1.13-1.13-2.27.89-2,1.71-1.93S651.64,182.9,651.48,184.08Z"/><path class="cls-3" d="M650,181.79l2.64-.66S651.09,183.09,650,181.79Z"/><path class="cls-3" d="M665.9,185.66c-.15,1.16-.89,2-1.7,1.91s-1.28-1.11-1.13-2.27.91-2,1.71-1.92S666.05,184.5,665.9,185.66Z"/><path class="cls-3" d="M664.45,183.4l2.64-.67S665.56,184.69,664.45,183.4Z"/><path class="cls-3" d="M646.42,176.14A.71.71,0,0,1,646,176a.6.6,0,0,1,0-.85h0a7.88,7.88,0,0,1,7-1.33.6.6,0,1,1-.32,1.15,6.85,6.85,0,0,0-5.85,1.06A.6.6,0,0,1,646.42,176.14Z"/><path class="cls-3" d="M668.53,177.91a.62.62,0,0,1-.41-.16,6,6,0,0,0-4.89-1.85.62.62,0,0,1-.66-.57.62.62,0,0,1,.42-.63,7.28,7.28,0,0,1,6,2.15.6.6,0,0,1,0,.84h0A.63.63,0,0,1,668.53,177.91Z"/><path class="cls-3" d="M633.69,185s8.32-10.51,8.67-19.58c0,0,29.54-7.13,26.61,21.3,0,0,6.53-24.64-17.51-28.87S622.11,189,633,201.38C633,201.38,628.52,191.63,633.69,185Z"/><path class="cls-4" d="M635.53,188.36a6.24,6.24,0,0,0-5.78-6.65c-4.41-.17-7.84,8.44,2.64,12.22C633.91,194.47,635,193.09,635.53,188.36Z"/><path class="cls-3" d="M651,195.41a.63.63,0,0,1,.53.38,9.87,9.87,0,0,0,4.12,4.36.6.6,0,0,1,.29.79v0a.61.61,0,0,1-.82.25,11,11,0,0,1-4.71-5,.6.6,0,0,1,.32-.78h0A.81.81,0,0,1,651,195.41Z"/><path class="cls-6" d="M671.87,173.31s-.87-12.92-3.41-14.8c-9.77-7.38-23.37-10.11-33-6.51s-10.06,22.07-10.06,22.07l8.32-1.17Z"/><path class="cls-4" d="M635,172.91c.15-.68,1.62-13.5,5.22-16.31s15.34-4.26,15.34-4.26,11.23,4.74,13.63,8.1,2.8,14.81,2.8,14.81Z"/><path class="cls-6" d="M635,172.91s34.77,8.8,48.47,8.22-13.63-8.52-13.63-8.52S648.48,165.33,635,172.91Z"/><path class="cls-7" d="M614.27,253c-2.64,10-6.51,13-6.51,13-1.21-4-3.27-13.14-3.66-15.16-.31-1.7,5.35-5.11,5-6.81,1.45,0,3.6-2.83,5.12-2.7A31,31,0,0,1,614.27,253Z"/><path class="cls-4" d="M609.43,236.78a5.44,5.44,0,0,1-.13,1.43c-1,7.91-5.93,10.57-5.93,10.57l-.77.65-11.76,9.66-.6.49L573.9,273.05V255a3.2,3.2,0,0,1-.51-.29l.51-.59c1.7-2,3.61-4.06,5.48-6.12a187.28,187.28,0,0,1,13.38-13.5c4.88-4.33,9.33-7.38,12.62-7.79a4.85,4.85,0,0,1,1.7,0S609.88,229.88,609.43,236.78Z"/><path class="cls-3" d="M619.75,223.74s5.3,9,1,24.71l7.6-1.16s2.13-16.08-4.31-23.55Z"/><path class="cls-6" d="M680.9,239.16c0,2.46-.17,5.37-.34,8.53-.34,7.14-1,15.68-2.17,23.74-.4,2.9-.9,5.73-1.46,8.42l-4.52.65L612.3,289l-4.79.68-5.85-24.82-1-4.31s-3.82-.13-8.83-.76l-1.61-.23c-5.48-.78-11.93-2.14-16.34-4.55a3.2,3.2,0,0,1-.51-.29l.51-.59v-6.82l2.62-2.63,11.22-11.25s1.86.43,5,1c2.88.53,6.82,1.16,11.45,1.71,1.71.2,3.41.39,5.22.54,4.07.38,8.52.65,13,.69h6.14A81.31,81.31,0,0,0,646,235c1.33-.34,2.64-.73,3.9-1.18a32,32,0,0,0,12.14-7.21,22.87,22.87,0,0,0,2.42-2.86A82.22,82.22,0,0,1,681,231S681,234.15,680.9,239.16Z"/><rect class="cls-1" x="412.74" y="78.39" width="137.31" height="187.88"/><rect class="cls-2" x="417.86" y="83.52" width="127.08" height="177.65"/><path class="cls-6" d="M510.25,180.41s-3.41-15.71-6.34-19.14S500,153.7,494,158s-2.86,31.67.7,31.69a69.9,69.9,0,0,1,10.86,1.7Z"/><path class="cls-3" d="M422,161.12s-15.48,56.06,8.52,74.38,68.4.9,75.73,14.64,28.38-4.7,28.38-4.7-12.36,6.05-12.82-6.53,0-25.4-18.3-37.29-10.08-3.77-7.79-39.89-42.12-51.52-60.9-29.4C434.8,132.33,418.32,133,422,161.12Z"/><path class="cls-6" d="M494.28,222.14l.94,12.37.77,10.23.15,2.18s2.34-.12,6.15-.48l3.24-.34c4.74-.53,10.86-1.36,17.32-2.64l3.41-.72A109.9,109.9,0,0,0,545,237V199.08a241.29,241.29,0,0,0-34.69-18.75l-6.71,6.59-1,.94-.77.77,3.74,2.61c5.69,4,16.67,11.93,23.86,17.82l1.06.89c3.51,3,5.86,5.42,5.76,6.43-.22,2-7.79,3-16.81,3.66-6.17.48-13,.84-18.75,1.31C498.25,221.58,496,221.86,494.28,222.14Z"/><path class="cls-4" d="M424.08,228.39c-2.08.51-4.16,1.08-6.22,1.71v31h87.91c0-4.48,0-8.52-.19-12,0-1-.08-2-.12-3a103.49,103.49,0,0,0-1-11.54c-1.38-8.53-2.83-11.83-3.73-13.18-.54-.83-.9-.9-.9-.9s-16.74-.56-31.23.34L467,221c-8.81.8-17.59,2-26.25,3.71-1.84.36-3.68.73-5.5,1.13C431.51,226.69,427.81,227.49,424.08,228.39Z"/><path class="cls-3" d="M462.68,160a.5.5,0,0,0,.34-.12C479.4,148,475.14,136.64,475,136.17a.6.6,0,0,0-.78-.34.58.58,0,0,0-.36.73l0,.05c.17.44,4.06,11-11.51,22.26a.58.58,0,0,0-.15.8l0,0A.58.58,0,0,0,462.68,160Z"/><path class="cls-3" d="M529.51,211.35a.62.62,0,0,0,.58-.39A13.05,13.05,0,0,0,529,200.12c-2.23-4-7.49-9.38-20-11.83-11.63-2.29-11.47-4.3-10.84-12.73a90.12,90.12,0,0,0-1.52-26.87c-1.91-9.49-6.19-16.19-12.75-19.94-11.54-6.58-25.82-1.7-26.44-1.5a.62.62,0,0,0-.37.79.61.61,0,0,0,.78.37c.14,0,14.39-4.89,25.43,1.42,6.24,3.54,10.33,10,12.16,19.1a89.57,89.57,0,0,1,1.5,26.54c-.65,8.62-.86,11.52,11.82,14,11.94,2.35,17.05,7.42,19.13,11.23a11.91,11.91,0,0,1,1,9.8.6.6,0,0,0,.33.78h0Z"/><path class="cls-6" d="M439.86,225.6s5.25,8.3,23.86,11.67c0,0,9.65-5.66,6-13.31,0,0-3.69-1.26-4.09-8.52a41,41,0,0,1,1.84-13.12l-21.19-14.46s.14.63.32,1.71C447.77,195.82,450.46,216.56,439.86,225.6Z"/><path class="cls-6" d="M463.26,138.06c19.72-.73,26.45,9.59,28.65,29.86,2.73,25.33-2.23,43.56-27.08,39.05C431.07,200.78,430.52,139.2,463.26,138.06Z"/><path class="cls-8" d="M479.11,167.24a42.65,42.65,0,0,0,6.05,8,5.43,5.43,0,0,1-5.11,2.42Z"/><path class="cls-3" d="M467,166.06c.1,1.62-.7,3-1.7,3.05s-2.05-1.19-2.13-2.81.7-3,1.7-3.05S466.89,164.44,467,166.06Z"/><path class="cls-3" d="M464.42,163.35l3.41-1.58S466.28,164.83,464.42,163.35Z"/><path class="cls-3" d="M487.09,164.51c.1,1.62-.7,3-1.7,3.05s-2-1.19-2.13-2.81.69-3,1.7-3S487,162.91,487.09,164.51Z"/><path class="cls-3" d="M484.52,161.82l3.41-1.6S486.37,163.28,484.52,161.82Z"/><path class="cls-3" d="M457.86,156.64a.87.87,0,0,0,.7-.36c2.55-3.41,7.6-2.95,7.65-2.95a.88.88,0,0,0,1-.78.91.91,0,0,0-.8-1c-.25,0-6.1-.51-9.24,3.65a.89.89,0,0,0,.72,1.42Z"/><path class="cls-3" d="M488.52,153.4a.89.89,0,0,0,.46-1.71,10.06,10.06,0,0,0-8.72-1.39.91.91,0,0,0-.52,1.19.92.92,0,0,0,1.2.51,8.39,8.39,0,0,1,7.12,1.26A.71.71,0,0,0,488.52,153.4Z"/><path class="cls-3" d="M443,172s8.62-16.54,6.81-29c0,0,38.49-17.4,41.86,22.16,0,0,2.53-35.35-31.39-34.89s-32,50-13.91,64.17C446.27,194.51,437.61,182.37,443,172Z"/><path class="cls-6" d="M446.3,176.07a8.63,8.63,0,0,0-9.59-7.55c-6.09.88-8.52,13.53,6.82,16C445.67,184.86,446.83,182.68,446.3,176.07Z"/><path class="cls-3" d="M477.75,187a10.65,10.65,0,0,0,2.18-.19.87.87,0,0,0,.67-1,.88.88,0,0,0-1-.68h0c-.3,0-7.46,1.47-10.38-5.11a.85.85,0,0,0-1.56.7A10.5,10.5,0,0,0,477.75,187Z"/><path class="cls-3" d="M458.76,199.42h2.63a.61.61,0,0,0,.7-.51.6.6,0,0,0-.5-.7.67.67,0,0,0-.2,0c-9.79.46-16.89-1.71-21.12-6.33a17.86,17.86,0,0,1-4.13-13.31.6.6,0,0,0-.51-.68.64.64,0,0,0-.7.51,18.8,18.8,0,0,0,4.45,14.3C443.39,197.17,450,199.42,458.76,199.42Z"/><polygon class="cls-3" points="134.8 137.43 197.51 100.94 245.81 100.94 309.57 135.69 309.57 372.14 134.8 372.14 134.8 137.43"/><path class="cls-2" d="M311.36,372.14H134.8V137.43l1.71-1.71A124.24,124.24,0,0,1,223,101h0a124.3,124.3,0,0,1,86.5,34.75l1.79,1.71ZM146.58,360.42H299.72v-218a113.28,113.28,0,0,0-153.14,0Z"/><polygon class="cls-6" points="218.69 361.83 227.47 361.83 227.47 283.36 301.87 283.36 301.87 274.58 227.47 274.58 227.47 194.32 301.87 194.32 301.87 185.54 227.47 185.54 227.47 111.14 218.69 111.14 218.69 185.54 144.3 185.54 144.3 194.32 218.69 194.32 218.69 274.58 144.3 274.58 144.3 283.36 218.69 283.36 218.69 361.83"/><path class="cls-6" d="M317.23,378H128.94V135l1.7-1.7a130.84,130.84,0,0,1,184.85,0l1.7,1.7ZM140.65,366.28H305.52V139.92a119.13,119.13,0,0,0-164.87,0Z"/></g><g id="freepik--Shadow--inject-9"><ellipse id="freepik--path--inject-9" class="cls-5" cx="426.11" cy="615.71" rx="330.47" ry="19.29"/></g><g id="freepik--character-2--inject-9"><path class="cls-9" d="M354.78,259.07c-1.79,1.14-3.29,2-5,2.88s-3.29,1.71-5,2.54a87.45,87.45,0,0,1-10.57,4.21,57.34,57.34,0,0,1-11.93,2.66,33.69,33.69,0,0,1-6.81.09,30.74,30.74,0,0,1-3.84-.63,21,21,0,0,1-2.33-.74,18.83,18.83,0,0,1-1.9-.83,34.4,34.4,0,0,1-5.57-3.6c-1.58-1.23-3-2.47-4.41-3.71-2.75-2.56-5.29-5.12-7.69-7.79a153.31,153.31,0,0,1-13.24-16.72l7-6.34c5.3,4.24,10.62,8.64,15.88,12.74,2.64,2,5.29,4.06,7.91,5.85,1.3.9,2.61,1.71,3.87,2.51a20.46,20.46,0,0,0,3.41,1.7l.51.15h1.45a19.55,19.55,0,0,0,3.41-.46,50.43,50.43,0,0,0,8.14-2.52c2.82-1.11,5.68-2.4,8.53-3.8,1.41-.68,2.84-1.4,4.24-2.15l4.06-2.2Z"/><path class="cls-10" d="M358.85,231.63c-6.29.58-32.38,18-32.38,18L337.75,269l22.84-10s-3.29-3.73-1.71-12.53A39,39,0,0,0,358.85,231.63Z"/><path class="cls-11" d="M360.59,259.07l-1.13.5-5.11,2.25L349,264.19h-.2l-3.15,1.34-3.19,1.37-4.72,2-11.3-19.43s5.67-3.76,12.36-7.85c1.82-1.15,3.75-2.29,5.62-3.41h0l.34-.19a2.55,2.55,0,0,0,.39-.24c5.76-3.31,11.22-6.08,13.64-6.31a39.11,39.11,0,0,1,0,14.94,25,25,0,0,0-.43,4.65h0a17.07,17.07,0,0,0,.63,4.6A9.1,9.1,0,0,0,360.59,259.07Z"/><path class="cls-11" d="M340.54,241.65s-1.5,5.12.82,4.88,2.51-5.12,2.51-5.12,2.25,3.31,3.82.35-2.65-3.41-3.24-3.41h0c-1.89,1.1-3.8,2.25-5.64,3.41A7.16,7.16,0,0,0,340.54,241.65Z"/><path class="cls-11" d="M338.36,261.05c.29,2.78,4.48,1.93,4.48,1.93a9.49,9.49,0,0,0-.37,4l3.19-1.34a12.32,12.32,0,0,0,.49-2.88s1.33,2,2.66,1.51H349a2.34,2.34,0,0,0,1-1.09c1.57-2.94-3.31-3.4-3.31-3.4s3.65-1.61,2.25-3.41-3.29,1.92-3.29,1.92-.37-3.3-2-2.95c-4.21.89-1,4.38-1,4.38S338.09,258.27,338.36,261.05Z"/><polygon class="cls-10" points="339.68 269.04 326.45 244.57 323.65 251.54 335.67 271.7 339.68 269.04"/><polygon class="cls-12" points="339.68 269.04 326.45 244.57 323.65 251.54 335.67 271.7 339.68 269.04"/><path class="cls-13" d="M360.59,259.07l-6.07,2.76c-2.83-8.77,3.12-16,3.12-16s.41,2.26.87,5.38h0c.22,1.42.44,3,.63,4.6C359.22,257.1,360.49,257.88,360.59,259.07Z"/><path class="cls-9" d="M426.92,217.47c6.19,3.9,12.41,8,18.46,11.93,3,2,6.09,4,8.92,5.71.68.42,1.36.82,1.82,1.07l.26.14h-.65a3.86,3.86,0,0,0-1,0,5.19,5.19,0,0,0-1.24.15,1.82,1.82,0,0,0-.77.33H453a11.59,11.59,0,0,0,1.35-1,64.9,64.9,0,0,0,6.82-7c2.3-2.68,4.53-5.51,6.81-8.37,4.49-5.73,8.92-11.71,13.38-17.56l8.2,4.64A200.35,200.35,0,0,1,479.49,228c-1.86,3.41-3.85,6.67-6,10a67.15,67.15,0,0,1-7.72,9.9,24.43,24.43,0,0,1-2.93,2.63,18.53,18.53,0,0,1-2.13,1.39,13.88,13.88,0,0,1-3.41,1.33,9.9,9.9,0,0,1-1.21.22,6.14,6.14,0,0,0-1.41.11,4.66,4.66,0,0,1-1.71-.12l-1.12-.24-.55-.14-.34-.1-.65-.2-1-.38c-1.24-.48-2.24-.92-3.2-1.36-3.78-1.71-7.11-3.6-10.46-5.49-6.67-3.75-13-7.76-19.26-12.07Z"/><path class="cls-10" d="M445.28,294.49,436,299l-3,1.43-43.26,20.93c-2.16-2.86-4.21-5.82-6.13-8.82-.73-1.11-1.42-2.22-2.11-3.33h0c-.77-1.26-1.5-2.5-2.24-3.76-3.12-5.41-5.91-10.88-8.38-16.28-.7-1.5-1.37-3-2-4.47-1.93-4.43-3.65-8.76-5.12-12.92-1.16-3.1-2.2-6.1-3.15-9h0a238.66,238.66,0,0,1-7.82-29.15s1.87-1.21,5.19-3l1-.53c1.33-.72,2.81-1.47,4.39-2.22,2.07-1,4.35-2,6.67-3a248.82,248.82,0,0,1,27.27-8.24c3.66-.93,7.43-1.71,10.79-2.22l3.13-.49c4-.6,7-.91,8-1h.37a1.68,1.68,0,0,0,.09.65h0v.53h0a291.62,291.62,0,0,0,10,46.19h0c.36,1.12.7,2.21,1.06,3.27a1.93,1.93,0,0,0,.17.53c.36,1.07.73,2.11,1.07,3.12l.12.34h0c.51,1.46,1,2.84,1.54,4.17h0C440,287.79,445.28,294.49,445.28,294.49Z"/><path class="cls-11" d="M389.78,321.35l55.5-26.86s-17.38-22.05-25.57-81.62c0,0-3.4.32-8.35,1-4,.61-9.08,1.5-13.92,2.71a248.82,248.82,0,0,0-27.27,8.24c-4.08,1.71-8,3.58-11.07,5.22-3.92,2.1-6.17,3.56-6.17,3.56S361.9,284.25,389.78,321.35Z"/><path class="cls-11" d="M406.71,256.12c4.19.92,1,4.4,1,4.4s4.57-1.43,4.28,1.35-4.47,1.92-4.47,1.92,1.52,5.12-.8,4.88-2.51-5.11-2.51-5.11-2.26,3.4-3.81.35,3.3-3.41,3.3-3.41-3.64-1.6-2.26-3.4,3.3,1.9,3.3,1.9S405.11,255.78,406.71,256.12Z"/><path class="cls-11" d="M429.51,260.66a1.52,1.52,0,0,1,.4-.36c.35,1.12.7,2.22,1,3.27C430,263,428.58,261.85,429.51,260.66Z"/><path class="cls-11" d="M431.22,264.19c.36,1.07.73,2.11,1.07,3.11-.44.58-2.35,2.83-3.73.24C427.28,265.17,429.87,264.37,431.22,264.19Z"/><path class="cls-11" d="M433.86,271.75a7,7,0,0,1-1.53-4.17C432.92,269,433.35,270.42,433.86,271.75Z"/><path class="cls-11" d="M367.8,265.89c-.29,2.78-4.47,1.91-4.47,1.91a9.93,9.93,0,0,1,.41,3.87c-1.16-3.1-2.2-6.1-3.15-9h0c.19-.87.7-2.81,1.94-2.55,4.19.92,1,4.39,1,4.39S368.16,263.16,367.8,265.89Z"/><path class="cls-11" d="M372.35,237.77c4.21.9,1,4.38,1,4.38s4.58-1.43,4.29,1.36-4.46,1.91-4.46,1.91,1.51,5.11-.82,4.87-2.49-5.11-2.49-5.11-2.27,3.31-3.84.36,3.31-3.41,3.31-3.41-3.63-1.6-2.25-3.41,3.31,1.91,3.31,1.91S370.75,237.41,372.35,237.77Z"/><path class="cls-11" d="M396.88,281.89c4.19.91,1,4.38,1,4.38s4.59-1.43,4.3,1.37-4.47,1.91-4.47,1.91,1.52,5.11-.81,4.87-2.49-5.11-2.49-5.11-2.27,3.31-3.84.34,3.31-3.41,3.31-3.41-3.65-1.6-2.25-3.41,3.29,1.91,3.29,1.91S395.27,281.54,396.88,281.89Z"/><path class="cls-11" d="M440.08,295.17c-.3,2.8-4.46,1.93-4.46,1.93A14.78,14.78,0,0,1,436,299l-3,1.43a10.69,10.69,0,0,1-.75-3.4s-2.25,3.3-3.81.34,3.3-3.41,3.3-3.41-3.63-1.6-2.27-3.41,3.31,1.91,3.31,1.91.38-3.31,2-2.95c4.19.9,1,4.38,1,4.38S440.35,292.39,440.08,295.17Z"/><path class="cls-11" d="M381.54,309.17c-.77-1.27-1.5-2.51-2.24-3.77a1.21,1.21,0,0,1,1.25-.63C384.52,305.64,381.79,308.84,381.54,309.17Z"/><path class="cls-11" d="M385.8,310.53a2.23,2.23,0,0,1-2.15,2c-.73-1.11-1.42-2.22-2.11-3.33C381.89,309.06,386.09,307.87,385.8,310.53Z"/><path class="cls-11" d="M406.71,228.5c4.19.9,1,4.38,1,4.38s4.57-1.44,4.28,1.36-4.47,1.91-4.47,1.91,1.52,5.11-.8,4.87-2.51-5.11-2.51-5.11-2.26,3.31-3.81.36,3.3-3.41,3.3-3.41-3.64-1.6-2.26-3.41,3.3,1.91,3.3,1.91S405.11,228.14,406.71,228.5Z"/><path class="cls-11" d="M419.88,214.08h0v.17c-.27,2.79-4.46,1.92-4.46,1.92s1.52,5.12-.82,4.88-2.49-5.12-2.49-5.12-2.26,3.41-3.83.36a1.83,1.83,0,0,1,0-2l3.13-.49c4-.6,7-.91,8-1a1,1,0,0,1,.46.62h0A6,6,0,0,0,419.88,214.08Z"/><path class="cls-11" d="M420.14,244.82c2.73.58.65,2.85.65,2.85s3-.94,2.78.87-2.9,1.24-2.9,1.24,1,3.29-.53,3.17-1.62-3.27-1.62-3.27-1.46,2.15-2.49.22,2.15-2.23,2.15-2.23-2.35-1-1.47-2.18,2.15,1.24,2.15,1.24S419.1,244.58,420.14,244.82Z"/><path class="cls-11" d="M410.34,297.92c2.73.59.63,2.84.63,2.84s3-.92,2.8.89-2.9,1.24-2.9,1.24,1,3.28-.53,3.16-1.62-3.28-1.62-3.28-1.47,2.15-2.49.23,2.15-2.24,2.15-2.24-2.37-1-1.47-2.16,2.15,1.24,2.15,1.24S409.3,297.69,410.34,297.92Z"/><path class="cls-11" d="M389.9,243.53c2.73.59.65,2.84.65,2.84s3-.92,2.78.89-2.9,1.24-2.9,1.24,1,3.28-.53,3.16-1.62-3.27-1.62-3.27-1.46,2.14-2.48.22,2.14-2.24,2.14-2.24-2.37-1-1.46-2.16,2.13,1.23,2.13,1.23S388.86,243.31,389.9,243.53Z"/><path class="cls-11" d="M379.9,264.61c2.71.6.63,2.85.63,2.85s3-.94,2.78.88-2.9,1.23-2.9,1.23,1,3.29-.51,3.17-1.71-3.27-1.71-3.27-1.46,2.15-2.47.22,2.15-2.23,2.15-2.23-2.37-1-1.47-2.17,2.14,1.23,2.14,1.23S378.86,264.39,379.9,264.61Z"/><path class="cls-11" d="M365.72,229.52c-.21,1.79-2.92,1.22-2.92,1.22s1,3.28-.52,3.18-1.71-3.28-1.71-3.28-1.45,2.15-2.47.22a.69.69,0,0,1-.1-.25l1-.53c1.33-.72,2.81-1.47,4.4-2.22a6.52,6.52,0,0,1-.5.75C363.28,228.53,365.87,227.81,365.72,229.52Z"/><path class="cls-11" d="M418.23,277.82c2.71.6.63,2.85.63,2.85s3-.92,2.8.88-2.9,1.25-2.9,1.25,1,3.27-.53,3.15-1.62-3.27-1.62-3.27-1.48,2.15-2.49.22,2.15-2.23,2.15-2.23-2.37-1-1.46-2.17,2.13,1.25,2.13,1.25S417.19,277.58,418.23,277.82Z"/><path class="cls-11" d="M373.27,287.83c-.14,1.26-1.52,1.34-2.3,1.29-.7-1.5-1.37-3-2-4.46.18-.38.47-.65.87-.57,2.52.55.93,2.51.69,2.83C370.8,286.84,373.37,286.14,373.27,287.83Z"/><path class="cls-9" d="M285.35,232.47l-10.84-13L266,233.34s12.14,10.6,16.14,7.53Z"/><polygon class="cls-9" points="259.35 218.97 255.95 230.16 266.03 233.34 274.51 219.43 259.35 218.97"/><polygon class="cls-14" points="387.65 606.47 373.56 604.7 374.74 596.55 377.94 574.42 392.03 576.18 388.51 600.64 387.65 606.47"/><polygon class="cls-14" points="463.4 607.51 449.71 606.96 449.71 603.86 449.71 603.47 449.81 583.6 449.81 583.2 449.83 575.58 463.54 576.13 463.4 607.51"/><polygon class="cls-13" points="392.03 576.18 388.51 600.64 374.74 596.55 377.94 574.42 392.03 576.18"/><polygon class="cls-13" points="463.72 597.38 463.7 597.38 450.04 595.8 450.02 595.8 449.76 584.29 449.78 584.29 463.48 585.5 463.7 597.02 463.72 597.38"/><path class="cls-15" d="M449,605.07h16.64a1.23,1.23,0,0,1,1.15.95l2.71,12.19a2,2,0,0,1-1.56,2.4,1.7,1.7,0,0,1-.45,0c-5.38-.08-9.3-.4-16-.4-4.16,0-16.72.42-22.48.42s-6.5-5.67-4.15-6.2c10.55-2.29,18.5-5.49,21.89-8.52A3.37,3.37,0,0,1,449,605.07Z"/><path class="cls-15" d="M373.27,604.64H389.9a1.24,1.24,0,0,1,1.18.94l2.69,12.21a2,2,0,0,1-1.51,2.37h-.48c-5.39-.08-9.31-.42-16.07-.42-4.16,0-16.72.44-22.49.44s-6.49-5.68-4.14-6.21c10.57-2.3,18.51-5.48,21.89-8.52A3.29,3.29,0,0,1,373.27,604.64Z"/><path class="cls-10" d="M364.2,605.68a1.7,1.7,0,0,1,.15-1.62,1.06,1.06,0,0,1,.91-.57c1.7-.11,4.28,3.3,4.57,3.69a.33.33,0,0,1,0,.33.29.29,0,0,1-.28.15,16.61,16.61,0,0,1-3.41-.61A3.38,3.38,0,0,1,364.2,605.68Zm1.09-1.62a.57.57,0,0,0-.44.29,1.1,1.1,0,0,0-.12,1.08c.37.73,1.93,1.31,4.21,1.57-1.11-1.33-2.76-3-3.65-2.94Z"/><path class="cls-10" d="M369.38,607.56c-1-1.09-1.94-4.18-1.24-5.39a1.11,1.11,0,0,1,1.28-.51,1.46,1.46,0,0,1,1.05.77c.84,1.55-.54,4.91-.61,5.11a.25.25,0,0,1-.22.17h-.14A.3.3,0,0,1,369.38,607.56Zm0-5.32c-.42,0-.58,0-.66.22a5.83,5.83,0,0,0,.87,4.3,6.58,6.58,0,0,0,.44-4.06.89.89,0,0,0-.51-.42Z"/><path class="cls-10" d="M440.05,605.68a1.56,1.56,0,0,1,.15-1.62,1,1,0,0,1,.9-.57c1.71-.11,4.28,3.3,4.57,3.69a.29.29,0,0,1,0,.33.28.28,0,0,1-.27.15,16.19,16.19,0,0,1-3.32-.61A3.39,3.39,0,0,1,440.05,605.68Zm1.09-1.62a.55.55,0,0,0-.44.29,1.08,1.08,0,0,0-.12,1.08c.37.73,1.92,1.31,4.21,1.57-1.11-1.33-2.76-3-3.65-2.94Z"/><path class="cls-10" d="M445.21,607.56c-.95-1.09-1.92-4.18-1.22-5.39a1.1,1.1,0,0,1,1.27-.51,1.5,1.5,0,0,1,1.06.77c.84,1.55-.55,4.91-.61,5.11a.26.26,0,0,1-.22.17h-.14Zm0-5.32c-.42,0-.58,0-.66.22a5.83,5.83,0,0,0,.87,4.3,6.66,6.66,0,0,0,.44-4.06.83.83,0,0,0-.53-.42Z"/><path class="cls-9" d="M481.53,202.72l7.38-8.89,5.63,16.43s-9.24,8.43-14.73,1Z"/><polygon class="cls-9" points="501.85 192.74 505.82 206.53 494.52 210.26 488.93 193.83 501.85 192.74"/><path class="cls-15" d="M466.89,586.2,448,581.8,431.83,378.52l-10.12,52.53L392,584.74l-16.45-5.12,18.15-234.1-3.94-24.19,55.5-26.84s16.74,13,25.17,46S466.89,586.2,466.89,586.2Z"/><polygon class="cls-10" points="371.68 577.56 371.34 583.29 394.45 588.71 395.65 583.61 371.68 577.56"/><polygon class="cls-10" points="444.63 580.94 446.51 586.32 466.35 587.86 468.05 582.74 444.63 580.94"/><path class="cls-10" d="M361.9,241.91s-1.81-14.86,15.49-24.15,31.11.13,35.06,9.76l-12.85-2.67s-5.49,7.28-12.9,9.13c-16.89,4.26-17.66,1-17.66,1Z"/><path class="cls-12" d="M361.9,241.91s-1.81-14.86,15.49-24.15,31.11.13,35.06,9.76l-12.85-2.67s-5.49,7.28-12.9,9.13c-16.89,4.26-17.66,1-17.66,1Z"/><path class="cls-9" d="M388.61,189.19l-5.47,8.27-7.47,11.28a31.93,31.93,0,0,1,1.84,3.82c2.17,5.25,1.33,7.53-6,11.81-3.72,3.51-4.43,8.88,4.19,11.64l9,16.94,2.14-19c18.21-13.09,11.82-17.62,11.82-17.62C390.79,212.29,389.15,198.6,388.61,189.19Z"/><path class="cls-13" d="M375.59,208.74a33.54,33.54,0,0,1,1.84,3.82c3.49-1.86,7.26-7.31,6.63-11.27a18.8,18.8,0,0,0-1-3.83Z"/><path class="cls-15" d="M389.24,190.16s4.48.77,5-1.82-1.7-5.69,0-6.9,5.85-2.58,4.88-4.84-4.18-3.41-2.83-5.41,4.43-5.32,2.23-6.64-4.65-3.89-3.54-5.41-2.65-7.19-6.23-5.66-3.85-1.7-4.55-4.31-6.81-3.29-7.41-.24-4.35.53-5.83-1.6-3.32-2.45-6.14.22-1.61,8.37-4.31,5.66-7.09-3.6-8.38-1.23.49,4.32-2.44,5.12-5.39,7.16-3.68,7.55,1.91,1.89.42,4-3,5.42,0,5.83,3.31,2.27,2.78,3.26,2.87,4,6.24,2.73S389.24,190.16,389.24,190.16Z"/><path class="cls-15" d="M349.05,166.08s-1.84,17.5,7.69,23.76,8-26.08,8-26.08Z"/><path class="cls-9" d="M384.14,202.43a15.77,15.77,0,0,1-17.83,6.94,17.53,17.53,0,0,1-10.39-7.7A15.61,15.61,0,0,1,355,200c-5-10.41-7.31-29,3.59-36.39a17,17,0,0,1,23.75,4.12l.12.16a17,17,0,0,1,2.91,7.4C387.25,187.67,389,194.85,384.14,202.43Z"/><path class="cls-15" d="M367.51,182.78c.27,1-.14,1.91-.79,2.06s-1.36-.56-1.58-1.55.15-1.91.78-2.06S367.27,181.78,367.51,182.78Z"/><path class="cls-15" d="M356.22,185.24c.29,1-.13,1.92-.78,2.06s-1.35-.56-1.58-1.55.15-1.91.8-2.06S356.05,184.3,356.22,185.24Z"/><path class="cls-16" d="M359.94,185a36.55,36.55,0,0,1-2.9,9.54,5.94,5.94,0,0,0,5-.13Z"/><path class="cls-15" d="M351.11,181.52a.62.62,0,0,0,.6-.19,4.79,4.79,0,0,1,4-1.7.6.6,0,0,0,.71-.45.61.61,0,0,0-.45-.72h-.07a5.9,5.9,0,0,0-5.12,2.07.6.6,0,0,0,0,.83h0A1,1,0,0,0,351.11,181.52Z"/><path class="cls-15" d="M368.73,177.84a.71.71,0,0,0,.31-.19.59.59,0,0,0-.21-.81h0a5.93,5.93,0,0,0-5.45-.25.59.59,0,0,0-.24.8h0a.63.63,0,0,0,.8.26h0a4.76,4.76,0,0,1,4.33.25A.59.59,0,0,0,368.73,177.84Z"/><path class="cls-15" d="M373,162l-.68,2.52c4.3.65,4.3,5.51,3.84,7.79-1,4.86,2.81,11.51,6.81,13.76,0,0-.22-2,1.54-1.83s2.71,8.87,2.71,8.87,2.06,1.9,3-9.4c.89-10.44-.2-18.85-2.91-22.36Z"/><path class="cls-9" d="M392.82,184.18a11.9,11.9,0,0,1-5.37,7.33c-3.58,2.13-6.48-.8-6.41-4.76.1-3.51,2-9,6.09-9.47a5.3,5.3,0,0,1,5.9,4.65A5.36,5.36,0,0,1,392.82,184.18Z"/><path class="cls-15" d="M364.53,198.36a35.61,35.61,0,0,1,3.83,3.84l.8-.5c3.67-2.3,4.62-4.58,4.55-6.41a5.63,5.63,0,0,0-.78-2.52,5.33,5.33,0,0,0-.91-1.21,20.22,20.22,0,0,1-6.25,6C365,198.07,364.53,198.36,364.53,198.36Z"/><path class="cls-4" d="M365.77,197.56l1.16,1.11c3.41-2.18,5.57-4.18,6-5.9a5.33,5.33,0,0,0-.91-1.21A20.22,20.22,0,0,1,365.77,197.56Z"/><path class="cls-17" d="M369.16,201.7c3.67-2.3,4.62-4.58,4.55-6.41a13.91,13.91,0,0,0-3.56,3.41A5.3,5.3,0,0,0,369.16,201.7Z"/><path class="cls-15" d="M362.22,157.57s-6.46,2-8.93,5.63-3.41,8.52-2.14,8.52,4.1-2.93,5.11-2.78,2.54,5.29,5.27,2.56.9-2.15,3.4-3.61,4.93,1.39,6,.83a7.18,7.18,0,0,0,2-1.7s-3.86-.12-4.4-1.16-4.09-.63-4.09-.63,3.77-2.7,5.44-1.91,1.7,3.61,5.11,2.5,9.63.29,8.86-4.22S369.13,152.34,362.22,157.57Z"/><path class="cls-15" d="M366.33,193.26s2.35-4.75,4.33-4.87,11.13,11.5,10.38,14.4-5.23,7.54-9.6,6.62S360.67,198.74,361,197.47s3.5-2.48,3.5-2.48l.54,1.09s-3.17.78-3.05,2.43,6.32,9.17,8.52,9.29a2.35,2.35,0,0,0,1.71-4.19l1.38-.92a6,6,0,0,0,3.22,1.28c1.4-.12,2.78-1.26,2.44-2.25s-6.46-10.33-8.32-11.42-3.41,3.92-3.41,3.92Z"/><path d="M398.05,325l27.51-13.09a53.14,53.14,0,0,0-4-4.6l-25.35,12.3C396.81,321.44,397.4,323.23,398.05,325Z"/><path d="M394.27,320.6l-4.81,2.34,1.47,5.42L396,325.9C395.43,324.15,394.86,322.37,394.27,320.6Z"/><path d="M446.68,302l4.07-1.92L447,294.93l-4.52,2.2C443.92,298.77,445.3,300.37,446.68,302Z"/><path d="M440.53,298.15l-16.95,8.24q2.09,2.24,3.94,4.65l17.15-8.11C443.3,301.34,441.92,299.74,440.53,298.15Z"/><polygon class="cls-4" points="401.43 317.13 409.18 313.38 411.98 318.4 404.48 321.95 401.43 317.13"/><path class="cls-18" d="M431.83,378.52l-10.12,52.53c-8.44-27.94-3.92-63.18-3.92-63.18Z"/><path class="cls-10" d="M419.29,212.9c6.29.56,32.38,18,32.38,18l-11.3,19.43-15.92-6.82a59.64,59.64,0,0,1-5.11-15.68A39,39,0,0,1,419.29,212.9Z"/><path class="cls-11" d="M451.67,230.88l-11.28,19.43-4.74-2-3.19-1.36-3.15-1.35h-.19l-4.67-2a59.78,59.78,0,0,1-5.11-15.7,39,39,0,0,1,0-14.91c2.45.22,7.91,3,13.63,6.3a3.26,3.26,0,0,0,.4.24l.34.19h0c1.89,1.11,3.8,2.25,5.64,3.41C446.06,227.11,451.67,230.88,451.67,230.88Z"/><path class="cls-11" d="M437.63,222.9s1.51,5.12-.8,4.88-2.51-5.11-2.51-5.11-2.25,3.3-3.82.35,2.65-3.41,3.24-3.41h0c1.89,1.11,3.8,2.25,5.64,3.41A6.46,6.46,0,0,1,437.63,222.9Z"/><path class="cls-11" d="M439.74,242.32c-.27,2.78-4.46,1.91-4.46,1.91a9.58,9.58,0,0,1,.37,4.05l-3.19-1.36a12.07,12.07,0,0,1-.49-2.86s-1.35,1.94-2.66,1.51h-.19a2.34,2.34,0,0,1-1-1.09c-1.57-3,3.31-3.41,3.31-3.41s-3.65-1.6-2.25-3.41,3.29,1.91,3.29,1.91.37-3.3,2-2.94c4.21.9,1,4.38,1,4.38S440.1,239.52,439.74,242.32Z"/><polygon class="cls-10" points="438.51 250.31 451.74 225.84 454.54 232.79 442.52 252.95 438.51 250.31"/><polygon class="cls-12" points="438.51 250.31 451.74 225.84 454.54 232.79 442.52 252.95 438.51 250.31"/><path class="cls-10" d="M523.26,306.06a97.31,97.31,0,0,1-3.41-17.33c-.75-5.68-1.4-11.4-1.71-17.18-.51-1-1-2.06-1.43-3.14a110.75,110.75,0,0,1-7.09-23.72,122.83,122.83,0,0,1-.54-26.83v-.15c-5.12-12.26-10.57-22.16-16.84-21.14-3.17.43-13.74,32.39-17.52,61.36-.16,13.41-1.32,27.12-2.61,40.17-1.08,10.72-2.58,21.38-4.21,32.08-.79,5.11-1.13,10.69-2.15,15.8a34.93,34.93,0,0,1-3.1,8.52c4.28,11.93,14.79,21.38,14.78,21.31-.57,22.85-3.53,49.1-3.41,49.19s9.37,10.58,19.85,4.19c10.5-5.71,35.3,5.49,44.92-4.5,9.57-9.29-7-20.15,0-21.42s10.22-11,10.22-11a188.6,188.6,0,0,1-15.2-18.75C527.69,365.56,522.64,334.2,523.26,306.06Z"/><path class="cls-19" d="M523.26,306.06a97.31,97.31,0,0,1-3.41-17.33c-.75-5.68-1.4-11.4-1.71-17.18-.51-1-1-2.06-1.43-3.14a110.75,110.75,0,0,1-7.09-23.72,122.83,122.83,0,0,1-.54-26.83v-.15c-5.12-12.28-10.57-22.16-16.84-21.16-3.17.43-13.74,32.39-17.52,61.36-.16,13.43-1.32,27.12-2.61,40.18-1.08,10.72-2.58,21.37-4.21,32.07-.79,5.12-1.13,10.69-2.15,15.8a35,35,0,0,1-3.1,8.53c4.28,11.93,14.79,21.37,14.78,21.3-.57,22.86-3.52,49.11-3.41,49.21s9.35,10.57,19.85,4.17c10.52-5.69,35.3,5.47,44.92-4.5,9.57-9.29-7-20.16,0-21.42S549,392.2,549,392.26a188.79,188.79,0,0,1-15.22-18.75C527.69,365.56,522.64,334.2,523.26,306.06Z"/><path class="cls-13" d="M529.91,382.17l-.31-.82A1,1,0,0,1,529.91,382.17Z"/><path class="cls-20" d="M485.08,359.72c4.92,6.54,5.38-38.61,2.9-66.47-4.55-28.38.29-69.2,5.83-76.26-1.1-.46-15,48.06-13.5,60.78C478.57,289.48,474.44,348,485.08,359.72Z"/><path class="cls-20" d="M537.3,394.64c-4.16.45-8.52.38-11.18-1-5.57-2.91,3.58-8.81,3.79-11.48l-.31-.82c-3.1-5.68-13.82-43.35-13.07-57-.72-14.78,2.67-40.27,2.93-40.19a317.66,317.66,0,0,0,2.4,42.94c1.3,15.73,6.51,45,9.6,49.12A53.91,53.91,0,0,1,537.3,394.64Z"/><path class="cls-13" d="M549,392.36s-3.4,9.76-10.22,11,9.61,12.12,0,21.43c-9.61,10-34.4-1.2-44.91,4.5-10.5,6.39-19.91-4.11-19.86-4.18s2.86-26.35,3.41-49.21q6.68,4.33,13.45,8.22c-.26,0-5.22-23.32,1.82-29.59,6.53-6.24,9,19.65,17.51,24.75,8.13,5,14.36-.15,18.74,1.7s-9.47,9.17-2.89,12.65S549,392.38,549,392.36Z"/><path class="cls-15" d="M147.31,616.3a158.14,158.14,0,0,1-35.09-3.85.88.88,0,1,1,.43-1.7c.54.15,55.49,13.9,92.65-11.76,19-13.15,30.25-34.35,33.4-63.07,4.62-42.13,7.08-92.38,9.46-141,3.62-73.6,6.82-137.17,16.35-156.08a.85.85,0,0,1,1.14-.37.89.89,0,0,1,.38,1.16c-9.45,18.58-12.7,85-16.16,155.37-2.39,48.63-4.86,98.86-9.48,141.08-3.2,29.18-14.67,50.79-34.09,64.24C188.05,613,165.67,616.3,147.31,616.3Z"/><path class="cls-11" d="M147.31,616.3a158.14,158.14,0,0,1-35.09-3.85.88.88,0,1,1,.43-1.7c.54.15,55.49,13.9,92.65-11.76,19-13.15,30.25-34.35,33.4-63.07,4.62-42.13,7.08-92.38,9.46-141,3.62-73.6,6.82-137.17,16.35-156.08a.85.85,0,0,1,1.14-.37.89.89,0,0,1,.38,1.16c-9.45,18.58-12.7,85-16.16,155.37-2.39,48.63-4.86,98.86-9.48,141.08-3.2,29.18-14.67,50.79-34.09,64.24C188.05,613,165.67,616.3,147.31,616.3Z"/><path class="cls-10" d="M277,225.09a12.35,12.35,0,1,0-5.91-24l-23.76-14.69-3.41,4.33,18.65,18.42a12.33,12.33,0,0,0,6.68,15.09,17.17,17.17,0,0,1-9.87,11c-2.8,1.12,4.5,6.82,6.42,6.56C270.2,241.36,274.86,230.68,277,225.09Z"/><path class="cls-12" d="M281,218a7.82,7.82,0,1,1-1.33-11A7.82,7.82,0,0,1,281,218Z"/><polygon class="cls-10" points="252.05 189.41 246.44 183.24 240.87 190.33 247.89 194.73 252.05 189.41"/><polygon class="cls-12" points="252.05 189.41 246.44 183.24 240.87 190.33 247.89 194.73 252.05 189.41"/></g><g id="freepik--Mirror--inject-9"><polygon class="cls-15" points="703.21 615.13 666.02 297.66 673.4 297.66 710.59 615.13 748.89 615.13 748.89 620.67 663.92 620.67 663.92 615.13 703.21 615.13"/><polygon class="cls-13" points="703.21 615.13 666.02 297.66 673.4 297.66 710.59 615.13 748.89 615.13 748.89 620.67 663.92 620.67 663.92 615.13 703.21 615.13"/><path class="cls-15" d="M670.72,183.21h0c33.36,0,53.68,39.47,45.38,88.15l-58.36,343c-.6,3.41-3,6.29-5.41,6.29h-112c-2.38,0-3.83-2.82-3.24-6.29l58.36-343C603.64,222.68,637.45,183.21,670.72,183.21Z"/><path class="cls-21" d="M601.2,271.36l-58,340.75H652.33l57.95-340.75c7.27-42.69-9.95-77.67-38.57-79.51-.8,0-1.6-.09-2.42-.09A42.11,42.11,0,0,0,657,193.67a54.66,54.66,0,0,0-10.11,4.4c-19.38,10.91-36.27,34.82-43.58,63.35Q602.08,266.33,601.2,271.36Z"/><path class="cls-15" d="M606.86,485.76a8.18,8.18,0,0,1,0,1,2.81,2.81,0,0,1,0,.41c-.61,5.66-4.86,10.22-9.46,10.22H562.75l1.7-10.32,1.71-10.15H600a6.33,6.33,0,0,1,3.7,1.4,8.59,8.59,0,0,1,2.93,4.93h0A10.63,10.63,0,0,1,606.86,485.76Z"/><path class="cls-15" d="M569.07,482.35a4.38,4.38,0,0,1-3.68,4.89,2.4,2.4,0,0,1-.88-.15l1.7-10.14,1.7-9.53.21-1.23v1.23c.17,3.41.37,6.68.56,9.53C568.82,478.94,569,480.77,569.07,482.35Z"/><path class="cls-15" d="M626.46,428.71a4.73,4.73,0,0,1-4.14,4.47h0l-3.68-.1h0c-3.26,0-7.33-.16-11.75-.21h-7.68c-9.91,0-20.05.38-25.57,1.42l1.07-6.28.52-3c9.83-1.7,23.24-1.84,34-1.5h0c5,.16,9.45.39,12.63.6h0l1.71.12a3.68,3.68,0,0,1,3,4.27A1.06,1.06,0,0,1,626.46,428.71Z"/><path class="cls-15" d="M629.26,589.73l-31-3.87L603,542.47H590.62l-4.79,43.37-31.89,3.89c-3.17.38-5.92,3.61-6.34,7.47L547,603h86.27l.64-5.77C634.37,593.26,632.34,590,629.26,589.73Z"/><path class="cls-22" d="M629.26,589.73l-31-3.87L603,542.47H590.62l-4.79,43.37-31.89,3.89c-3.17.38-5.92,3.61-6.34,7.47L547,603h86.27l.64-5.77C634.37,593.26,632.34,590,629.26,589.73Z"/><path class="cls-15" d="M557.69,610.05a13.41,13.41,0,0,1-.41,2.06H543.22l1.58-9.32a9.11,9.11,0,0,1,2.44-1.84,7.26,7.26,0,0,1,3.41-.87,6.51,6.51,0,0,1,5.32,2.81A10.15,10.15,0,0,1,557.69,610.05Z"/><path class="cls-15" d="M637.32,610.05a13.41,13.41,0,0,1-.41,2.06H621a8.87,8.87,0,0,1,0-2.06,12.36,12.36,0,0,1,3.26-7.16,8.27,8.27,0,0,1,6-2.81,6.07,6.07,0,0,1,3.22.88A9.13,9.13,0,0,1,637.32,610.05Z"/><path class="cls-15" d="M599,554.09h-6.74a4.36,4.36,0,0,1-4.47-4.25,4.47,4.47,0,0,1,0-.73l4.76-43.19h16.7l-4.76,43.19A5.7,5.7,0,0,1,599,554.09Z"/><path class="cls-23" d="M599,554.09h-6.74a4.36,4.36,0,0,1-4.47-4.25,4.47,4.47,0,0,1,0-.73l4.76-43.19h16.7l-4.76,43.19A5.7,5.7,0,0,1,599,554.09Z"/><path class="cls-15" d="M695.4,359.07l-.37,2.2-3,17.11-1,6.1-1.15,6.82-3.22,18.9-.37,2.15h0l-1.91,11.2-1.59,9.31-7.56,44.43h0l-3.11,18.22h0a16.83,16.83,0,0,1-1.5,1.7,38.26,38.26,0,0,1-3.56,3.53,20.37,20.37,0,0,1-2.2,1.71c-.37.29-.76.56-1.14.82a35.15,35.15,0,0,1-3.54,2.11c-.5.25-1,.51-1.52.73a27.67,27.67,0,0,1-11.18,2.47H560.76l2-11.43,1.7-10.33,1.7-10.14,1.71-9.53h38.3a.6.6,0,0,1,.12-.33l.24-.64a2,2,0,0,1,.15-.45l.65-1.79c.15-.42.3-.87.49-1.36.31-.85.65-1.82,1-2.88.12-.34.24-.68.38-1,1.8-5,4.31-11.93,7.24-20.11l.89-2.47.39-1.08.75-2.09h0c.85-2.36,1.7-4.79,2.62-7.28l.58-1.71,4-11.14.29-.84.29-.76,4.16-11.58,11.49-31.44a15.42,15.42,0,0,1,2.59-4.61A5.84,5.84,0,0,1,645,363a8.73,8.73,0,0,1,.68-.68h0L646,362l.34-.31h0l.68-.54h0l.72-.48h0a11.47,11.47,0,0,1,1.7-.8,6,6,0,0,1,.82-.27,5.54,5.54,0,0,1,.8-.21,5.93,5.93,0,0,1,.83-.12H695.4Z"/><path class="cls-11" d="M695.4,359.07l-.37,2.2-3,17.11-1,6.1-1.15,6.82-3.22,18.9-.37,2.15h0l-1.91,11.2-1.59,9.31-7.56,44.43h0l-3.11,18.22h0a16.83,16.83,0,0,1-1.5,1.7,38.26,38.26,0,0,1-3.56,3.53,20.37,20.37,0,0,1-2.2,1.71c-.37.29-.76.56-1.14.82a32.4,32.4,0,0,1-3.54,2.11c-.5.25-1,.51-1.52.73a26.71,26.71,0,0,1-3.12,1.19,26,26,0,0,1-8.06,1.3H560.76l2-11.44,1.7-10.33,1.7-10.14,1.71-9.52h38.3a.6.6,0,0,1,.12-.33l.24-.65a2.08,2.08,0,0,1,.15-.44l.65-1.79c.15-.42.3-.87.49-1.36.31-.85.65-1.83,1-2.88.12-.34.24-.68.38-1,1.8-5,4.31-11.93,7.24-20.11l.89-2.48.39-1.07.75-2.1h0c.85-2.35,1.7-4.79,2.62-7.27l.58-1.71,4-11.15L626,412l.29-.77,4.16-11.57,11.49-31.46a15.42,15.42,0,0,1,2.59-4.61A5.84,5.84,0,0,1,645,363a8.73,8.73,0,0,1,.68-.68h0L646,362l.34-.31h0l.68-.54h0l.72-.48h0a11.47,11.47,0,0,1,1.7-.8,6,6,0,0,1,.82-.27,5.54,5.54,0,0,1,.8-.21,5.93,5.93,0,0,1,.83-.12H695.4Z"/><path class="cls-13" d="M694.94,361.34l-2.94,17-1,6.1-1.15,6.82-3.22,18.9-.37,2.15h0l-3.41,11.15-2.75,9.42-13.44,44-4.18,13.63a27.23,27.23,0,0,0,.17-3.13,24.2,24.2,0,0,0-2.28-10.52,17.89,17.89,0,0,0-5.12-6.48h0a14.74,14.74,0,0,0-9-3H606.33a.56.56,0,0,1,.12-.32l.24-.65a1.91,1.91,0,0,1,.15-.44l.65-1.79c.15-.43.31-.87.49-1.37.31-.85.65-1.82,1-2.88.12-.34.24-.68.38-1,1.81-5,4.31-11.93,7.24-20.11.31-.8.6-1.7.91-2.47l.37-1.07.77-2.1h0c.85-2.35,1.7-4.79,2.62-7.28.21-.54.41-1.09.6-1.7,1.31-3.62,2.66-7.35,4-11.15l.31-.84.27-.76,4.18-11.58L642,368.16a15.93,15.93,0,0,1,2.56-4.57,10.74,10.74,0,0,1,1.21-1.31l.32-.31.34-.31h0l.68-.54h0l.72-.48h0a12.51,12.51,0,0,1,1.7-.8,6.55,6.55,0,0,1,.82-.27,5.9,5.9,0,0,1,.8-.21,6.07,6.07,0,0,1,.84-.12h37.38A8,8,0,0,1,694.94,361.34Z"/><path class="cls-10" d="M695.68,357l-.36,2.08-.38,2.2L692,378.38l-1,6.1-1.15,6.82-3.22,18.9c-2.81-.64-5.11-1.36-5.38-2.6-.7-3.41-.62-5.73-10.13-2s-4.79-5.11-16-5.69l-2.64-.12c-7.72-.3-17-.12-21.94,0h0l-3.41.1,14-31.48a22.57,22.57,0,0,1,3-5A15.9,15.9,0,0,1,656,357Z"/><path class="cls-19" d="M695.68,357l-.36,2.08-.38,2.2L692,378.38l-1,6.1-1.15,6.82-3.22,18.9c-2.81-.64-5.11-1.36-5.38-2.6-.7-3.41-.62-5.73-10.13-2s-4.79-5.11-16-5.69l-2.64-.12c-7.72-.3-17-.12-21.94,0h0l-3.41.1,14-31.48a22.57,22.57,0,0,1,3-5A15.9,15.9,0,0,1,656,357Z"/><path class="cls-24" d="M620,305.35l1.3-9.89,6.82,7.64s-1.93,7.57-6,9.1l-.65-.77A7.93,7.93,0,0,1,620,305.35Z"/><polygon class="cls-24" points="625.75 287.76 632.34 292.9 628.11 303.12 621.28 295.46 625.75 287.76"/><path class="cls-15" d="M639.58,285.42a22.35,22.35,0,0,1-9.51,12.7c-8,5.45-2.94,14.08-4.79,21.07s-12.88,14.6-6.22,19.77l6.46,2.66s-6.13-5.12-5.37-9.05c1.71-8.52,7.61-10,8.42-14.66,1.52-8.63-4.55-13.4.19-15.34S640.06,293.4,639.58,285.42Z"/><path class="cls-15" d="M614.51,332.91a3,3,0,0,1-1.53-.43.34.34,0,0,1,.32-.6h0a2.58,2.58,0,0,0,3.27-.69,7,7,0,0,0,.5-8.35c-2.46-3.85-5.29-14.83-1.71-21.22,1.83-3.27,5-4.86,9.5-4.86h.25c4.93,0,8.69-1.31,11.17-3.88a12.22,12.22,0,0,0,3.18-8.23.35.35,0,0,1,.33-.36h0a.34.34,0,0,1,.37.3v0a12.84,12.84,0,0,1-3.41,8.75c-2.62,2.71-6.54,4.09-11.67,4.09h-.43c-4.12,0-7.06,1.51-8.71,4.5-3.49,6.28-.39,17.23,1.71,20.45a7.65,7.65,0,0,1-.58,9.19A3.6,3.6,0,0,1,614.51,332.91Z"/><path class="cls-15" d="M607.42,334.24a.42.42,0,0,1-.27-.14.33.33,0,0,1,0-.46l0,0a11.07,11.07,0,0,0,2.81-2.94,8.81,8.81,0,0,0,.38-3.64v-3.3a66.9,66.9,0,0,1,.18-8c.7-7.09,4.23-13,9.21-15.46a22.17,22.17,0,0,1,6.54-1.71l1.71-.27a13.35,13.35,0,0,0,7.65-3.61.34.34,0,1,1,.49.48,13.77,13.77,0,0,1-8,3.8l-1.7.29a21.12,21.12,0,0,0-6.34,1.7c-4.77,2.35-8.15,8.06-8.83,14.91a70,70,0,0,0-.19,7.93v3.31a8.76,8.76,0,0,1-.44,3.93,11.14,11.14,0,0,1-3,3.21Z"/><path class="cls-15" d="M671.76,275.84a12.45,12.45,0,0,0-12.47-9c-10.23,0-19.72,7.51-20.28,17.14s-6.36,8.73-8.37,18,1.39,11.75,1.21,15.67-4.21,2.69-7.66,9.32-7.87,15.95,2.29,28.29,43,10.23,50.93,2.7,9.29-22,2.86-25.88-.12-3.3,1.57-12-4.31-12-3.05-19S683.71,276.46,671.76,275.84Z"/><path class="cls-25" d="M629.56,353.38c-1.7.15-3,.24-4.45.25s-2.84,0-4.27,0a71.64,71.64,0,0,1-8.53-.73,63.58,63.58,0,0,1-8.52-1.7,55.21,55.21,0,0,1-8.52-3.17h-.14a6.59,6.59,0,0,1-1.24-.77,8.67,8.67,0,0,1-2.74-4.09,9.36,9.36,0,0,1-.33-3.72,14.19,14.19,0,0,1,1.3-4.41,31.72,31.72,0,0,1,3.41-5.57,80.31,80.31,0,0,1,7.6-8.68c2.64-2.66,5.35-5.11,8.13-7.62s5.59-4.75,8.52-7a3.41,3.41,0,0,1,4.64,4.92h0c-2.31,2.69-4.67,5.42-6.92,8.17s-4.54,5.48-6.67,8.26a95.86,95.86,0,0,0-5.76,8.25,21.72,21.72,0,0,0-1.93,3.82c-.18.51-.22,1-.17.8a2.29,2.29,0,0,0-.1-1,4,4,0,0,0-1.21-1.87l-1.4-.84a52,52,0,0,0,6.6,1.81c2.32.42,4.65.8,7.06,1s4.82.36,7.26.41h3.66l3.41-.12h.39a6.83,6.83,0,0,1,.87,13.64Z"/><path class="cls-26" d="M657.19,460.69A7.61,7.61,0,0,1,657,462a38.92,38.92,0,0,1-2,8.52,29.17,29.17,0,0,1-2.33,5.12c-.29.49-.58,1-.89,1.43-.14.18-.27.39-.43.58a1.05,1.05,0,0,1-.2.27l-.58.75c-.26.34-.55.66-.84,1a8.7,8.7,0,0,1-.92.9,3.12,3.12,0,0,1-.46.43,8.82,8.82,0,0,1-.76.61l-.16.12a17.28,17.28,0,0,1-5.37,2.57,26,26,0,0,1-6.13,1,51.73,51.73,0,0,1-12.9-1.11h0c-2.29-.44-4.62-1-7-1.71-4.13-1.14-8.32-2.54-12.4-4.05L600,477h0l-1.25-.49c-8.2-3.26-15.66-6.72-21-9.05a37.44,37.44,0,0,0-7.45-2.75h-.43c-.39,0-1,.51-1.7,1.42l.54-3.26.68-4,4.16-24.44,1.08-6.28a104.76,104.76,0,0,1,24.54,3.28l1.18.32c1.92.46,3.49.92,4.6,1.26h0c.75.22,1.28.38,1.53.48h.19a.38.38,0,0,1,0-.15l.08-.4c.21-.92.65-2.91,1.21-5.11l.09-.34a2.17,2.17,0,0,1,.2-.82c.24-1,.5-2,.77-3,.44-1.71.89-3.21,1.28-4.33h0a1.47,1.47,0,0,1,.19-.53c1.51-4,8-5.4,15.23-5.66h0a135.68,135.68,0,0,1,24.4,1.94s1.36,3.7,2.93,9.41c.71,2.63,1.46,5.7,2.14,9A91.55,91.55,0,0,1,657.19,460.69Z"/><path class="cls-26" d="M623,484.06c-.24,0-1.11,0-4-.16h-4l-3.68-.18h-4.72l-3.68-.19h0l-1.71-.1-2.47-.14-16.05-.9s-.14,5.93-.36,15.44c0,3.41-.17,7.24-.27,11.43h0c-.53,21.5-1.33,52.14-2.19,77.76-.18,5.74-.37,11.23-.56,16.31a1.82,1.82,0,0,0,0,.33c0,1.14-.08,2.26-.13,3.4l-8,.57-.61-3.53q0-.36-.12-.72c-.56-3.41-1.42-8.52-2.47-14.88-2.46-14.91-5.9-36.37-8.83-56.52h0c-.33-2.14-.63-4.29-.92-6.4h0l.37-2.15h0l2.37-14h0l2-11.44,1.71-10.33,1.7-10.14L568,468l.2-1.23h0v-.1h0l.54-3.25.69-4,.46-.15A144.72,144.72,0,0,0,583.15,468l1.3.77,1.5.87c.66.38,1.33.77,2,1.14l1.37.75,1.58.86c1,.51,2,1,3,1.53.7.37,1.44.73,2.17,1.07s1.7.86,2.69,1.26h0A121.89,121.89,0,0,0,610.27,481c.83.31,1.7.6,2.52.87.56.19,1.13.38,1.71.53l1.7.53,1.6.46c.91.25,1.83.49,2.75.71Z"/><path class="cls-13" d="M558.81,527.16c.1,1.25.16,2.68.16,4.26-.33-2.15-.63-4.29-.92-6.41h0l.37-2.14C558.54,524.25,558.68,525.7,558.81,527.16Z"/><path class="cls-13" d="M623,484.06c-.24,0-1.11,0-4-.16h-4l-3.68-.18h-4.72l-3.68-.21h0l-1.71-.08h0a24.64,24.64,0,0,1-2.45-.57,68,68,0,0,1-14.66-5.5,35.41,35.41,0,0,1-11.93-9.53,18.16,18.16,0,0,1-1.79-2.74h0a19,19,0,0,1-1-2.13l-.54.25.68-4,.46-.15a146.81,146.81,0,0,0,13.29,8.79l1.3.77,1.5.87c.66.37,1.33.76,2,1.14l1.36.75,1.58.85c1,.51,2,1,3,1.53.7.38,1.44.74,2.17,1.08s1.7.87,2.69,1.28c3.63,1.7,7.48,3.27,11.49,4.68.84.31,1.7.6,2.52.87.56.19,1.13.38,1.71.53s1.14.38,1.7.55l1.6.44c.91.26,1.83.49,2.75.72Z"/><path class="cls-15" d="M568.87,604.9h0a11.41,11.41,0,0,0-.6-2,3.65,3.65,0,0,0-1.43-1.93,1.37,1.37,0,0,0-1.41,0,1.34,1.34,0,0,0-.82,1.12,1.22,1.22,0,0,0,.2.74,4.38,4.38,0,0,0,1.28,1.22,3.92,3.92,0,0,0-2.47.38,1.66,1.66,0,0,0-.68.9,1.59,1.59,0,0,0,.13,1.43,1.2,1.2,0,0,0,.89.31,11.25,11.25,0,0,0,4.09-1.41l.63-.36h0a.27.27,0,0,0,.09-.12V605Zm-5.39,1.36s-.15-.17,0-.7a.94.94,0,0,1,.36-.47,5.84,5.84,0,0,1,3.87,0c-1.69.92-3.77,1.68-4.23,1.17Zm2.18-3.41a1.3,1.3,0,0,1-.49-.78c0-.19.29-.36.44-.44a.93.93,0,0,1,1,0,2.66,2.66,0,0,1,1,1.27,8.94,8.94,0,0,1,.57,1.57,10.36,10.36,0,0,1-2.48-1.53Z"/><path class="cls-15" d="M580.82,612.11H560a47.42,47.42,0,0,0,8-6.39l.82-.82h0c.77-.77,1.21-1.26,1.21-1.26h.31a80.56,80.56,0,0,1,8.79-.39c1.09,0,1.82.18,1.81.47A75.75,75.75,0,0,0,580.82,612.11Z"/><path class="cls-10" d="M650.6,410.77l-38.15.87s-3.7,12.73-4.48,16-1.33,5.69-1.33,5.69h0l-7.55-2.13-.5,55.94c14.76-2.13,40.91,3.61,51.14-7.74C667,460.55,650.6,410.77,650.6,410.77Z"/><path class="cls-18" d="M606.64,433.42l20.72,5.45s-10.9-8-19.39-11.14C607.2,430.81,606.64,433.42,606.64,433.42Z"/><path class="cls-10" d="M612.48,412.88l38.13-2.05a99.75,99.75,0,0,1,5.12-22.55c2.71-8,6.68-18.11,12.66-32.91,2-4.91,1.41-9.93-1-13a7.66,7.66,0,0,0-4.47-2.82c-1.55-.35-3.22-.65-4.94-.93a103.64,103.64,0,0,0-18.27-1.58c-2,0-4.14.17-6.17.34-7.31.61-14.29,10.23-16,19.06a196.85,196.85,0,0,0-3.41,20.33C612.76,386.73,614.05,396.53,612.48,412.88Z"/><path class="cls-26" d="M661,313c-2.82,7.16-9.72,23,.75,26.28,0,0-12.55,8.91-30.92,19.72a35,35,0,0,1,4-22c10.65,1.37,12.1-7.45,12.25-13.17Z"/><path class="cls-13" d="M655.35,317.45l-8.25,6.39a25.11,25.11,0,0,1-.36,4.06,11.07,11.07,0,0,0,7.84-6.53A13.44,13.44,0,0,0,655.35,317.45Z"/><path class="cls-25" d="M685.18,382.08a57.4,57.4,0,0,1-7.84,3.32,14.37,14.37,0,0,1-1.71.46c-.58-2-1.07-4-1.51-6-.6-2.93-1.09-5.91-1.52-8.93s-.72-6.07-1-9.14a3.69,3.69,0,0,1,0-.47c-.09-.74-.14-1.49-.19-2.22s-.1-1.4-.14-2.08c-.08-1.48-.15-2.91-.22-4.29v-.19a6.84,6.84,0,0,0-10.88-5.16l-.28.22h0a6.8,6.8,0,0,0-2.49,5.19h0c0,1.44,0,2.82.12,4.16a12,12,0,0,0,.12,2.08c.08,1.3.19,2.61.29,3.92a3,3,0,0,0,.1.94q.42,4.53,1.23,9.05c.22,1.3.48,2.59.75,3.89.42,2,.92,4.05,1.46,6.08a77.32,77.32,0,0,0,3.5,9.92l.12.29a5,5,0,0,0,.51.9,9,9,0,0,0,2.56,2.44,9.29,9.29,0,0,0,2.91,1.25,11.85,11.85,0,0,0,4.52.15,23.73,23.73,0,0,0,5.94-1.81,55.12,55.12,0,0,0,8.39-4.77l1.14-6.82.91-6.05C689.75,379.73,687.45,381,685.18,382.08ZM674.24,386c-.33,0-.48-.1-.16,0h.16Z"/><path class="cls-26" d="M657.91,278.35c-10.23-1.88-15.12,4.4-18.9,17.47-4.74,16.36-4.5,28.63,9.13,27.44C666.7,321.66,675,281.45,657.91,278.35Z"/><path class="cls-27" d="M645.86,296.31a30.42,30.42,0,0,1-4.2,4.79,2.62,2.62,0,0,0,2.37,1.95Z"/><path class="cls-15" d="M652.37,296.42c-.26,1.05,0,2,.54,2.11s1.21-.63,1.49-1.7,0-2-.55-2.12S652.64,295.36,652.37,296.42Z"/><path class="cls-15" d="M654.07,294.87l-1.6-1.28S652.91,295.67,654.07,294.87Z"/><path class="cls-15" d="M642,294c-.25,1.06,0,2,.55,2.11s1.22-.63,1.48-1.7,0-2-.54-2.12S642.29,292.92,642,294Z"/><path class="cls-15" d="M643.73,292.39l-1.59-1.27S642.57,293.16,643.73,292.39Z"/><path class="cls-28" d="M658.5,290.83a.49.49,0,0,1-.46-.33,4,4,0,0,0-3.54-2.45.5.5,0,0,1-.5-.5h0a.48.48,0,0,1,.48-.48h0a5,5,0,0,1,4.44,3.07.49.49,0,0,1-.29.64Z"/><path class="cls-28" d="M642.86,286.48a.49.49,0,0,1-.24-.94,4.63,4.63,0,0,1,4.86-.27.48.48,0,0,1,.1.69h0a.49.49,0,0,1-.67.11h0a3.74,3.74,0,0,0-3.8.34A.42.42,0,0,1,642.86,286.48Z"/><path class="cls-15" d="M644.36,308.36a40.6,40.6,0,0,1,.18,4.67h.67a5.59,5.59,0,0,0,5.54-2.36,6.27,6.27,0,0,0,.8-2.2,5,5,0,0,0,.1-1.33,13,13,0,0,1-6.24,1.21A6.63,6.63,0,0,1,644.36,308.36Z"/><path class="cls-4" d="M645.41,308.4l.09,1.38c2.88.14,5-.24,6-1.26a5,5,0,0,0,.1-1.33A13,13,0,0,1,645.41,308.4Z"/><path class="cls-17" d="M645.21,313.09a5.61,5.61,0,0,0,5.54-2.37,9,9,0,0,0-3.55.64A4.83,4.83,0,0,0,645.21,313.09Z"/><path class="cls-15" d="M664.21,302s-2.37-11.42.23-19.43c0,0-17.94-14.09-24.86,11.53,0,0,3.28-23.29,21-20.58s10.23,35-1,42.92C659.61,316.46,665.66,309.15,664.21,302Z"/><path class="cls-15" d="M669.63,278.4s-6.46-9.9-14.18-9-8.64,13.1.24,18.75,9.82,11.81,9.82,11.81l10.23-8.52Z"/><path class="cls-15" d="M667.25,300.83l-.65-.24s1-3.12-5.11-6.66-13.26-7.88-13-14.63,3.9-6.81,4.07-6.81v.68c-.17,0-3.17,0-3.41,6.08-.2,6.36,6.65,10.42,12.72,14C668.46,297.2,667.3,300.68,667.25,300.83Z"/><path class="cls-26" d="M661.91,304.43c.55-2.07,3.05-5.25,6-4.26s2.71,9.44-5.65,10C661.11,310.21,660.79,308.71,661.91,304.43Z"/><path class="cls-26" d="M655,364.1a93.24,93.24,0,0,0,.75,24.18c2.71-8,6.69-18.11,12.67-32.91,2-4.91,1.41-9.93-1-13C667,342.37,657.12,342.37,655,364.1Z"/><path class="cls-15" d="M675.19,477.34h0l-3.1,18.22h0l-.27,1.71a5.69,5.69,0,0,1-1.23.11h-48.8c-4.21,0-7.29-3.85-7.29-8.84a13.14,13.14,0,0,1,.08-1.4v-.34a12.19,12.19,0,0,1,.8-3.07,9.44,9.44,0,0,1,.62-1.33.24.24,0,0,1,0-.12h0a9.53,9.53,0,0,1,7.92-5.35H672.7A6.39,6.39,0,0,1,675.19,477.34Z"/><path class="cls-15" d="M684.34,423.6l-1.58,9.31h-2.7c-7.89,0-16.83,0-24,.43h-.71c-5.64.36-10.09,1-11.93,1.94-2.88,1.54-2.68,18.09-1.95,32.08.17,3.41.38,6.68.57,9.53.13,2,.27,3.87.39,5.4a5.08,5.08,0,0,1-.21,1.82,2.31,2.31,0,0,1-.1.28,4,4,0,0,1-3.41,2.79,2.67,2.67,0,0,1-2.32-1.31,4,4,0,0,1-.54-1.64c-.19-1.8-.46-4.34-.73-7.34s-.57-6.09-.82-9.53c-1-14-1.71-31.12,1-36.32,1.89-3.67,9-5.68,17.81-6.72l1.07-.12a219.79,219.79,0,0,1,28.69-.66Z"/><path class="cls-23" d="M710.25,271.36,695.68,357l-.36,2.08-.38,2.2L692,378.38l-1,6.1-1.15,6.82-3.22,18.9-.37,2.15h0l-1.91,11.2-1.59,9.31-7.56,44.43h0l-3.11,18.22h0l-.27,1.7L652.23,612.08H543.15l1.58-9.33L558.05,525h0l.37-2.15h0l2.37-14h0l2-11.44,1.7-10.32,1.71-10.15,1.7-9.52.21-1.23h0v-.1h0l.54-3.26.68-4,4.16-24.44,1.08-6.27.51-3,26.14-153.67q.87-5.12,2.12-9.93c7.31-28.54,24.2-52.45,43.58-63.36a55.34,55.34,0,0,1,10.11-4.4,41.67,41.67,0,0,1,12.25-1.9c.82,0,1.62,0,2.42.08C700.3,193.69,717.56,228.67,710.25,271.36Z"/><path class="cls-29" d="M671.68,191.85l35.43,97.9,3.14-18.44C717.56,228.67,700.3,193.69,671.68,191.85Z"/><polygon class="cls-29" points="554.19 547.63 543.28 611.67 543.46 612.11 577.51 612.11 554.19 547.63"/><path class="cls-29" d="M646.9,198.07l51.56,142.56,3.76-21.9-45.2-125A54.69,54.69,0,0,0,646.9,198.07Z"/><polygon class="cls-29" points="565.24 482.69 561.49 504.7 600.35 612.11 612.06 612.11 565.24 482.69"/><path class="cls-29" d="M601.2,271.36v.31l74.16,205,1.88-11L603.37,261.42Q602.07,266.33,601.2,271.36Z"/></g><g id="freepik--character-1--inject-9"><path class="cls-15" d="M292.34,476.9H352.2a10.24,10.24,0,0,1,10.25,10.24h0a10.24,10.24,0,0,1-10.25,10.24H292.34a10.24,10.24,0,0,1-10.24-10.24h0A10.24,10.24,0,0,1,292.34,476.9Z"/><path class="cls-15" d="M332.89,487.19a4,4,0,0,0,3.92-2.95c2.81-10.5,11.73-45.37,7.82-53.19-5-10-58.93-7.69-74.55-6.82a4.48,4.48,0,0,0-4.21,4.47h0a4.47,4.47,0,0,0,4.47,4.46h.1c14.16-.34,56.83-1.09,63.76,2.12,4.69,2.16-2.28,34.54-5.11,47a4,4,0,0,0,3,4.79,4.32,4.32,0,0,0,.87.11Z"/><path class="cls-15" d="M240.63,589.73,279.12,586V542.47h15.23v43.37L333,589.73a7.5,7.5,0,0,1,6.82,7.47V603H233.86V597.2A7.51,7.51,0,0,1,240.63,589.73Z"/><path class="cls-22" d="M240.63,589.73,279.12,586V542.47h15.23v43.37L333,589.73a7.5,7.5,0,0,1,6.82,7.47V603H233.86V597.2A7.51,7.51,0,0,1,240.63,589.73Z"/><path class="cls-15" d="M325.72,610.05a10,10,0,1,0,10-10,10,10,0,0,0-10,10Z"/><path class="cls-15" d="M247.91,610.05a10,10,0,1,1-10-10,10,10,0,0,1,10,10Z"/><path class="cls-15" d="M291.47,554.09H282a5.52,5.52,0,0,1-5.52-5.52V506h20.45v42.61A5.52,5.52,0,0,1,291.47,554.09Z"/><path class="cls-23" d="M291.47,554.09H282a5.52,5.52,0,0,1-5.52-5.52V506h20.45v42.61A5.52,5.52,0,0,1,291.47,554.09Z"/><path class="cls-15" d="M361.34,467.37H285.58L255.1,368.16a12.77,12.77,0,0,0-12.2-9H179.36A12.77,12.77,0,0,0,166.66,372a12.64,12.64,0,0,0,.37,3l26.12,105.68A37.23,37.23,0,0,0,229.3,509H362a20.73,20.73,0,0,0,20.72-20.74c0-.32,0-.65,0-1A21.09,21.09,0,0,0,361.34,467.37Z"/><path class="cls-11" d="M361.34,467.37H285.56L255.1,368.16a12.77,12.77,0,0,0-12.2-9H179.36A12.77,12.77,0,0,0,166.66,372a12.64,12.64,0,0,0,.37,3l26.12,105.68A37.24,37.24,0,0,0,229.3,509H362a20.75,20.75,0,0,0,20.71-20.78c0-.46,0-.92,0-1.38A21.06,21.06,0,0,0,361.34,467.37Z"/><path class="cls-13" d="M185.68,374.8l27.75,115.75h0a23.18,23.18,0,0,1,23.18-23.18h48.95S267.87,409.74,255,368.16a12.71,12.71,0,0,0-12.18-9H198.07a12.74,12.74,0,0,0-12.72,12.77A12.57,12.57,0,0,0,185.68,374.8Z"/><path class="cls-10" d="M268.91,399.91s-20.46-.65-34.3,0-9.27,9.41-20.45,5.69-11.38-1.46-12.7,2-21.68,2.82-20.79,7.84-13.88,7.91-13.88,7.91,2-20,1.16-31.34c-.34-4.66-1.43-11.35-2.6-17.66a14.69,14.69,0,0,1,11.77-17.12,14,14,0,0,1,2.66-.25H239a18.38,18.38,0,0,1,17,11.44Z"/><path class="cls-19" d="M268.91,399.91s-20.46-.65-34.3,0-9.27,9.41-20.45,5.69-11.38-1.46-12.7,2-21.68,2.82-20.79,7.84-13.88,7.91-13.88,7.91,2-20,1.16-31.34c-.34-4.66-1.43-11.35-2.6-17.66a14.69,14.69,0,0,1,11.77-17.12,14,14,0,0,1,2.66-.25H239a18.38,18.38,0,0,1,17,11.44Z"/><path class="cls-24" d="M290.52,305.35l-.24-9.89-9.44,7.64s1.36,7.57,6.08,9.1l.89-.77A7.79,7.79,0,0,0,290.52,305.35Z"/><polygon class="cls-24" points="285.83 287.76 277.04 292.9 280.84 303.12 290.28 295.46 285.83 287.76"/><path class="cls-24" d="M177.77,371.56l-9.8-1.38,6,10.57s7.67-.1,10-4.52l-.61-1A7.8,7.8,0,0,0,177.77,371.56Z"/><polygon class="cls-24" points="159.65 373.22 163.3 382.73 173.97 380.67 167.97 370.1 159.65 373.22"/><path class="cls-15" d="M269.16,285.42s.85,7.25,10,12.7,1.7,14.08,3,21.07,13.82,14.6,5,19.77l-8.28,2.66s8.21-5.12,7.79-9.05c-.94-8.52-8-10-8.36-14.66-.68-8.63,7.42-13.4,1.88-15.34S267.49,293.4,269.16,285.42Z"/><path class="cls-15" d="M293.57,332.94A4.35,4.35,0,0,1,290,331a6.82,6.82,0,0,1,1.11-8.61c3.2-3.41,7.92-13.64,5.11-19.86-1.5-3.41-5.11-5.11-10.58-5.11h-.33c-6.81,0-11.79-1.71-14.52-4.94a10.26,10.26,0,0,1-2.2-8,.39.39,0,0,1,.43-.31h0a.4.4,0,0,1,.3.45,9.72,9.72,0,0,0,2.05,7.36c2.62,3.15,7.45,4.75,14.25,4.67,5.79,0,9.64,1.81,11.28,5.5,2.88,6.5-2,17.05-5.3,20.68a6.1,6.1,0,0,0-1.06,7.65,3.57,3.57,0,0,0,4.52,1.26.37.37,0,0,1,.5.18v0a.37.37,0,0,1-.2.49h0A4.57,4.57,0,0,1,293.57,332.94Z"/><path class="cls-15" d="M302.07,334.27a.34.34,0,0,1-.2,0,10.91,10.91,0,0,1-3.31-3.25,7.58,7.58,0,0,1,0-4,5.35,5.35,0,0,1,.17-.92c.11-.8.23-1.58.35-2.37a56.6,56.6,0,0,0,.85-7.91c.1-6.82-3.28-12.51-8.78-14.84a28.62,28.62,0,0,0-7.59-1.71l-2.09-.27a16.44,16.44,0,0,1-9.32-3.82.35.35,0,0,1,0-.5l0,0a.37.37,0,0,1,.52,0,15.86,15.86,0,0,0,8.9,3.62l2.08.27a29.34,29.34,0,0,1,7.79,1.7c5.81,2.46,9.34,8.42,9.25,15.55a61.65,61.65,0,0,1-.85,8c-.13.78-.25,1.58-.36,2.37a4.64,4.64,0,0,1-.17.95,7,7,0,0,0,0,3.58,10,10,0,0,0,3,2.9.41.41,0,0,1,.12.53A.42.42,0,0,1,302.07,334.27Z"/><path class="cls-15" d="M231,275.84s3.92-9,16.55-9,23.18,7.51,22.58,17.14,6.62,8.73,7.83,18-3.41,11.75-3.62,15.67,4.81,2.69,8.13,9.32,7.52,15.95-6.63,28.29-54.16,10.23-62.89,2.7-8.42-22,0-25.88.6-3.3-.31-12,6.92-12,6.33-19S216.21,276.46,231,275.84Z"/><path class="cls-25" d="M274.53,339l4.45.1h4.62c3.1,0,6.17-.2,9.24-.41s6.06-.59,9.05-1a76.18,76.18,0,0,0,8.67-1.86l-1.33.62a3.91,3.91,0,0,0-1.29,1.39,3.7,3.7,0,0,0-.51,1.71c0,.75.12.46,0,.1a16.35,16.35,0,0,0-1.71-3.58,83,83,0,0,0-6.17-8.3c-2.28-2.78-4.7-5.52-7.14-8.25s-5-5.45-7.45-8.15h0a3.77,3.77,0,0,1,4.88-5.69c3.24,2.17,6.22,4.45,9.27,6.82s5.91,4.87,8.78,7.52a78.23,78.23,0,0,1,8.25,8.82,28.77,28.77,0,0,1,3.75,6.14,12.35,12.35,0,0,1,1.07,5.56,9.34,9.34,0,0,1-1.3,4.36,9.83,9.83,0,0,1-3.28,3.41,6.58,6.58,0,0,1-1,.51l-.29.1A76.1,76.1,0,0,1,304.84,352a93.54,93.54,0,0,1-10.38,1.7,100.38,100.38,0,0,1-10.37.75H279c-1.7,0-3.41-.1-5.35-.27a7.57,7.57,0,1,1,.78-15.12Z"/><path class="cls-26" d="M392,573.13l-8.39,1.6S337.82,464.9,330.52,464.59s-81.59,33.83-100.2,14.9,8.3-64.57,8.3-64.57,44.77-6.39,48.15,3.72a70.23,70.23,0,0,1,1.91,9.09c.49,3.08.85,5.69.85,5.69h0c1.38-.36,46.34-11.93,64.05,0C371.65,445.59,392,573.13,392,573.13Z"/><path class="cls-26" d="M262.48,484.06s3,0,50-2.12c0,0-8.73,80.69-12.55,124.65l9.8.56S349.25,493,349,477.92s-17.51-19.33-17.51-19.33S297.93,477.9,262.48,484.06Z"/><path class="cls-13" d="M335.57,527.16c7.68-30.9,11.54-47,7.68-54.42a23.15,23.15,0,0,0-11.65-10.23c-10,15.58-41.2,20.35-42,20.46h0c-23.14,1-26.6,1-27,1a203.54,203.54,0,0,0,41.19-12.29,246.63,246.63,0,0,0,27.67-13.17s17.14,4.38,17.5,19.34c.15,6.11-6.37,28.84-14.11,53.57A39.22,39.22,0,0,1,335.57,527.16Z"/><path class="cls-15" d="M398.48,568.87a22.84,22.84,0,0,1-4.21-.5h-.12l-.1-.1h0a.25.25,0,0,1,0-.17c0-.15.39-3.41,2-4.58a2.09,2.09,0,0,1,1.71-.38c.66.15,1,.44,1.11.9a4.27,4.27,0,0,1-1.56,2.41,5.61,5.61,0,0,1,3-.38,1.43,1.43,0,0,1,.91.72,1.3,1.3,0,0,1,0,1.46A3.41,3.41,0,0,1,398.48,568.87Zm-3.09-1c2.12.34,4.67.5,5.12-.15a.81.81,0,0,0,0-.72.74.74,0,0,0-.48-.35,8.45,8.45,0,0,0-4.6,1.22Zm1.71-4.17a1.27,1.27,0,0,0-.8.27,5.75,5.75,0,0,0-1.56,3.32c1.71-1.19,3.41-2.64,3.26-3.24,0-.18-.38-.28-.58-.32Z"/><path class="cls-15" d="M318.4,607.13a16.35,16.35,0,0,1-5.55-1.7h0a.24.24,0,0,1,0-.12h0a.14.14,0,0,1,0-.09h0a.19.19,0,0,1,0-.15c0-.15,1.21-3.24,3-4a2,2,0,0,1,1.71,0c.61.28.9.66.86,1.12,0,.7-1,1.4-2.11,2a5.4,5.4,0,0,1,3,.38,1.41,1.41,0,0,1,.7.9,1.25,1.25,0,0,1-.34,1.43A1.85,1.85,0,0,1,318.4,607.13Zm-4.33-2c2,.85,4.4,1.61,5,1.1,0,0,.24-.17.1-.7a.7.7,0,0,0-.37-.47A8.85,8.85,0,0,0,314.07,605.16Zm2.42-3.65a1.3,1.3,0,0,0-.52.1,5.71,5.71,0,0,0-2.32,2.85c2-.74,3.9-1.71,4-2.36,0-.18-.3-.35-.47-.44a1.43,1.43,0,0,0-.64-.15Z"/><path class="cls-15" d="M379.44,570.4c-.24-1.07,13-3.41,13-3.41s9.95,6.22,18.15,6.17,5,5.66-3.68,7.76L385.4,586C379.23,587.62,381.79,581.43,379.44,570.4Z"/><path class="cls-15" d="M298,603.69c0-1.09,13.4,0,13.4,0s8.11,8.52,16.09,10.43,3.41,6.82-5.49,6.61l-22-.32C293.55,620.41,297.58,615,298,603.69Z"/><path class="cls-10" d="M238.62,410.77l46.72.87s2.81,12.73,3.41,16,.85,5.69.85,5.69h0l9.51-2.11-7,55.94c-17.83-2.14-50.62,3.61-61.79-7.74C211.72,460.55,238.62,410.77,238.62,410.77Z"/><path class="cls-18" d="M289.56,433.42l-26.19,5.45s14.45-8,25.34-11.06C289.21,430.81,289.56,433.42,289.56,433.42Z"/><path class="cls-10" d="M285.17,412.88l-46.55-2.11a79,79,0,0,0-3.41-22.55c-2.23-8.05-5.74-18.12-11.08-32.92a11.79,11.79,0,0,1,3-13,11.25,11.25,0,0,1,5.84-2.83c2-.34,4.06-.65,6.21-.92A158.89,158.89,0,0,1,261.85,337c2.47,0,5.11.17,7.52.34,8.89.62,16.15,10.23,17,19.06a153.64,153.64,0,0,1,1.52,20.33C288.37,386.73,285.44,396.53,285.17,412.88Z"/><path class="cls-26" d="M239.1,313c2.48,7.16,8.83,23-4.49,26.28,0,0,14.2,8.91,35.29,19.72A27.75,27.75,0,0,0,268,337c-13.26,1.37-13.84-7.45-13.25-13.17Z"/><path class="cls-13" d="M245.44,317.45l9.25,6.39a25,25,0,0,0-.12,4.06c-3.17-.22-7.92-3.33-8.72-6.53A11,11,0,0,1,245.44,317.45Z"/><path class="cls-25" d="M237.36,353.89c-.27,2-.56,3.61-.94,5.37s-.75,3.41-1.18,5.11q-1.29,5.11-3.05,10.23a101.46,101.46,0,0,1-4.1,9.95,75.6,75.6,0,0,1-5.48,9.63l-.15.24a5.8,5.8,0,0,1-.75.89,11.32,11.32,0,0,1-5.62,3,13.74,13.74,0,0,1-4.61.24A27,27,0,0,1,204.8,397a63.11,63.11,0,0,1-10.48-5.12c-3.2-1.92-6.25-4-9.2-6.13s-5.76-4.38-8.52-6.82a3.78,3.78,0,0,1,4.22-6.19h.1c3,1.55,6.16,3.21,9.26,4.69s6.22,3,9.32,4.26a60.83,60.83,0,0,0,9.07,3.15,14,14,0,0,0,3.7.5c.44,0,.73-.1.68-.12a1.69,1.69,0,0,0-1,.53l-.89,1.14a82.61,82.61,0,0,0,3.84-8.2c1.1-2.86,2.16-5.79,3.06-8.81s1.71-6.07,2.49-9.15,1.42-6.29,2-9.12v-.27a7.57,7.57,0,1,1,14.93,2.5Z"/><path class="cls-26" d="M247.55,278.35c12.83-1.88,18,4.4,20.85,17.47,3.57,16.36,1.61,28.63-14.94,27.44C231,321.66,226.25,281.45,247.55,278.35Z"/><path class="cls-27" d="M260,296.31a28,28,0,0,0,4.5,4.79,3.55,3.55,0,0,1-3.17,1.95Z"/><path class="cls-15" d="M252,296.42c.17,1.05-.24,2-.95,2.11s-1.4-.63-1.59-1.7.24-2,1-2.12S251.79,295.36,252,296.42Z"/><path class="cls-15" d="M250.11,294.87l2.13-1.28S251.42,295.67,250.11,294.87Z"/><path class="cls-15" d="M265,294c.17,1.06-.23,2-.93,2.11s-1.42-.63-1.61-1.7.26-2,1-2.12S264.83,292.92,265,294Z"/><path class="cls-15" d="M263.13,292.39l2.13-1.27S264.46,293.16,263.13,292.39Z"/><path class="cls-28" d="M245.28,290.88a.71.71,0,0,1-.29,0,.55.55,0,0,1-.18-.75h0a7.18,7.18,0,0,1,5.74-3.11h0a.55.55,0,0,1,0,1.1,6.27,6.27,0,0,0-4.82,2.48A.57.57,0,0,1,245.28,290.88Z"/><path class="cls-28" d="M265.07,286.53h-.24a5.5,5.5,0,0,0-4.75-.32.57.57,0,0,1-.75-.22.54.54,0,0,1,.21-.75h0a6.59,6.59,0,0,1,5.76.28.57.57,0,0,1,.27.75A.58.58,0,0,1,265.07,286.53Z"/><path class="cls-15" d="M260.2,308.36a31.15,31.15,0,0,0-.85,4.67h-.84c-3.8.17-5.61-1-6.46-2.36a4.79,4.79,0,0,1-.7-2.2,4.24,4.24,0,0,1,0-1.33,18.12,18.12,0,0,0,7.5,1.21A10.87,10.87,0,0,0,260.2,308.36Z"/><path class="cls-4" d="M258.9,308.4l-.29,1.38c-3.56.14-6.1-.24-7.26-1.26a4.24,4.24,0,0,1,0-1.33A18,18,0,0,0,258.9,308.4Z"/><path class="cls-17" d="M258.51,313.09c-3.8.17-5.61-1-6.46-2.37a12.69,12.69,0,0,1,4.24.64A4.69,4.69,0,0,1,258.51,313.09Z"/><path class="cls-15" d="M236.68,302s4.46-11.42,2.37-19.43c0,0,23.86-14.09,29,11.53,0,0-.85-23.29-23-20.58s-17.34,35-4.54,42.92C240.46,316.46,233.93,309.15,236.68,302Z"/><path class="cls-15" d="M233.23,278.4s9.28-9.9,18.62-9,8.84,13.1-2.83,18.75-13.64,11.81-13.64,11.81l-11.33-8.52Z"/><path class="cls-15" d="M233.17,300.83c0-.15-1-3.68,7.53-7.55,7.92-3.6,16.91-7.67,17.52-14a6.27,6.27,0,0,0-1.11-5,3.15,3.15,0,0,0-2.21-1h0v-.77a3.91,3.91,0,0,1,2.77,1.28,6.91,6.91,0,0,1,1.32,5.55c-.65,6.82-9.85,10.95-18,14.63-7.82,3.54-7.1,6.6-7.1,6.63Z"/><path class="cls-26" d="M239.18,304.43a5.68,5.68,0,0,0-6.82-4.26c-3.92,1-4.61,9.44,5.56,10C239.39,310.21,240,308.71,239.18,304.43Z"/><path class="cls-26" d="M239.54,364.1a79.28,79.28,0,0,1-4.21,24.18c-2.23-8-5.74-18.11-11.08-32.91a11.81,11.81,0,0,1,3-13C227.78,342.37,239.91,342.37,239.54,364.1Z"/><path class="cls-15" d="M202.43,476.9h59.86a10.24,10.24,0,0,1,10.25,10.24h0a10.24,10.24,0,0,1-10.25,10.24H202.43a10.24,10.24,0,0,1-10.24-10.24h0A10.24,10.24,0,0,1,202.43,476.9Z"/><path class="cls-15" d="M243,487.19a4,4,0,0,0,3.91-2.95c2.83-10.5,11.74-45.37,7.84-53.19-5-10-58.94-7.69-74.56-6.82A4.48,4.48,0,0,0,176,428.7h0a4.45,4.45,0,0,0,4.43,4.46h.13c14.18-.34,56.84-1.09,63.76,2.12,4.7,2.16-2.27,34.54-5.12,47a4,4,0,0,0,3,4.79,4.14,4.14,0,0,0,.87.11Z"/></g><g id="freepik--Plant--inject-9"><path class="cls-10" d="M126.89,494.06c.36,2.51-6.44,4.14-11.93,5.11.45,4.54,3.41,9.14,7.66,13.44,5.26-3,12.76-6.82,14.14-5.92s-6.17,6-11,8.93a97,97,0,0,0,10.89,8.25c2.35-2.2,5.11-4.14,6.82-3.08s1.24,4.48.4,7.53c5.73,3.32,10,5.35,10,5.35a115.78,115.78,0,0,0,3.82-16.22c-.29-.58-.57-1.16-.84-1.71-.92-2.15,0-3,1.5-3.41a56.58,56.58,0,0,0,.1-11.71c-6.47-1.36-14.35-3.87-11.4-7.75,1.71-2.34,5.11-2.61,8.42-2a13.73,13.73,0,0,0-1.6-2.18c-11.78-13-20,0-20,0-6.82-5.71-16.47-4.16-18.54,4.75C119.09,492.42,126.45,491,126.89,494.06Z"/><path class="cls-30" d="M126.89,494.06c.36,2.51-6.44,4.14-11.93,5.11.45,4.54,3.41,9.14,7.66,13.44,5.26-3,12.76-6.82,14.14-5.92s-6.17,6-11,8.93a97,97,0,0,0,10.89,8.25c2.35-2.2,5.11-4.14,6.82-3.08s1.24,4.48.4,7.53c5.73,3.32,10,5.35,10,5.35a115.78,115.78,0,0,0,3.82-16.22c-.29-.58-.57-1.16-.84-1.71-.92-2.15,0-3,1.5-3.41a56.58,56.58,0,0,0,.1-11.71c-6.47-1.36-14.35-3.87-11.4-7.75,1.71-2.34,5.11-2.61,8.42-2a13.73,13.73,0,0,0-1.6-2.18c-11.78-13-20,0-20,0-6.82-5.71-16.47-4.16-18.54,4.75C119.09,492.42,126.45,491,126.89,494.06Z"/><path class="cls-10" d="M141.59,589.47l-1.71-.13c0-.89,7-87.83-12.54-96a6.63,6.63,0,0,0-5.92.13c-7,3.67-10.43,18.89-10.46,19.06l-1.71-.37c.14-.65,3.58-16.16,11.34-20.19a8.29,8.29,0,0,1,7.36-.22C148.66,500.42,141.89,585.84,141.59,589.47Z"/><path class="cls-10" d="M144.06,587.6c-.36-3.92-8.32-95.91,6.58-105.67,3.56-2.34,6.81-2.85,9.46-1.47,7,3.55,8,18.6,8,19.23l-1.7.1c0-.16-.91-14.71-7.06-17.81-2.13-1.08-4.74-.62-7.76,1.38-14.06,9.2-5.91,103.13-5.82,104.09Z"/><path class="cls-10" d="M146.29,595c-.12-3-2.57-73.41,11-79.58a9.57,9.57,0,0,1,8.07,0c9.3,4.11,15.06,21.44,15.34,22.16l-1.71.53c0-.17-5.74-17.35-14.35-21.14a7.77,7.77,0,0,0-6.66,0c-10.42,4.74-10.76,58-10,78Z"/><path class="cls-10" d="M142.83,591.81l-1.7-.19c2.38-21,7-76.8-.52-83.51a2.9,2.9,0,0,0-3.05-1c-5,1.93-8,20.1-8.79,26.93l-1.71-.19c.28-2.62,3-25.68,9.87-28.32a4.51,4.51,0,0,1,4.81,1.26C151.42,515.49,143.17,588.69,142.83,591.81Z"/><polygon class="cls-15" points="114.4 552.08 175.62 552.08 170.51 620.67 119.51 620.67 114.4 552.08"/><polygon class="cls-23" points="133 552.08 134.7 620.67 170.51 620.67 175.62 552.08 133 552.08"/><path class="cls-10" d="M122.72,526.91c-.63,1.7-5.39.35-9.14-1-1.28,3-1,6.82.12,10.91,4.26,0,10.23.14,10.76,1.21s-5.87,1.59-9.84,1.71a72.16,72.16,0,0,0,3.89,8.83c2.21-.57,4.58-.81,5.23.4s-.77,3.19-2.33,4.79c2.38,4,4.33,6.74,4.33,6.74a82.75,82.75,0,0,0,7.92-8.71v-1.37c.17-1.7,1-1.89,2.06-1.55a38.78,38.78,0,0,0,4.08-7.17c-3.53-3.07-7.52-7.32-4.37-8.7,1.9-.83,4,.12,5.88,1.71a9.22,9.22,0,0,0-.23-1.89c-2.82-12.05-12.34-6.82-12.34-6.82-2.27-5.88-8.73-8.22-13.06-3.41C118.49,523.26,123.52,524.84,122.72,526.91Z"/><path class="cls-30" d="M122.72,526.91c-.63,1.7-5.39.35-9.14-1-1.28,3-1,6.82.12,10.91,4.26,0,10.23.14,10.76,1.21s-5.87,1.59-9.84,1.71a72.16,72.16,0,0,0,3.89,8.83c2.21-.57,4.58-.81,5.23.4s-.77,3.19-2.33,4.79c2.38,4,4.33,6.74,4.33,6.74a82.75,82.75,0,0,0,7.92-8.71v-1.37c.17-1.7,1-1.89,2.06-1.55a38.78,38.78,0,0,0,4.08-7.17c-3.53-3.07-7.52-7.32-4.37-8.7,1.9-.83,4,.12,5.88,1.71a9.22,9.22,0,0,0-.23-1.89c-2.82-12.05-12.34-6.82-12.34-6.82-2.27-5.88-8.73-8.22-13.06-3.41C118.49,523.26,123.52,524.84,122.72,526.91Z"/><path class="cls-10" d="M168.21,535.05a23.46,23.46,0,0,0-5.61,1.18,13.7,13.7,0,0,1-.82-4.06c-.39-12.34,8.53-7.14,13.13-10.77a10.05,10.05,0,0,1,7.8-2.44,18.16,18.16,0,0,0-1.05,2.12,2,2,0,0,0,1.12,2.53,1.66,1.66,0,0,0,.38.11,5.79,5.79,0,0,0,3.41-.41,7,7,0,0,0,.88-.63,17.22,17.22,0,0,1,1.71,4.14,22.93,22.93,0,0,1,.8,5.27c-.68.17-1.38.35-2.06.59a1.92,1.92,0,0,0-1,2.54,2.3,2.3,0,0,0,.23.4,9,9,0,0,0,2.54,1.78,29.35,29.35,0,0,1-1.55,5.78l-.63.1c-.45.09-.89.21-1.33.33l-.74.27a2,2,0,0,0-1.15,1.5,1.92,1.92,0,0,0,.73,1.71,5.9,5.9,0,0,0,.9.56,13.62,13.62,0,0,1-4.89,4.94,49.3,49.3,0,0,1-5.11-2.76c.37-.49.73-1,1.09-1.5a2.93,2.93,0,0,0,.51-1.94,2.68,2.68,0,0,0-1-1.71,2.8,2.8,0,0,0-1.94-.53,2.71,2.71,0,0,0-1.71,1,18.11,18.11,0,0,1-1.31,1.7,32.53,32.53,0,0,1-6.27-6.08h.19a21.57,21.57,0,0,1,3.4-.58,2.63,2.63,0,0,0-.36-5.24l-.3,0Z"/><path class="cls-29" d="M168.21,535.05a23.46,23.46,0,0,0-5.61,1.18,13.7,13.7,0,0,1-.82-4.06c-.39-12.34,8.53-7.14,13.13-10.77a10.05,10.05,0,0,1,7.8-2.44,18.16,18.16,0,0,0-1.05,2.12,2,2,0,0,0,1.12,2.53,1.66,1.66,0,0,0,.38.11,5.79,5.79,0,0,0,3.41-.41,7,7,0,0,0,.88-.63,17.22,17.22,0,0,1,1.71,4.14,22.93,22.93,0,0,1,.8,5.27c-.68.17-1.38.35-2.06.59a1.92,1.92,0,0,0-1,2.54,2.3,2.3,0,0,0,.23.4,9,9,0,0,0,2.54,1.78,29.35,29.35,0,0,1-1.55,5.78l-.63.1c-.45.09-.89.21-1.33.33l-.74.27a2,2,0,0,0-1.15,1.5,1.92,1.92,0,0,0,.73,1.71,5.9,5.9,0,0,0,.9.56,13.62,13.62,0,0,1-4.89,4.94,49.3,49.3,0,0,1-5.11-2.76c.37-.49.73-1,1.09-1.5a2.93,2.93,0,0,0,.51-1.94,2.68,2.68,0,0,0-1-1.71,2.8,2.8,0,0,0-1.94-.53,2.71,2.71,0,0,0-1.71,1,18.11,18.11,0,0,1-1.31,1.7,32.53,32.53,0,0,1-6.27-6.08h.19a21.57,21.57,0,0,1,3.4-.58,2.63,2.63,0,0,0-.36-5.24l-.3,0Z"/><path class="cls-10" d="M171.74,492.48a14.78,14.78,0,0,1,3.41-1.84,9,9,0,0,0-1.35-2.49c-5.22-6.67-7.58,0-11.62.1a6.83,6.83,0,0,0-5.12,2.15,10.23,10.23,0,0,1,1.49.63,1.31,1.31,0,0,1,.56,1.76.92.92,0,0,1-.19.28,3.9,3.9,0,0,1-2,1.32h-.75a11.2,11.2,0,0,0,.92,2.91,15.63,15.63,0,0,0,1.91,3.12,10.6,10.6,0,0,1,1.33-.6,1.33,1.33,0,0,1,1.65.9,1.67,1.67,0,0,1,0,.31,6.13,6.13,0,0,1-.56,2.05,20.16,20.16,0,0,0,3.41,2.37l.37-.22.85-.43a2.27,2.27,0,0,1,.5-.17,1.3,1.3,0,0,1,1.66.82,1.23,1.23,0,0,1,0,.71,4.45,4.45,0,0,1-.24.7,9.33,9.33,0,0,0,4.74.44,35.67,35.67,0,0,0,1.54-3.73c-.41-.08-.84-.19-1.23-.3a2,2,0,0,1-1.13-.79,1.8,1.8,0,0,1,1.73-2.76l.17,0,1.46.36a22,22,0,0,0,.63-5.95h-.13a13.54,13.54,0,0,0-2.08,1.23,1.8,1.8,0,1,1-1.93-3h0Z"/><path class="cls-30" d="M171.74,492.48a14.78,14.78,0,0,1,3.41-1.84,9,9,0,0,0-1.35-2.49c-5.22-6.67-7.58,0-11.62.1a6.83,6.83,0,0,0-5.12,2.15,10.23,10.23,0,0,1,1.49.63,1.31,1.31,0,0,1,.56,1.76.92.92,0,0,1-.19.28,3.9,3.9,0,0,1-2,1.32h-.75a11.2,11.2,0,0,0,.92,2.91,15.63,15.63,0,0,0,1.91,3.12,10.6,10.6,0,0,1,1.33-.6,1.33,1.33,0,0,1,1.65.9,1.67,1.67,0,0,1,0,.31,6.13,6.13,0,0,1-.56,2.05,20.16,20.16,0,0,0,3.41,2.37l.37-.22.85-.43a2.27,2.27,0,0,1,.5-.17,1.3,1.3,0,0,1,1.66.82,1.23,1.23,0,0,1,0,.71,4.45,4.45,0,0,1-.24.7,9.33,9.33,0,0,0,4.74.44,35.67,35.67,0,0,0,1.54-3.73c-.41-.08-.84-.19-1.23-.3a2,2,0,0,1-1.13-.79,1.8,1.8,0,0,1,1.73-2.76l.17,0,1.46.36a22,22,0,0,0,.63-5.95h-.13a13.54,13.54,0,0,0-2.08,1.23,1.8,1.8,0,1,1-1.93-3h0Z"/><path class="cls-10" d="M121.85,504.83c-.36,2.51,6.42,4.16,11.93,5.12-.46,4.55-3.41,9.15-7.67,13.44-5.25-3-12.77-6.81-14.15-5.93s6.17,6,11,8.93a94.47,94.47,0,0,1-10.87,8.25c-2.37-2.2-5.12-4.12-6.82-3.08s-1.25,4.5-.41,7.53c-5.71,3.41-10,5.37-10,5.37A114.31,114.31,0,0,1,91,528.22c.29-.56.58-1.14.83-1.71.92-2.13,0-3-1.5-3.41a57.16,57.16,0,0,1,0-11.77c6.48-1.37,14.36-3.89,11.41-7.76-1.79-2.35-5.12-2.61-8.53-2a15.43,15.43,0,0,1,1.73-2.14c11.79-13,20,0,20,0,6.81-5.71,16.46-4.16,18.54,4.75C129.66,503.2,122.29,501.73,121.85,504.83Z"/><path class="cls-29" d="M121.85,504.83c-.36,2.51,6.42,4.16,11.93,5.12-.46,4.55-3.41,9.15-7.67,13.44-5.25-3-12.77-6.81-14.15-5.93s6.17,6,11,8.93a94.47,94.47,0,0,1-10.87,8.25c-2.37-2.2-5.12-4.12-6.82-3.08s-1.25,4.5-.41,7.53c-5.71,3.41-10,5.37-10,5.37A114.31,114.31,0,0,1,91,528.22c.29-.56.58-1.14.83-1.71.92-2.13,0-3-1.5-3.41a57.16,57.16,0,0,1,0-11.77c6.48-1.37,14.36-3.89,11.41-7.76-1.79-2.35-5.12-2.61-8.53-2a15.43,15.43,0,0,1,1.73-2.14c11.79-13,20,0,20,0,6.81-5.71,16.46-4.16,18.54,4.75C129.66,503.2,122.29,501.73,121.85,504.83Z"/></g></svg>